<?xml version="1.0" standalone="no"?>
<!DOCTYPE svg PUBLIC "-//W3C//DTD SVG 1.1//EN" "http://www.w3.org/Graphics/SVG/1.1/DTD/svg11.dtd" >
<svg>
<metadata>
Created by FontForge 20110222 at Thu Jun  5 11:32:25 2014
 By Orthosie Webhosting
Generated by Fontographer 3.3
</metadata>
<defs>
<font id="AG_SouvenirRegular" horiz-adv-x="2458" >
  <font-face 
    font-family="AG_SouvenirRegular"
    font-weight="400"
    font-stretch="normal"
    units-per-em="4096"
    panose-1="2 11 114 0 0 0 0 0 0 0"
    ascent="3276"
    descent="-820"
    x-height="1937"
    cap-height="2998"
    bbox="-119 -840 4329 3650"
    underline-thickness="20"
    underline-position="-123"
    unicode-range="U+0020-2122"
  />
<missing-glyph horiz-adv-x="3072" 
d="M512 0v2560h2048v-2560h-2048zM2494 66v2428h-1916v-2428h1916z" />
    <glyph glyph-name=".notdef" horiz-adv-x="3072" 
d="M512 0v2560h2048v-2560h-2048zM2494 66v2428h-1916v-2428h1916z" />
    <glyph glyph-name=".null" horiz-adv-x="0" 
 />
    <glyph glyph-name="nonmarkingreturn" horiz-adv-x="0" 
 />
    <glyph glyph-name="space" unicode=" " 
 />
    <glyph glyph-name="exclam" unicode="!" horiz-adv-x="1229" 
d="M381 193q0 90 63.5 151.5t153.5 61.5q94 0 157.5 -66t63.5 -160q0 -89 -67 -151t-154 -62q-94 0 -155.5 65.5t-61.5 160.5zM676 946q-7 -97 -18 -144.5t-64 -47.5q-36 0 -52 37.5t-19.5 75t-6.5 100.5l-119 1847q0 287 217 287q197 0 197 -275q0 -78 -4 -114z" />
    <glyph glyph-name="quotedbl" unicode="&#x22;" horiz-adv-x="1475" 
d="M324 2077l-136 802q0 72 53.5 126.5t123.5 54.5q69 0 122.5 -53.5t53.5 -127.5l-135 -802h-82zM1065 2077l-135 802q0 72 53.5 126.5t122.5 54.5t122.5 -53.5t53.5 -127.5l-135 -802h-82z" />
    <glyph glyph-name="numbersign" unicode="#" 
d="M1438 569q-36 -106 -123 -106q-51 0 -85 32.5t-34 82.5q0 22 14.5 66.5t18.5 60.5l123 364h-598l-144 -434q-33 -96 -57.5 -134t-93.5 -38q-51 0 -87 33.5t-36 85.5q0 26 37 131l119 356h-291q-144 0 -144 115q0 110 140 110h368l217 652h-286q-144 0 -144 114
q0 115 135 115h373l168 491q37 115 127 115q53 0 88 -34t35 -85q0 -40 -33 -131l-119 -356h598l164 500q43 106 127 106q48 0 81.5 -32.5t33.5 -82.5q0 -38 -33 -126l-123 -365h283q143 0 143 -115q0 -114 -139 -114h-360l-222 -652h283q143 0 143 -110q0 -115 -139 -115
h-360zM1049 1950l-218 -652h599l217 652h-598z" />
    <glyph glyph-name="dollar" unicode="$" 
d="M1343 1765q266 -110 447.5 -226t295.5 -296t114 -436q0 -241 -113 -431.5t-308 -305t-436 -140.5v-331q0 -89 -17 -124.5t-81 -35.5q-69 0 -85.5 29t-16.5 106v356q-337 29 -537 168q-125 90 -222 233t-97 275q0 139 119 139q59 0 86 -36t45 -103q65 -244 203.5 -350.5
t402.5 -132.5v1319l-53 24q-247 116 -394 211t-243.5 247.5t-96.5 381.5q0 208 109 383.5t290.5 281t387.5 117.5v312q0 79 16.5 115t81.5 36q70 0 86 -36t16 -115v-312q161 -6 316.5 -72t257.5 -189.5t102 -286.5q0 -72 -33.5 -128.5t-101.5 -56.5q-135 0 -143 176
q0 105 -8.5 152t-40.5 78q-61 67 -144 93t-205 46v-1135zM1139 2892q-222 -13 -379.5 -145.5t-157.5 -350.5q0 -206 141.5 -323.5t395.5 -229.5v1049zM1343 119q255 19 429 176.5t174 404.5q0 173 -83 291t-200 188t-320 164v-1224z" />
    <glyph glyph-name="percent" unicode="%" horiz-adv-x="3359" 
d="M94 2163q0 224 63 430.5t208 342.5t372 136q177 0 303 -81t201.5 -214.5t109 -292.5t33.5 -321q0 -226 -63 -433t-208 -342t-376 -135q-228 0 -372.5 135t-207.5 342t-63 433zM1135 2183q0 778 -394 778q-251 0 -324 -238t-73 -564q0 -296 81.5 -545.5t315.5 -249.5
q238 0 316 255t78 564zM1954 848q0 224 63 431t208 342.5t372 135.5q177 0 303 -81.5t201.5 -214.5t109 -292t33.5 -321t-33.5 -322t-109 -292.5t-202 -213.5t-302.5 -81q-228 0 -372.5 134.5t-207.5 341.5t-63 433zM2994 868q0 779 -393 779q-251 0 -324 -238.5t-73 -564.5
q0 -296 81.5 -545.5t315.5 -249.5q393 0 393 819zM926 127q-55 -89 -78 -114t-90 -25q-86 0 -86 37q0 15 10 35.5t23.5 43t23.5 39.5l1696 2757q54 84 69.5 99.5t77.5 15.5q90 0 90 -41q0 -27 -41 -90z" />
    <glyph glyph-name="ampersand" unicode="&#x26;" horiz-adv-x="3277" 
d="M1999 700q136 155 246 342.5t110 333.5q0 56 -34.5 85t-101 54.5t-98.5 48t-32 66.5q0 55 37.5 68.5t105.5 13.5h619q164 0 164 -86q0 -68 -103 -102q-133 -56 -184 -111q-63 -78 -176 -283l-402 -573q341 -332 701 -332q62 0 156.5 18.5t138.5 18.5q32 0 55 -20.5
t23 -53.5q0 -84 -164 -159q-165 -70 -365 -70q-226 0 -415.5 90.5t-378.5 261.5q-420 -372 -906 -372q-173 0 -334.5 53t-292.5 158t-204.5 250t-73.5 325q0 286 193.5 512.5t490.5 396.5q-148 197 -225.5 363t-77.5 358q0 218 115.5 379t305.5 243.5t406 82.5
q263 0 451 -135q109 -77 177.5 -198.5t68.5 -248.5q0 -189 -122 -345.5t-278.5 -262t-390.5 -236.5zM897 1475q-479 -271 -479 -684q0 -178 88 -316t237.5 -212.5t325.5 -74.5q203 0 353 65t331 210zM1720 2445q0 194 -134 314t-329 120q-119 0 -232.5 -48.5t-186 -141
t-72.5 -215.5q0 -270 311 -672q182 96 312 178.5t230.5 202t100.5 262.5z" />
    <glyph glyph-name="quotesingle" unicode="'" horiz-adv-x="655" 
d="M287 2077l-135 802q0 72 53.5 126.5t122.5 54.5t122.5 -53.5t53.5 -127.5l-135 -802h-82z" />
    <glyph glyph-name="parenleft" unicode="(" horiz-adv-x="983" 
d="M819 -647q-45 0 -78 16t-55.5 43t-48 75.5t-35.5 66.5q-450 833 -450 1675q0 616 241 1229q129 328 271 548q34 54 65 74.5t90 20.5q99 0 99 -49q0 -14 -66 -168q-381 -787 -381 -1659q0 -869 381 -1655q19 -41 42.5 -93.5t23.5 -74.5q0 -49 -99 -49z" />
    <glyph glyph-name="parenright" unicode=")" horiz-adv-x="983" 
d="M160 3101q84 0 121 -45.5t96 -155.5q450 -836 450 -1675q0 -621 -245 -1233q-141 -349 -267 -545q-30 -52 -62 -73t-93 -21q-99 0 -99 49q0 32 66 168q377 790 377 1655q0 435 -94.5 849t-282.5 810q-66 115 -66 168q0 49 99 49z" />
    <glyph glyph-name="asterisk" unicode="*" horiz-adv-x="1475" 
d="M303 2056q-56 0 -95.5 43.5t-39.5 100.5q0 135 270 159q250 27 250 82q0 47 -177.5 70.5t-260 47t-82.5 120.5q0 58 38.5 100.5t96.5 42.5q78 0 120.5 -44t141.5 -168t144 -124q16 0 16 29q0 65 -65.5 218t-65.5 192q0 61 40.5 104t102.5 43q66 0 105 -46t39 -114
q0 -58 -63.5 -203t-63.5 -198q0 -33 16 -33q43 0 143 132t141.5 178t116.5 46q57 0 98.5 -38.5t41.5 -96.5q0 -103 -88.5 -133.5t-258 -56.5t-169.5 -68q0 -43 169.5 -69t258 -57t88.5 -136q0 -58 -41.5 -96.5t-98.5 -38.5q-75 0 -116.5 46t-141.5 178t-143 132
q-16 0 -16 -33q0 -49 63.5 -196t63.5 -205q0 -68 -39.5 -114t-104.5 -46q-60 0 -99.5 42.5t-39.5 105.5q0 43 63.5 195t63.5 214q0 33 -16 33q-50 0 -160 -147q-89 -112 -130.5 -152.5t-115.5 -40.5z" />
    <glyph glyph-name="plus" unicode="+" horiz-adv-x="2703" 
d="M1225 1196v934h258v-934h934v-258h-934v-938h-258v938h-938v258h938z" />
    <glyph glyph-name="comma" unicode="," horiz-adv-x="1229" 
d="M438 8q-73 73 -73 176q0 60 31 108t81.5 74.5t112.5 26.5q143 0 212.5 -109.5t69.5 -263.5q0 -182 -85.5 -363.5t-225.5 -303.5q-53 -53 -74 -53q-18 0 -35.5 17.5t-17.5 39.5q0 17 81 104t137.5 178t56.5 201q0 74 -20 100.5t-83 26.5q-119 0 -168 41z" />
    <glyph glyph-name="hyphen" unicode="-" horiz-adv-x="1229" 
d="M266 1053q-101 0 -138.5 18t-37.5 84q0 88 32 109.5t144 21.5h697q101 0 138.5 -17t37.5 -81q0 -91 -31.5 -113t-144.5 -22h-697z" />
    <glyph glyph-name="period" unicode="." horiz-adv-x="1229" 
d="M393 193q0 90 64 151.5t153 61.5q95 0 158 -65t63 -161q0 -89 -67 -151t-154 -62q-94 0 -155.5 65.5t-61.5 160.5z" />
    <glyph glyph-name="slash" unicode="/" horiz-adv-x="2130" 
d="M1909 2978q38 63 73 93t103 30q110 0 110 -86q0 -30 -12 -62l-1855 -3256q-41 -74 -77.5 -108.5t-103.5 -34.5q-118 0 -118 94q0 25 16 57z" />
    <glyph glyph-name="zero" unicode="0" 
d="M213 1495q0 349 103 713.5t335 614t590 249.5q262 0 465.5 -152t337.5 -401q110 -203 167.5 -480.5t57.5 -543.5q0 -254 -54 -519.5t-176 -503.5t-322 -385.5t-476 -147.5q-274 0 -474 147.5t-321.5 384.5t-177 506t-55.5 518zM1786 684q94 318 94 811q0 523 -102 844
q-73 226 -205.5 387.5t-331.5 161.5q-366 0 -545 -574q-94 -327 -94 -819q0 -508 107 -840q72 -222 202.5 -377t329.5 -155q207 0 339.5 163t205.5 398z" />
    <glyph glyph-name="one" unicode="1" 
d="M1511 561q0 -152 18 -218t83 -96.5t207 -37.5q111 -6 180 -23t69 -80q0 -67 -36.5 -86.5t-118.5 -19.5h-1184q-168 0 -168 94q0 35 30 57t73 32t92 14.5t80 7.5q144 13 210 49.5t81.5 104.5t15.5 219v1708q0 163 -33 221q-65 78 -303 78l-217 -9q-135 0 -135 86
q0 35 21.5 55.5t54 29t72.5 12.5t65 6q341 24 610 221q5 3 41 32t61.5 41.5t53.5 12.5q77 0 77 -168v-2343z" />
    <glyph glyph-name="two" unicode="2" 
d="M393 0q-81 0 -124.5 17.5t-43.5 84.5q0 70 125.5 267.5t218.5 318.5l631 684q198 191 321.5 325t220.5 307t97 351q0 147 -74.5 266t-201.5 186.5t-273 67.5q-243 0 -442 -143q-80 -63 -140.5 -154t-60.5 -178q0 -54 11 -81t47 -83q8 -14 26.5 -41t26.5 -46.5t8 -43.5
q0 -78 -57.5 -118.5t-139.5 -40.5q-118 0 -188 95t-70 220q0 315 287 565q281 246 721 246q361 0 606 -176q303 -223 303 -582q0 -213 -105.5 -401.5t-252 -330.5t-375.5 -329q-314 -255 -523.5 -470.5t-344.5 -479.5h880q161 0 232 9t137 51t156 141q83 94 143 94
q31 0 50.5 -21t19.5 -53q0 -57 -54 -159q-48 -107 -65 -197q-18 -78 -42.5 -114t-67.5 -45t-140 -9h-1483z" />
    <glyph glyph-name="three" unicode="3" 
d="M967 1499q-152 9 -152 107q0 46 42.5 67t97.5 26t106 9q190 15 305.5 49t218.5 135q168 168 168 463q0 159 -80 277.5t-214.5 180.5t-291.5 62q-183 0 -316.5 -84.5t-133.5 -255.5q0 -32 10 -90t10 -82q0 -59 -50 -90.5t-114 -31.5q-98 0 -161.5 58.5t-63.5 154.5
q0 202 217 389q139 111 323 170t374 59q171 0 327.5 -49.5t281.5 -145.5t198 -239t73 -320q0 -256 -184 -429t-455 -251q149 -28 288 -95.5t248 -169t173.5 -235.5t64.5 -290q0 -200 -91.5 -380t-252.5 -304q-289 -225 -762 -225q-145 0 -311 35t-314.5 111t-240.5 197
t-92 283q0 92 50 150.5t143 58.5q88 0 120 -46.5t39 -141.5q16 -234 177 -348.5t405 -114.5q332 0 520 172q101 95 157 240.5t56 295.5q0 182 -75.5 328t-215 232t-323.5 96z" />
    <glyph glyph-name="four" unicode="4" 
d="M1810 475q0 -130 25 -196q17 -39 41 -53.5t78 -28.5q73 -17 104 -33t31 -74q0 -90 -135 -90h-647q-136 0 -136 86q0 69 95 86q120 22 148 66.5t28 195.5v365h-1102q-123 0 -174 21t-51 93q0 128 109 389t210 443q280 500 647 893l357 332q68 57 109 79.5t108 22.5
q102 0 128.5 -63.5t26.5 -182.5v-1794h381q92 0 130 -21t38 -102q0 -69 -36 -89.5t-111 -20.5h-402v-324zM1442 2687q-351 -345 -618 -766t-431 -893h1049v1659z" />
    <glyph glyph-name="five" unicode="5" 
d="M651 1700q295 176 631 176q285 0 512 -104t357 -309t130 -492q0 -215 -92 -418t-256 -344q-315 -270 -823 -270q-359 0 -618 155q-124 73 -207.5 192t-83.5 255q0 90 52 141t144 51q71 0 121.5 -36t50.5 -103q0 -19 -6 -56t-6 -55q0 -180 163.5 -266t360.5 -86
q250 0 431 98.5t276.5 283t95.5 433.5q0 208 -72 374.5t-217.5 262.5t-357.5 96q-187 0 -310.5 -58t-254 -149.5t-185.5 -91.5q-52 0 -69 37t-17 127l95 1528l643 -53l626 33q102 20 164 20q90 0 90 -74q0 -133 -331 -225q-294 -74 -734 -74h-237z" />
    <glyph glyph-name="six" unicode="6" 
d="M1434 1831q250 0 443 -110.5t298.5 -308t105.5 -445.5q0 -288 -130 -523.5t-362 -370t-523 -134.5q-539 0 -832 389q-233 308 -233 893q0 252 55 489t171.5 451.5t289.5 390.5q136 144 330 263.5t408.5 188t416.5 68.5q127 0 127 -86q0 -80 -205 -94
q-264 -34 -481 -159.5t-371.5 -317t-242.5 -431.5t-105 -505q180 165 395.5 258.5t444.5 93.5zM688 569q72 -192 230.5 -313t359.5 -121q200 0 353.5 130t211.5 325q13 46 31 164.5t18 163.5q0 187 -65 348t-198 258.5t-326 97.5q-384 0 -713 -381q0 -432 98 -672z" />
    <glyph glyph-name="seven" unicode="7" 
d="M885 2699q-209 0 -302 -41.5t-116 -216.5q-16 -123 -98 -123q-53 0 -67.5 44t-14.5 116l8 176q0 266 33 307q31 37 172 37h1564q85 0 114.5 -12t29.5 -53q0 -28 -74 -209l-909 -2454q-31 -97 -61 -188.5t-82.5 -146t-151.5 -54.5q-72 0 -138.5 33.5t-66.5 97.5
q0 51 29 107l1126 2580h-995z" />
    <glyph glyph-name="eight" unicode="8" 
d="M2290 819q0 -190 -94 -362.5t-254 -292.5q-305 -225 -758 -225q-244 0 -469.5 80.5t-371.5 249t-146 415.5q0 286 219.5 493t529.5 330q-602 279 -602 746q0 170 83 328.5t224 265.5q288 225 672 225q197 0 403 -75.5t344 -224.5t138 -355q0 -250 -179.5 -424
t-472.5 -326q207 -81 370.5 -196.5t263.5 -279t100 -372.5zM496 680q0 -121 65 -235.5t172 -190.5q170 -115 463 -115q177 0 356.5 66t296.5 197t117 311q0 152 -81.5 265t-205 188t-259.5 132t-310 127q-269 -115 -441.5 -301t-172.5 -444zM1909 2359q0 158 -88.5 276.5
t-231.5 181t-295 62.5q-157 0 -309 -65.5t-249 -188t-97 -282.5q0 -165 115 -281.5t245.5 -174.5t376.5 -146q533 289 533 618z" />
    <glyph glyph-name="nine" unicode="9" 
d="M1057 1184q-255 0 -448 109.5t-296.5 308.5t-103.5 450q0 290 133 523.5t369 365t530 131.5q242 0 448.5 -96t354.5 -281q237 -314 237 -897q0 -253 -54 -487.5t-167 -448.5t-282 -391q-220 -232 -538 -382t-626 -150q-147 0 -147 86q0 38 23.5 51t70.5 22
q308 39 541.5 151t396.5 293.5t259 426.5t126 547q-406 -332 -827 -332zM1888 1843q0 155 -24.5 343t-73.5 296q-75 167 -235 280t-338 113q-145 0 -268.5 -69.5t-211.5 -192.5q-139 -186 -139 -491q0 -303 149.5 -524.5t440.5 -221.5q389 0 700 373v94z" />
    <glyph glyph-name="colon" unicode=":" horiz-adv-x="1229" 
d="M393 193q0 90 64 151.5t153 61.5q95 0 158 -65t63 -161q0 -89 -67 -151t-154 -62q-94 0 -155.5 65.5t-61.5 160.5zM393 1393q0 91 63.5 152t153.5 61q95 0 158 -65t63 -161q0 -87 -67 -150t-154 -63q-94 0 -155.5 65.5t-61.5 160.5z" />
    <glyph glyph-name="semicolon" unicode=";" horiz-adv-x="1229" 
d="M385 1393q0 90 64.5 151.5t156.5 61.5q94 0 155.5 -64.5t61.5 -161.5q0 -88 -65.5 -150.5t-155.5 -62.5q-94 0 -155.5 65.5t-61.5 160.5zM438 8q-73 73 -73 176q0 60 31 108t81.5 74.5t112.5 26.5q143 0 212.5 -109.5t69.5 -263.5q0 -182 -85.5 -363.5t-225.5 -303.5
q-53 -53 -74 -53q-18 0 -35.5 17.5t-17.5 39.5q0 17 81 104t137.5 178t56.5 201q0 74 -20 100.5t-83 26.5q-119 0 -168 41z" />
    <glyph glyph-name="less" unicode="&#x3c;" horiz-adv-x="2703" 
d="M2499 -94l-2270 1036v238l2270 1044v-266l-1975 -901l1975 -889v-262z" />
    <glyph glyph-name="equal" unicode="=" horiz-adv-x="2703" 
d="M2417 1507v-258h-2130v258h2130zM2417 881v-258h-2130v258h2130z" />
    <glyph glyph-name="greater" unicode="&#x3e;" horiz-adv-x="2703" 
d="M2179 1057l-1974 901v266l2269 -1044v-238l-2269 -1036v262z" />
    <glyph glyph-name="question" unicode="?" horiz-adv-x="1884" 
d="M553 193q0 89 65 151t156 62q94 0 155.5 -64.5t61.5 -161.5q0 -90 -65.5 -151.5t-155.5 -61.5q-94 0 -155.5 65.5t-61.5 160.5zM647 1331q0 79 9 107t26.5 37t124.5 57q166 79 255 135t175 156q193 225 193 516q0 260 -142.5 427t-398.5 167q-171 0 -295 -82
q-64 -39 -87.5 -94t-23.5 -164q0 -127 -16 -156q-48 -65 -143 -65q-168 0 -168 176q0 214 192 364q242 189 598 189q236 0 419 -93t285.5 -268.5t102.5 -412.5q0 -185 -67 -365t-187 -315q-107 -117 -222 -182t-347 -171q-68 -38 -78 -65q-29 -73 -29 -291q0 -180 -94 -180
q-86 0 -86 135q0 19 2 46t2 36v356z" />
    <glyph glyph-name="at" unicode="@" horiz-adv-x="3359" 
d="M2118 1106q-78 -230 -78 -270q0 -53 42.5 -80t96.5 -27q150 0 297.5 103.5t259.5 252.5q108 140 146 303.5t38 385.5q0 269 -109 481t-283.5 349t-376.5 206t-386 69q-288 0 -536 -103t-428.5 -291.5t-279.5 -448t-99 -561.5q0 -380 171 -691t470 -488t661 -177
q393 0 705.5 180.5t482.5 527.5h144q-93 -207 -232 -374t-308.5 -280t-373 -173.5t-422.5 -60.5q-396 0 -736.5 207.5t-541 562.5t-200.5 770q0 431 203 795.5t553 575t763 210.5q259 0 501.5 -93.5t432.5 -267t298 -409t108 -512.5q0 -431 -279 -783q-91 -113 -208.5 -205
t-253 -146t-271.5 -54q-130 0 -194 75t-64 240q-270 -291 -561 -291q-218 0 -342.5 152.5t-124.5 384.5q0 281 126.5 577t353 490.5t503.5 194.5q292 0 414 -250l69 188h311zM1855 1249q88 178 159 383.5t71 345.5q0 124 -56.5 207.5t-168.5 83.5q-160 0 -301 -128
t-245.5 -328t-162 -412t-57.5 -361q0 -126 62 -206t179 -80q131 0 225.5 70t153.5 165t141 260z" />
    <glyph glyph-name="A" unicode="A" horiz-adv-x="2949" 
d="M340 770l881 2032q24 45 51 94t53.5 90t52 67.5t47.5 26.5q50 0 112.5 -90t117.5 -188q132 -225 257 -478t236.5 -513t208.5 -521.5t178 -519.5l160 -442q25 -60 52 -86.5t92 -61.5q69 -34 69 -90q0 -59 -44 -74.5t-120 -15.5h-508q-147 0 -147 94q0 52 52.5 78.5
t104.5 53t52 81.5q0 50 -84.5 296.5t-132.5 367.5l-29 78h-1331q-14 -51 -69 -205.5t-87.5 -264.5t-32.5 -173q0 -109 37.5 -147.5t109 -80t71.5 -88.5q0 -94 -152 -94q-20 0 -52 2t-42 2h-238q-8 0 -38 -2t-48 -2q-180 0 -180 98q0 54 66 99q55 37 80 67.5t47 87.5z
M1987 1262l-45 102l-566 1233l-590 -1335h1201z" />
    <glyph glyph-name="B" unicode="B" horiz-adv-x="2785" 
d="M266 0q-66 0 -104.5 18t-38.5 76q0 45 26 64.5t76 34.5q76 23 107 47.5t38 62.5t7 131v2278q0 40 -32.5 54.5t-102.5 35.5q-63 16 -91 35t-28 67q0 94 151 94h1332q372 0 561 -119q138 -84 218.5 -220t80.5 -292q0 -173 -97 -315.5t-245.5 -242t-321.5 -167.5
q224 -34 425.5 -142t326.5 -284.5t125 -404.5q0 -190 -98.5 -349t-266.5 -269q-286 -193 -766 -193h-1282zM745 1552q274 62 418.5 98t319.5 101t286 145q121 87 198 205.5t77 245.5q0 203 -116.5 300t-274.5 119.5t-391 22.5q-344 0 -443 -49q-74 -47 -74 -196v-95v-897z
M745 528q0 -132 15.5 -190t70.5 -88q91 -45 398 -45q447 0 692 123q153 73 244.5 200.5t91.5 290.5q0 293 -227.5 464.5t-546.5 227.5l-738 -188v-795z" />
    <glyph glyph-name="C" unicode="C" horiz-adv-x="2949" 
d="M2806 2249q0 -140 -103 -140q-29 0 -52 26t-40.5 63.5t-30.5 66.5q-77 157 -141.5 248.5t-177.5 173.5q-230 164 -528 164q-499 0 -844 -426q-324 -397 -324 -918q0 -233 66 -484t188 -425q303 -426 889 -426q258 0 461 98.5t403 298.5q13 13 42 45t55.5 49t58.5 17
q39 0 64.5 -28.5t25.5 -69.5q0 -88 -146.5 -224t-263.5 -206q-161 -102 -362 -157.5t-404 -55.5q-303 0 -576 107t-479 302t-323 461.5t-117 574.5q0 329 122 633t341.5 539.5t512 369.5t626.5 134q410 0 782 -193q195 -111 226 -155q42 -62 49 -168v-295z" />
    <glyph glyph-name="D" unicode="D" horiz-adv-x="3031" 
d="M1110 2998q271 0 465.5 -17.5t385.5 -83.5t370 -198q569 -424 569 -1208q0 -308 -109.5 -588t-320.5 -493q-157 -156 -335 -247t-373 -127t-435 -36h-1061q-69 0 -108 17.5t-39 76.5q0 45 26 64.5t76 34.5q99 29 121.5 70t22.5 171v2278q0 41 -31.5 55.5t-100.5 34.5
q-62 22 -86 39t-24 63q0 94 143 94h844zM733 721q0 -243 23 -339.5t114.5 -134.5t313.5 -38q296 0 537.5 86t411.5 251.5t259.5 403t89.5 537.5q0 284 -90.5 546.5t-273.5 440.5q-320 315 -983 315q-189 0 -271.5 -35t-106.5 -118t-24 -269v-1646z" />
    <glyph glyph-name="E" unicode="E" 
d="M729 705q0 -186 23.5 -288t101 -153t236.5 -51h614q146 0 260.5 56t235.5 169q57 54 87 78.5t64 24.5q30 0 48 -20t18 -50q0 -33 -6 -73.5t-20 -114t-15 -78.5q-21 -119 -32 -152.5t-42.5 -42t-130.5 -10.5h-1909q-66 0 -104.5 18t-38.5 76q0 45 25 64.5t73 34.5
q98 29 120.5 70t22.5 171v2163q0 90 -25.5 143t-105.5 66q-58 17 -84 35t-26 67q0 58 39 74t108 16h1815q123 -29 147 -196l33 -250q-6 -66 -70 -66q-43 0 -69 33q-89 113 -214.5 189.5t-252.5 76.5h-660q-145 0 -205.5 -68t-60.5 -251v-746h787q98 0 157 15t117 67
q53 53 90 53q86 0 86 -188q0 -26 -2 -63t-2 -43q0 -99 -18.5 -140t-79.5 -41q-38 0 -90 54q-56 50 -101 61.5t-137 11.5h-807v-802z" />
    <glyph glyph-name="F" unicode="F" horiz-adv-x="2294" 
d="M733 1642h848q95 0 140 13t110 65q56 49 94 49q94 0 94 -172q0 -30 -4 -76t-4 -55q-7 -87 -17 -127.5t-61 -40.5q-48 0 -98 50q-64 58 -107.5 70t-146.5 12h-852l4 -1139q0 -41 28 -56.5t99 -37.5q60 -16 89.5 -34.5t29.5 -68.5q0 -59 -40.5 -76.5t-111.5 -17.5h-557
q-147 0 -147 94q0 45 25 64.5t73 34.5q80 28 106.5 50t30 47.5t7.5 143.5v2278q0 41 -31.5 55.5t-100.5 34.5q-64 23 -89 40.5t-25 65.5q0 58 39 74t108 16h1815q144 -22 180 -188l49 -254q-14 -66 -61 -66q-33 0 -119 86q-199 209 -488 209h-671q-238 0 -238 -110v-1033z
" />
    <glyph glyph-name="G" unicode="G" horiz-adv-x="3113" 
d="M2552 1503q251 0 360 -28q66 -18 66 -86l-8 -91l-37 -462q0 -201 33 -353q8 -40 8 -69q0 -143 -402 -312q-415 -163 -798 -163q-206 0 -409.5 39t-389 124.5t-336.5 216.5q-241 212 -364 506.5t-123 624.5q0 447 215.5 816.5t588 581.5t818.5 212q214 0 456 -53.5
t412 -147.5q101 -57 140.5 -114t44.5 -111t7 -234q0 -117 -13.5 -163t-59.5 -46q-48 0 -95 90q-124 287 -303 406q-254 164 -598 164q-277 0 -502.5 -118.5t-379.5 -321t-234 -457.5t-80 -520q0 -531 320 -893q167 -188 403 -291t494 -103q161 0 336.5 42t281.5 126
q121 96 155 245t34 362q0 173 -26 246t-99.5 99t-251.5 36q-139 0 -225 24q-54 21 -54 90q0 54 54 74q53 12 282 12h279z" />
    <glyph glyph-name="H" unicode="H" horiz-adv-x="3277" 
d="M737 291q0 -28 20 -45.5t50.5 -28t60.5 -20.5q59 -20 85 -38t26 -65q0 -59 -39 -76.5t-109 -17.5h-565q-67 0 -107 18t-40 76q0 46 27 65t79 34q99 29 121.5 70t22.5 171v2273q0 44 -32.5 59.5t-98.5 35.5q-66 23 -92.5 40.5t-26.5 65.5q0 60 40.5 75t110.5 15h566
q143 0 143 -90q0 -46 -22.5 -64t-75.5 -38q-103 -34 -123.5 -73t-20.5 -169v-827h1774v975q0 59 -135 90q-63 22 -89 40t-26 66q0 90 143 90h582q143 0 143 -90q0 -73 -102 -102q-73 -22 -102.5 -45t-37.5 -64t-8 -133v-2236q0 -45 16.5 -67.5t61.5 -43.5l45 -20l37 -21
q54 -26 72 -38t18 -44q0 -59 -38 -76.5t-105 -17.5h-578q-69 0 -108 17.5t-39 76.5q0 45 26 64.5t76 34.5q102 29 125 70t23 171v1090h-1774v-1233z" />
    <glyph glyph-name="I" unicode="I" horiz-adv-x="1065" 
d="M352 2712q0 41 -32.5 55.5t-98.5 34.5q-64 23 -89.5 41t-25.5 65q0 60 39 75t109 15h565q144 0 144 -90q0 -46 -22 -64t-77 -38q-77 -24 -105 -47.5t-32 -54.5t-6 -140v-2273q0 -28 20 -45.5t50.5 -28t60.5 -20.5q57 -20 84 -38t27 -65q0 -59 -39 -76.5t-109 -17.5h-565
q-68 0 -108 18t-40 76q0 44 27.5 64t79.5 35q98 29 120.5 70t22.5 171v2278z" />
    <glyph glyph-name="J" unicode="J" horiz-adv-x="1966" 
d="M1253 2712q0 58 -139 90q-62 18 -90.5 37t-28.5 69q0 58 39 74t109 16h573q70 0 109 -15.5t39 -74.5q0 -47 -25.5 -66.5t-77.5 -35.5q-68 -23 -95 -44.5t-35.5 -63t-8.5 -134.5v-1622q0 -482 -156 -696q-110 -152 -298 -229.5t-390 -77.5q-198 0 -376.5 74t-288 219
t-109.5 346q0 122 53 239t152 190.5t225 73.5q72 0 126 -43.5t54 -115.5q0 -69 -39.5 -97.5t-119.5 -50.5q-8 -3 -49.5 -14.5t-64.5 -24.5t-42 -35q-61 -67 -61 -163q0 -175 153 -280t338 -105q273 0 414 192q110 144 110 508v1860z" />
    <glyph glyph-name="K" unicode="K" horiz-adv-x="2867" 
d="M741 291q0 -29 19 -46t50.5 -27.5l61.5 -20.5q57 -21 82 -38.5t25 -64.5q0 -59 -40 -76.5t-108 -17.5h-565q-69 0 -108 17.5t-39 76.5q0 46 27 65t79 34q102 29 125 70t23 171v2278q0 58 -131 90q-66 21 -92.5 39.5t-26.5 66.5q0 90 143 90h561q148 0 148 -90
q0 -45 -19.5 -60.5t-78.5 -41.5q-78 -34 -102.5 -54t-28 -49t-5.5 -139v-1192l697 660l372 385q31 34 77 85t77 101t31 92q0 51 -27.5 74t-82.5 42t-81 40.5t-26 68.5q0 53 34.5 65.5t96.5 12.5h602q155 0 155 -78q0 -68 -94 -106q-118 -56 -181 -113t-171 -186l-676 -721
l103 -106q634 -685 888 -1225q56 -118 96.5 -171t129.5 -87q61 -23 89.5 -44.5t28.5 -74.5q0 -86 -143 -86h-532q-193 0 -193 94q0 36 20 54t60 37.5t62 42t22 63.5q0 108 -168.5 364.5t-386.5 524t-334 376.5l-545 -495v-770z" />
    <glyph glyph-name="L" unicode="L" 
d="M745 475q0 -11 -2 -39t-2 -43q0 -91 45 -127q27 -19 72.5 -31t100.5 -16.5t107 -6.5t81 -3h221l451 24q156 24 230.5 53t186.5 115q4 3 38.5 31t62.5 44t51 16q70 0 70 -82q0 -30 -28 -164.5t-42 -163.5q-26 -53 -76 -67.5t-133 -14.5h-1892q-67 0 -105.5 18t-38.5 76
q0 45 22 62.5t73 36.5q97 37 118 74t21 167v2278q0 41 -39 59t-96 31q-63 16 -91 35.5t-28 70.5q0 60 38 75t109 15h557q70 0 109 -15.5t39 -74.5q0 -46 -21 -61.5t-77 -36.5q-86 -32 -109 -59.5t-23 -96.5v-86v-2093z" />
    <glyph glyph-name="M" unicode="M" horiz-adv-x="3523" 
d="M2183 1884l397 942q35 90 62 131t90 41h528q61 0 88 -18t27 -84q0 -63 -110 -90q-107 -27 -137.5 -64t-30.5 -149v-2302q0 -22 14.5 -38t35 -25t51.5 -17.5t50 -13.5q65 -17 94 -33.5t29 -69.5q0 -59 -39 -76.5t-108 -17.5h-553q-144 0 -144 94q0 45 21.5 62.5t72.5 36.5
q75 29 97 52t22 70q0 11 -2 50t-2 69v2146l-590 -1376l-307 -635q-88 -180 -151 -180q-43 0 -68 31.5t-55 91.5l-439 938l-401 991l-82 205v-2339q4 -26 18.5 -43.5t33 -27.5t45.5 -19.5t55 -19.5q64 -21 97.5 -41.5t33.5 -73.5q0 -82 -111 -82h-491q-74 0 -111 15.5
t-37 74.5q0 45 24 64.5t74 38.5q64 24 89.5 44.5t31.5 51.5t6 108v2261q0 104 -37 123.5t-133 44.5t-96 82q0 90 111 90h545q46 0 76.5 -34t52.5 -89t38 -94l771 -1839z" />
    <glyph glyph-name="N" unicode="N" horiz-adv-x="3031" 
d="M2425 2494q0 160 -8 209q-8 45 -34.5 63t-76.5 32q-77 24 -104 41t-27 69q0 90 111 90h503q119 0 119 -94q0 -58 -102 -94q-73 -30 -97 -43t-34 -47q-9 -41 -9 -201v-2363q0 -120 -16.5 -168.5t-77.5 -48.5q-56 0 -114 118q-62 125 -150 263.5t-211 315.5t-188 277
q-419 646 -668.5 1002t-568.5 694v-2208q0 -94 20 -133t103 -63q69 -15 100 -33.5t31 -77.5q0 -94 -107 -94h-557q-106 0 -106 94q0 75 98 99q114 23 145 58.5t31 117.5v118v2012q0 150 -30 226.5t-150 100.5q-75 20 -101 33.5t-26 60.5q0 78 119 78h471q74 0 342.5 -319
t496.5 -623l209 -278q241 -318 664 -1008v1724z" />
    <glyph glyph-name="O" unicode="O" horiz-adv-x="3277" 
d="M553 373q-401 423 -401 1110q0 322 102 608.5t296 505.5t465.5 341t602.5 122q307 0 586 -116t487 -335q142 -146 235.5 -327t136 -380.5t42.5 -414.5q0 -434 -192.5 -788.5t-540.5 -557t-783 -202.5q-196 0 -381.5 48.5t-351.5 145.5t-303 240zM2433 586
q254 353 254 880q0 263 -62 512t-196 435q-144 201 -357 315.5t-454 114.5q-252 0 -464 -129t-351 -351q-234 -359 -234 -876q0 -538 254 -905q141 -203 344.5 -316.5t442.5 -113.5q245 0 459 115t364 319z" />
    <glyph glyph-name="P" unicode="P" horiz-adv-x="2540" 
d="M733 287q0 -60 144 -90q60 -16 91 -34.5t31 -68.5q0 -59 -39.5 -76.5t-107.5 -17.5h-573q-70 0 -109 17.5t-39 76.5q0 45 22.5 62t75.5 37q93 34 114.5 72.5t21.5 168.5v2278q0 41 -31.5 55.5t-100.5 34.5q-60 17 -87 35.5t-27 66.5q0 94 143 94h1065q230 0 408 -28
t333 -111q195 -98 300.5 -264t105.5 -383q0 -189 -85.5 -354.5t-229 -293t-316.5 -212.5q-232 -115 -505 -158t-605 -47v-860zM733 1360q313 0 615 79t505 261t203 471q0 150 -72 277.5t-198 209.5q-118 75 -258.5 101t-319.5 26q-266 0 -368 -53q-71 -38 -89 -97t-18 -165
v-1110z" />
    <glyph glyph-name="Q" unicode="Q" horiz-adv-x="3277" 
d="M1585 -61q-188 0 -375.5 54.5t-356 158t-296.5 241.5q-200 219 -305 505t-105 593q0 313 108.5 598t308.5 505t470 343t588 123q319 0 593 -115.5t473 -324t308 -488t109 -600.5q0 -344 -128.5 -656t-372 -541.5t-572.5 -330.5q303 -283 647 -283q47 0 136.5 12.5
t141.5 12.5q60 0 91.5 -39.5t31.5 -99.5q0 -96 -96.5 -138t-206.5 -42q-273 0 -533 148t-446 376zM1577 586q0 159 94 159q54 0 68.5 -41t25.5 -122q36 -252 131 -414q265 87 443 293t263 478t85 556q0 322 -117 636.5t-353 517t-570 202.5q-349 0 -594 -202t-366.5 -521
t-121.5 -658q0 -247 71.5 -484t213.5 -431t354 -309t479 -115q-106 266 -106 455z" />
    <glyph glyph-name="R" unicode="R" horiz-adv-x="2785" 
d="M741 287q0 -28 18.5 -44.5t46 -25.5t62.5 -20q66 -29 86.5 -43.5t20.5 -63.5q0 -59 -39.5 -74.5t-112.5 -15.5h-549q-67 0 -107 17t-40 73q0 47 23.5 64.5t78.5 38.5q78 24 106 47.5t32 54t6 139.5v2273q0 44 -32.5 59t-102.5 36q-63 16 -91 35t-28 67q0 60 39 77t108 17
h1274q396 0 610 -143q147 -92 227.5 -235t80.5 -310q0 -193 -93 -347t-243.5 -265.5t-335.5 -194.5q191 -218 338.5 -477t304.5 -604q50 -110 88 -156t125 -86q59 -24 82.5 -39.5t23.5 -58.5q0 -53 -38 -67.5t-101 -14.5h-606q-164 0 -164 86q0 43 24.5 63t78 44t80 49.5
t26.5 76.5q0 103 -115.5 320t-272 441t-255.5 325l-664 -119v-999zM741 1499q373 61 505.5 87t332 104t330.5 219t131 352q0 524 -856 524q-295 0 -369 -53q-48 -33 -61 -97t-13 -157v-979z" />
    <glyph glyph-name="S" unicode="S" 
d="M1475 1733q411 -96 589 -234q139 -110 215 -271t76 -343q0 -199 -91 -381t-249 -311q-313 -254 -815 -254q-467 0 -758 208q-131 100 -241.5 245t-110.5 276q0 53 29 92t82 39q75 0 139 -111q151 -266 315 -373q252 -163 594 -163q197 0 380 72.5t297 216.5t114 350
q0 287 -219 397.5t-680 215.5t-698.5 265t-237.5 526q0 181 81 344t226 283q276 238 733 238q130 0 262.5 -22.5t260.5 -68t231 -110.5q72 -46 90 -102q12 -50 12 -238q0 -143 -65 -143q-33 0 -124.5 100.5t-168 170.5t-233 137t-367.5 67q-149 0 -284 -62.5t-218.5 -177.5
t-83.5 -264q0 -227 147 -346.5t398 -181.5z" />
    <glyph glyph-name="T" unicode="T" horiz-adv-x="2621" 
d="M1491 291q0 -39 31.5 -56t99.5 -38q59 -19 87 -37t28 -66q0 -59 -39 -76.5t-109 -17.5h-569q-148 0 -148 94q0 44 27.5 64t79.5 35q98 29 120.5 70t22.5 171v2101q0 153 -30.5 203.5t-149.5 50.5q-149 0 -340 -41q-116 -25 -184 -66t-185 -138q-19 -18 -40.5 -38
t-44.5 -34t-46 -14q-82 0 -82 94q0 23 5.5 51.5t7.5 42.5q5 47 15.5 133.5t35 152.5t68.5 66h2273q62 -9 78 -24q40 -44 77 -312q17 -60 17 -106q0 -86 -74 -86q-43 0 -135 82q-111 88 -167 123.5t-157 64.5q-159 49 -352 49q-107 0 -154 -28.5t-57 -81t-10 -168.5v-2220z
" />
    <glyph glyph-name="U" unicode="U" horiz-adv-x="3113" 
d="M709 1323q0 -187 8 -316t44 -264.5t111 -242.5q117 -172 312 -258t385 -86q154 0 303.5 40t275 123.5t203.5 208.5q109 177 136.5 387.5t27.5 522.5v1138q0 80 -52.5 142t-123.5 88q-61 23 -90 43.5t-29 62.5q0 78 119 86h545q106 -7 106 -94q0 -40 -24 -57.5t-78 -40.5
q-84 -33 -109.5 -73t-25.5 -140v-1192q0 -353 -46.5 -594.5t-212.5 -446.5q-170 -209 -445 -315t-570 -106q-230 0 -472 92t-401 276q-164 194 -215 432t-51 568v1359q0 66 -23 88t-92 52q-59 21 -82.5 38t-23.5 64q0 58 39 74t108 16h537q147 0 147 -90q0 -46 -24.5 -64
t-77.5 -34q-70 -21 -98.5 -45t-34.5 -63t-6 -134v-1245z" />
    <glyph glyph-name="V" unicode="V" horiz-adv-x="2867" 
d="M2748 2998q99 0 99 -82q0 -47 -74 -110q-66 -55 -94 -135l-131 -459q-145 -507 -410.5 -1144t-523.5 -998q-124 -176 -201 -176q-76 0 -156 114q-184 268 -338 578t-288 659q-253 660 -414 1356q-26 113 -59 147.5t-93.5 76t-60.5 91.5q0 82 131 82h586q127 0 127 -90
q0 -57 -86 -94q-96 -49 -126 -81.5t-30 -123.5q0 -180 113 -544.5t231 -663.5q231 -576 525 -1073q147 228 265 486.5t238 578.5q365 966 365 1237q0 88 -34.5 111.5t-133 72.5t-98.5 102q0 82 118 82h553z" />
    <glyph glyph-name="W" unicode="W" horiz-adv-x="3850" 
d="M3678 2998q135 0 135 -73q0 -24 -11.5 -43.5t-29.5 -34t-36 -29.5q-67 -50 -88 -102t-35 -160q-64 -314 -133.5 -655.5t-144 -641.5t-176.5 -603.5t-234 -585.5q-40 -87 -71 -131.5t-89 -44.5q-41 0 -87 54.5t-78.5 116.5t-59.5 119q-343 675 -656 1708
q-172 -639 -393 -1278q-123 -358 -270 -585q-46 -75 -71 -105t-77 -30q-30 0 -51 17.5t-36.5 44.5t-31.5 56q-145 282 -276.5 664.5t-231.5 779.5t-167 756l-70 377q-20 108 -36.5 143.5t-90.5 81.5q-78 53 -78 102q0 82 135 82h549q135 0 135 -82q0 -48 -83.5 -89
t-120.5 -72.5t-37 -133.5q0 -281 196 -1048q79 -301 159 -557t202 -615q297 750 397 1082q88 293 167 639t79 524q0 75 -27.5 110t-88.5 66.5t-79 46.5t-18 60q0 32 30 50.5t68 18.5h537q118 0 118 -78q0 -48 -75 -92t-110.5 -78t-35.5 -137q0 -301 283 -1163
q95 -307 196 -558.5t230 -473.5q280 726 442 1524q63 303 89 439.5t26 239.5q0 106 -39.5 135t-133 69t-93.5 95q0 78 98 78h479z" />
    <glyph glyph-name="X" unicode="X" horiz-adv-x="2867" 
d="M1298 1245q-189 -241 -405.5 -551.5t-216.5 -406.5q0 -55 46 -79.5t92 -49.5t46 -80q0 -51 -35 -64.5t-96 -13.5h-524q-80 0 -126 14t-46 64q0 56 34 74t121 45q83 31 137 94.5t121 175.5l279 397l451 606q-242 258 -446 545.5t-406 634.5q-69 119 -160 156
q-65 25 -94 47t-29 72q0 73 135 73h574q143 0 143 -65q0 -33 -13.5 -45.5t-52.5 -32.5q-59 -34 -80.5 -53.5t-21.5 -69.5q0 -140 219 -418t473 -557l381 471q48 60 92.5 117t90 123t77 129.5t31.5 105.5q0 57 -30.5 84.5t-89 49.5t-86.5 42t-28 62q0 57 107 57h594
q131 0 131 -69q0 -63 -86 -103q-96 -35 -147 -90q-40 -48 -205 -303l-652 -848q260 -273 448 -495t331 -459l131 -217q63 -97 108 -139t138 -74q114 -42 114 -115q0 -86 -131 -86h-631q-135 0 -135 78q0 41 24 60.5t74 40t74.5 38.5t24.5 53q0 101 -333 500t-486 533z" />
    <glyph glyph-name="Y" unicode="Y" horiz-adv-x="2867" 
d="M2699 2998q164 0 164 -73q0 -56 -70 -99q-69 -40 -93 -64t-62 -100q-141 -281 -459 -720q-179 -248 -561 -738v-913q0 -39 31.5 -56t99.5 -38q57 -15 86 -33.5t29 -69.5q0 -59 -38.5 -76.5t-105.5 -17.5h-561q-69 0 -108 17.5t-39 76.5q0 45 25 64.5t73 34.5
q96 33 117.5 72.5t21.5 168.5v778q-103 149 -325 456.5t-365.5 520.5t-267.5 441q-39 72 -72.5 108t-99.5 64q-58 27 -88.5 51t-30.5 67q0 78 127 78h606q135 0 135 -82q0 -43 -49 -69.5l-98 -53t-49 -69.5q0 -79 110.5 -256.5t208.5 -304.5q102 -132 270 -373t246 -348
q335 428 586 778q242 334 242 451q0 62 -30 93.5t-90 58t-83 44.5t-23 62q0 69 132 69h458z" />
    <glyph glyph-name="Z" unicode="Z" horiz-adv-x="2376" 
d="M1999 2998q97 0 144.5 -20t47.5 -99q0 -171 -332 -674.5t-622 -889.5l-463 -639q-43 -59 -94 -130.5t-93 -143.5t-42 -111q0 -49 33 -61.5t102 -12.5h500q304 0 502 43t354 199q11 11 46 47.5t67 58t59 21.5q57 0 57 -62q0 -189 -53 -438q-13 -54 -49.5 -70t-102.5 -16
h-1720q-106 0 -178 27t-72 116q0 90 33.5 157t122.5 212l270 393l946 1299q82 114 186.5 287t104.5 233q0 69 -160 69h-368q-251 0 -430 -36q-143 -29 -227.5 -71t-170.5 -142q-10 -14 -27 -35t-34 -34t-37 -13q-41 0 -53.5 33t-12.5 122q1 10 9 104t17.5 157.5t23.5 82.5
q32 37 155 37h1561z" />
    <glyph glyph-name="bracketleft" unicode="[" horiz-adv-x="983" 
d="M250 2925q0 93 8 125.5t42 41.5t130 9h254q98 0 143 -17.5t45 -77.5q0 -45 -31 -64.5t-91 -37.5q-149 -57 -185.5 -109t-36.5 -186v-98v-2527v-107q0 -78 13 -125t54.5 -81.5t133.5 -67.5q78 -29 110.5 -45.5t32.5 -65.5q0 -63 -52 -80.5t-136 -17.5h-254q-94 0 -128 9.5
t-43 41t-9 125.5v3355z" />
    <glyph glyph-name="backslash" unicode="\" 
d="M340 3101h291l1253 -3101h-282z" />
    <glyph glyph-name="bracketright" unicode="]" horiz-adv-x="983" 
d="M283 -606q-84 0 -136.5 17.5t-52.5 80.5q0 48 31.5 64.5t112.5 46.5q93 34 134 68t53.5 81t12.5 125v107v2527v98q0 134 -36.5 186.5t-184.5 108.5q-62 19 -92.5 38t-30.5 64q0 59 44.5 77t144.5 18h254q94 0 128 -9.5t43 -41.5t9 -125v-3355q0 -94 -9 -125.5t-43 -41
t-128 -9.5h-254z" />
    <glyph glyph-name="asciicircum" unicode="^" horiz-adv-x="2703" 
d="M385 1147l844 1851h237l852 -1851h-262l-713 1548l-700 -1548h-258z" />
    <glyph glyph-name="underscore" unicode="_" horiz-adv-x="2048" 
d="M2048 -319v-201h-2048v201h2048z" />
    <glyph glyph-name="grave" unicode="`" horiz-adv-x="1311" 
d="M524 2822q149 0 185 -20q29 -16 61 -99l205 -368q41 -85 41 -111q0 -28 -20.5 -44.5t-49.5 -16.5q-21 0 -43 14t-43 33.5t-37 34.5l-430 417q-7 7 -34.5 32.5t-43.5 46.5t-16 40q0 53 70 53z" />
    <glyph glyph-name="a" unicode="a" horiz-adv-x="2048" 
d="M1757 504q0 -201 29 -262q28 -43 106 -66q86 -23 86 -86q0 -58 -45 -74t-118 -16h-181q-68 0 -100 19.5t-41.5 63.5t-9.5 138v103q-244 -385 -684 -385q-185 0 -344 66.5t-256 198t-97 320.5q0 357 349 578q291 188 745 188l250 -12q-10 148 -90 259t-207 171.5
t-272 60.5q-114 0 -185 -22.5t-180 -87.5q-36 -23 -62.5 -39.5t-58 -27.5t-63.5 -11q-115 0 -115 102q0 90 164 177q225 106 500 106q372 0 618 -192q262 -207 262 -611v-659zM1266 1106q-192 0 -385 -55.5t-322 -181.5t-129 -324q0 -167 107 -262q126 -115 294 -115
q122 0 246 41.5t209 114.5q97 82 130.5 185t33.5 253v332z" />
    <glyph glyph-name="b" unicode="b" horiz-adv-x="2130" 
d="M254 2646q0 91 -36 120.5t-120 59.5q-65 19 -65 62q0 33 18.5 47t63.5 39q62 35 179.5 81t172.5 46q94 0 94 -172v-1287q269 324 656 324q199 0 353.5 -75t253.5 -207.5t147 -301.5t48 -366q0 -468 -254 -754q-137 -152 -336 -237.5t-405 -85.5q-420 0 -618 254
q-96 120 -124 285t-28 386v1782zM561 864q0 -168 19 -290t84 -218q71 -107 183.5 -166t237.5 -59q204 0 342 116t201.5 298.5t63.5 380.5q0 314 -131 544q-69 124 -176.5 205.5t-233.5 81.5q-111 0 -225.5 -49.5t-208 -131t-156.5 -179.5v-533z" />
    <glyph glyph-name="c" unicode="c" horiz-adv-x="1884" 
d="M1028 1765q-131 0 -245 -75t-185 -195q-74 -118 -113 -283t-39 -315q0 -186 76 -352.5t220.5 -267.5t334.5 -101q143 0 280.5 58.5t227.5 166.5q40 49 65 72t66 23q70 0 70 -74q0 -97 -160 -246q-264 -237 -602 -237q-276 0 -482 127.5t-314.5 349t-108.5 493.5
q0 214 73 407t206 339t316 228.5t400 82.5q254 0 451 -135q164 -106 164 -250q0 -59 -42 -109.5t-98 -50.5q-46 0 -74 15t-51.5 44.5t-50.5 63.5q-92 121 -169.5 171t-215.5 50z" />
    <glyph glyph-name="d" unicode="d" horiz-adv-x="2130" 
d="M1528 2703q0 55 -34 76t-114 47q-65 30 -65 66q0 33 18.5 47t63.5 39q243 123 348 123q60 0 75 -44t15 -120v-2613q0 -83 74 -119l49 -25q70 -38 70 -86q0 -60 -33 -77t-123 -17h-258q-38 0 -50 54t-12 200q-243 -315 -622 -315q-262 0 -461 133.5t-305.5 358
t-106.5 482.5q0 207 66 395.5t192 338t301.5 234.5t387.5 85q153 0 265 -41.5t259 -134.5v913zM1528 1593q-167 95 -264.5 133.5t-239.5 38.5q-201 0 -347.5 -116.5t-219 -300.5t-72.5 -381q0 -212 64 -393t204 -291.5t359 -110.5q113 0 236.5 47t201.5 125q55 52 66.5 94
t11.5 131v1024z" />
    <glyph glyph-name="e" unicode="e" horiz-adv-x="2048" 
d="M463 713q45 -246 236 -393.5t444 -147.5q154 0 271.5 48t209.5 127t140 124t83 45q32 0 55 -21.5t23 -52.5q0 -75 -82.5 -164t-175.5 -151q-278 -188 -590 -188q-266 0 -487.5 119.5t-350 332.5t-128.5 481q0 296 144.5 548t394.5 399t546 147q249 0 418 -106
q111 -70 182.5 -180.5t71.5 -233.5q0 -373 -492 -561q-174 -68 -338 -96t-493 -68zM446 889q275 27 499 72t409.5 165t185.5 328q0 154 -102.5 232.5t-261.5 78.5q-241 0 -408 -119.5t-248.5 -320t-81.5 -436.5h8z" />
    <glyph glyph-name="f" unicode="f" horiz-adv-x="1229" 
d="M709 508q0 -13 -2 -53t-2 -62q0 -107 24 -151q10 -15 25 -25t38.5 -20.5t34.5 -16.5q82 -29 82 -86q0 -58 -35 -76t-100 -18h-467q-60 0 -83 17t-23 77q0 55 69 82l62 29q69 37 69 217v86v1233h-98q-122 0 -169.5 19.5t-47.5 82.5q0 99 123 99q23 0 48.5 -2.5t37.5 -2.5
h106q0 5 3.5 167.5t8 250t18 183t36.5 178.5q59 195 186 328.5t310 133.5q98 0 173.5 -59t75.5 -153q0 -63 -43.5 -109.5t-103.5 -46.5q-21 0 -70 33q-81 61 -123 61q-163 0 -163 -418v-86v-463h241q104 0 140 -17.5t36 -84.5q0 -62 -44.5 -78t-123.5 -16h-249v-1233z" />
    <glyph glyph-name="g" unicode="g" horiz-adv-x="2130" 
d="M1589 1724q295 -293 295 -700q0 -219 -95.5 -412.5t-268.5 -328.5q191 -69 320.5 -201t129.5 -315q0 -234 -170.5 -368.5t-408.5 -184.5t-478 -50q-259 0 -520.5 70t-261.5 254q0 53 32.5 123t83.5 119t105 49t54 -62q0 -21 -4.5 -52t-4.5 -50q0 -130 191 -175.5
t383 -45.5q667 0 667 364q0 148 -93.5 231t-262.5 158q-161 -57 -315 -57q-403 0 -640 257t-237 661q0 280 119.5 498t336 339t494.5 121q318 -29 754 -29q105 0 161 -19t56 -91q0 -107 -180 -107q-25 0 -64 2t-51 2h-127zM1556 1049q0 185 -59.5 352t-187 270t-318.5 103
q-187 0 -317.5 -113t-193 -287.5t-62.5 -357.5q0 -175 57 -337t179 -265t300 -103q206 0 342 101t198 267t62 370z" />
    <glyph glyph-name="h" unicode="h" horiz-adv-x="2294" 
d="M1987 504q0 -201 28 -262q19 -34 99 -62q81 -29 81 -86q0 -44 -31.5 -69t-74.5 -25h-447q-90 0 -120.5 17.5t-30.5 76.5q0 46 65 82l41 21l50 36q32 58 32 271v807q0 189 -124.5 309.5t-342.5 120.5q-180 0 -313.5 -63.5t-275.5 -198.5v-975q0 -201 28 -262
q18 -32 103 -62q86 -31 86 -86q0 -94 -107 -94h-479q-90 0 -123 18t-33 76q0 53 74 82q81 24 111 57q32 58 32 271v2154q0 82 -33.5 110t-113.5 58q-66 18 -66 62q0 33 18.5 47t63.5 39q60 34 177 80.5t171 46.5q58 0 74.5 -39.5t16.5 -128.5v-1233q136 130 308 198t359 68
q151 0 290.5 -57t238.5 -164q102 -113 135 -247t33 -322v-672z" />
    <glyph glyph-name="i" unicode="i" horiz-adv-x="983" 
d="M233 2507q0 96 66.5 158.5t163.5 62.5q94 0 157.5 -60.5t63.5 -152.5q0 -107 -66 -170.5t-172 -63.5q-94 0 -153.5 66t-59.5 160zM283 0q-140 0 -140 90q0 65 78 86q88 25 116 80.5t28 185.5v865q-3 73 -5.5 128.5t-14 92.5t-47 64t-105.5 42q-91 18 -91 74q0 38 25 57
q53 53 254 131q6 3 50 26.5t68.5 33.5t45.5 10q66 0 81.5 -41.5t32.5 -146.5q17 -97 17 -226q0 -38 -2 -114t-2 -115v-819q0 -13 -2 -51t-2 -60q0 -107 24 -151q18 -32 103 -62q86 -31 86 -90q0 -55 -34.5 -72.5t-101.5 -17.5h-462z" />
    <glyph glyph-name="j" unicode="j" horiz-adv-x="901" 
d="M229 2507q0 96 66.5 158.5t163.5 62.5q94 0 157.5 -60.5t63.5 -152.5q0 -107 -66 -170.5t-172 -63.5q-96 0 -154.5 66t-58.5 160zM676 381q0 -530 -111 -782q-69 -167 -206 -303t-289 -136q-69 0 -129 43t-60 109q0 71 49.5 117.5t122.5 46.5q39 0 91.5 -16.5t72.5 -16.5
q99 0 125.5 95t26.5 290v1520q0 172 -41 229q-31 39 -131 57q-91 18 -91 78q0 32 25 57q22 18 59.5 37.5t93.5 46.5t101 48q27 12 59.5 28.5t60 26.5t48.5 10q87 0 102 -106q21 -181 21 -537v-942z" />
    <glyph glyph-name="k" unicode="k" horiz-adv-x="2048" 
d="M1241 1241l-53 -53q381 -358 688 -881q32 -57 51.5 -77.5t67.5 -45.5q73 -36 73 -94q0 -59 -21 -74.5t-81 -15.5h-467q-115 0 -115 82q0 31 18 51.5t52.5 40t50 33.5t15.5 43q0 116 -202 373t-343 381l-352 -287v-209q0 -201 28 -262q19 -34 99 -62q73 -41 73 -90
q0 -42 -30.5 -68t-75.5 -26h-471q-66 0 -103 18.5t-37 75.5t74 86q86 27 107 58q28 37 28 172v98v1999v90q0 95 -27 147t-116 82q-70 31 -70 66q0 32 19.5 46t66.5 40q234 123 344 123q59 0 75 -44t16 -120v-1983q729 564 729 746q0 47 -62 94q-57 43 -57 82q0 61 98 61h479
q54 0 80.5 -10.5t26.5 -54.5q0 -67 -94 -107q-64 -28 -111 -59t-86.5 -68t-89.5 -91t-90 -97z" />
    <glyph glyph-name="l" unicode="l" horiz-adv-x="901" 
d="M303 2662q0 120 -143 164q-66 21 -66 62q0 23 12.5 38t33 27t36.5 21q254 127 348 127q55 0 70.5 -38.5t15.5 -125.5v-2433q0 -156 17 -221q9 -39 18.5 -53t42.5 -29l45 -25q74 -36 74 -86q0 -58 -21.5 -74t-89.5 -16h-475q-59 0 -84.5 17t-25.5 73q0 49 69 86l74 37
q53 39 53 184q0 22 -2 59t-2 48v2158z" />
    <glyph glyph-name="m" unicode="m" horiz-adv-x="3441" 
d="M3154 295q0 -41 15 -55.5t59 -34.5l45 -25q73 -36 73 -86q0 -61 -22 -77.5t-88 -16.5h-443q-79 0 -111 17t-32 77q0 48 70 82q30 12 59 24t48.5 33.5t19.5 61.5v897q0 246 -54 352q-46 96 -137 146.5t-202 50.5q-123 0 -255 -52.5t-219.5 -154.5t-87.5 -240v-999
q0 -38 14 -57.5t37.5 -29.5t67.5 -28q74 -36 74 -86q0 -62 -22 -78t-93 -16h-446q-76 0 -105.5 17t-29.5 77q0 47 65 82q7 4 47 19t62 36.5t22 63.5v856q0 172 -29 299t-119 209t-261 82q-190 0 -367.5 -122t-177.5 -325v-999q0 -40 20 -61.5t48.5 -32t62.5 -21.5
q78 -30 78 -86q0 -58 -34 -76t-97 -18h-422q-84 0 -120 18.5t-36 75.5q0 49 66 78q13 6 38.5 16t45 22.5t31.5 34t12 50.5v1008q0 158 -25 234t-111 101q-12 4 -39 14t-41 22.5t-14 33.5q0 26 19 51t46 47.5t54 44.5q16 13 43.5 35t55.5 41t53 29t53 10q81 0 112.5 -106
t51.5 -254q123 171 293 265.5t370 94.5q199 0 343 -90.5t251 -269.5q115 165 295 262.5t377 97.5q308 0 491 -213q152 -175 152 -573v-885z" />
    <glyph glyph-name="n" unicode="n" horiz-adv-x="2294" 
d="M1995 295q0 -39 22 -61t49.5 -32.5t55.5 -21.5q73 -36 73 -86q0 -42 -30 -68t-72 -26h-451q-92 0 -123.5 17.5t-31.5 76.5q0 54 69 82q12 4 36.5 12t45 20t35.5 34t15 53v1061q0 385 -476 385q-256 0 -450 -172q-83 -78 -107 -163t-24 -226v-885q0 -29 12.5 -48.5
t35.5 -34t41.5 -20.5t37.5 -12q82 -29 82 -86q0 -42 -30.5 -68t-76.5 -26h-454q-94 0 -129 18t-35 76q0 54 73 82q21 6 42 12.5t42 18t36.5 33t15.5 55.5v1057q0 123 -22 188t-109 94q-95 33 -95 74q0 38 25 65t78 70q35 27 67.5 53t71 48t70.5 22q49 0 80.5 -37t49 -94
t27 -121t15.5 -104q148 186 318.5 271t410.5 85q157 0 298.5 -50.5t233.5 -154.5q152 -165 152 -594v-872z" />
    <glyph glyph-name="o" unicode="o" horiz-adv-x="2294" 
d="M2167 967q0 -287 -137 -523t-376.5 -370.5t-523.5 -134.5q-273 0 -504 136t-365 368.5t-134 506.5q0 270 140.5 505.5t377 373t506.5 137.5q271 0 506 -133.5t372.5 -364t137.5 -501.5zM1667 406q172 222 172 565q0 214 -81 396t-239 290t-376 108q-227 0 -382.5 -116
t-230.5 -305t-75 -410q0 -336 178 -565.5t502 -229.5q154 0 295.5 70.5t236.5 196.5z" />
    <glyph glyph-name="p" unicode="p" horiz-adv-x="2376" 
d="M696 -303q0 -201 29 -262q15 -28 98 -66q78 -30 78 -86q0 -54 -22.5 -70t-79.5 -16h-492q-65 0 -89.5 14t-24.5 72q0 51 65 86q80 0 105.5 78.5t25.5 208.5v1663q0 168 -30.5 249t-141.5 95q-13 3 -34 6t-40 10.5t-30 20t-11 33.5q0 72 139 152.5t218 80.5
q61 0 101.5 -33.5t64 -85.5t40.5 -121.5t27 -111.5q156 176 313.5 264t366.5 88q381 0 639 -291q234 -267 234 -692q0 -454 -234 -721q-131 -152 -325.5 -237.5t-395.5 -85.5q-123 0 -297 57.5t-174 155.5q0 34 21 64t53 30q35 0 86 -29q146 -70 336 -70q126 0 249.5 67
t196.5 171q156 225 156 565q0 327 -145.5 553t-456.5 226q-256 0 -434 -160q-105 -95 -145 -205.5t-40 -265.5v-1401z" />
    <glyph glyph-name="q" unicode="q" horiz-adv-x="2130" 
d="M1884 -303q0 -201 29 -262q15 -28 98 -66q78 -30 78 -86q0 -58 -17 -72t-73 -14h-500q-59 0 -84.5 16t-25.5 70q0 45 61 82q78 5 102.5 67.5t24.5 182.5v647q-116 -150 -287.5 -236.5t-359.5 -86.5q-264 0 -461 135t-302.5 359.5t-105.5 479.5q0 280 122.5 522.5
t346 386.5t506.5 144q314 0 545 -172q20 15 74 66.5t93 78.5t75 27q61 0 61 -160v-2109zM1577 1212q0 275 -143 414q-151 143 -377 143q-230 0 -380 -118t-219 -310.5t-69 -418.5q0 -196 71 -369t212 -277t340 -104q257 0 450 168q78 68 96.5 137t18.5 207v528z" />
    <glyph glyph-name="r" unicode="r" horiz-adv-x="1475" 
d="M680 336q0 -78 31 -103t92 -49q74 -36 74 -86q0 -60 -35.5 -79t-100.5 -19h-438q-65 0 -102 18t-37 80q0 51 69 82q20 6 42 13.5t45 23.5t38 44t15 75v983q0 112 -53.5 189.5t-122.5 109.5q-53 24 -74 38t-21 48q0 61 107 139q168 123 229 123q102 0 148 -157t73 -359
q74 178 234 347t315 169q118 0 176 -65.5t58 -184.5q0 -56 -22.5 -103.5t-71.5 -47.5q-32 0 -119 43t-131 43q-82 0 -161.5 -77.5t-137.5 -176.5q-119 -200 -119 -434v-627z" />
    <glyph glyph-name="s" unicode="s" horiz-adv-x="1638" 
d="M987 1135q269 -72 385 -172q79 -66 127.5 -165.5t48.5 -199.5q0 -196 -107.5 -347.5t-282 -231.5t-367.5 -80q-254 0 -476 135q-85 53 -153 132.5t-68 162.5q0 43 30.5 80.5t72.5 37.5q45 0 73 -26t82 -88q80 -89 106 -113t95 -55q154 -70 283 -70q163 0 294.5 91.5
t131.5 248.5q0 171 -124.5 233.5t-403.5 132t-422.5 180t-143.5 359.5q0 126 57 242t160 197q180 147 471 147q281 0 508 -131q55 -31 68.5 -69t13.5 -115q0 -102 -9.5 -143.5t-43.5 -41.5q-43 0 -137 94t-190.5 154t-254.5 60q-151 0 -268 -76t-117 -219q0 -124 90 -184
t246 -103z" />
    <glyph glyph-name="t" unicode="t" horiz-adv-x="1229" 
d="M664 516q0 -118 15 -182t69 -98.5t170 -34.5q12 0 50 2t60 2q152 0 152 -103q0 -49 -38 -75.5t-89 -26.5h-553q-91 0 -117.5 47t-26.5 150v1544h-139q-100 0 -144 22.5t-44 96.5q0 77 135 77q82 0 130 17.5t75 85.5q25 60 54 197.5t36 220.5q12 114 31.5 175.5t87.5 61.5
q86 0 86 -155v-603h315q111 0 151.5 -16t40.5 -78q0 -67 -46.5 -84.5t-129.5 -17.5h-331v-1225z" />
    <glyph glyph-name="u" unicode="u" horiz-adv-x="2130" 
d="M258 1376q0 193 -25 262q-15 50 -98 99q-74 36 -74 86q0 52 142.5 97.5t214.5 45.5q147 0 147 -225v-1041q0 -245 49 -348q98 -188 340 -188q137 0 281 58.5t235 158.5q91 95 91 246v110v684v95q0 82 -19.5 133t-84 88t-64.5 73q0 37 24 55.5t70 39.5t129.5 41t136.5 20
q73 0 94 -61.5t21 -196.5v-1208q0 -201 28 -262q26 -38 107 -62q86 -31 86 -86q0 -56 -24 -73t-83 -17h-286q-47 0 -81 81t-34 198q-141 -151 -324 -245.5t-372 -94.5q-144 0 -273 58.5t-211 166.5q-143 188 -143 557v655z" />
    <glyph glyph-name="v" unicode="v" horiz-adv-x="1884" 
d="M586 1937q37 0 61.5 -26t24.5 -64q0 -44 -62 -83t-92.5 -72t-30.5 -131q0 -138 90 -389t218 -498.5t225 -366.5q180 244 311 557q205 537 205 709q0 121 -90 184q-45 38 -55.5 51t-10.5 52q0 77 115 77h307q63 0 91 -14t28 -68q0 -25 -53 -102q-45 -56 -56.5 -84.5
t-42.5 -140.5l-69 -254q-127 -470 -410 -950q-52 -100 -154 -242.5t-173 -142.5q-73 0 -197 176q-130 185 -223.5 357.5t-163 352t-118.5 351.5t-109 430q-14 62 -36.5 95.5t-56 60.5t-44.5 41t-11 44q0 45 30.5 67.5t71.5 22.5h480z" />
    <glyph glyph-name="w" unicode="w" horiz-adv-x="2949" 
d="M1737 1937q82 0 82 -77q0 -39 -15 -54t-56 -40t-61 -55t-20 -89q0 -175 71.5 -420t180.5 -489.5t211 -409.5q98 129 204 374.5t176 498.5t70 409q0 89 -26 120.5t-79.5 70t-53.5 79.5q0 54 28 68t82 14h308q114 0 114 -69q0 -23 -20 -58q-49 -72 -64 -112t-51 -170
l-57 -217q-176 -635 -377 -1000q-89 -165 -213 -323q-43 -49 -98 -49q-127 0 -307.5 390.5t-290.5 710.5q-50 -136 -169.5 -402t-254.5 -482.5t-224 -216.5q-42 0 -95.5 61t-102.5 146t-87.5 163.5t-62.5 128.5q-119 263 -205.5 561t-134.5 603q-9 62 -29.5 99.5t-40.5 57
t-40.5 43.5t-20.5 53q0 54 26.5 68t80.5 14h397q62 0 82 -15t20 -79q0 -34 -15.5 -47.5t-57 -36t-62 -50.5t-20.5 -83q0 -216 155 -704q117 -383 275 -619q130 167 239.5 395.5t176.5 474.5t67 445q0 72 -19 94t-71.5 66t-52.5 86q0 73 131 73h377z" />
    <glyph glyph-name="x" unicode="x" horiz-adv-x="2048" 
d="M360 1499q-73 110 -122 168t-127 98q-44 27 -59 44.5t-15 62.5q0 43 22.5 54t75.5 11h479q51 0 73 -12t22 -57q0 -37 -49.5 -79.5t-49.5 -76.5q0 -38 47 -111t111 -149t149.5 -168.5t98.5 -107.5q119 125 248 291t129 245q0 27 -16 41.5t-49.5 35t-47.5 36.5t-14 47
q0 65 106 65h377q57 0 79.5 -12t22.5 -57q0 -51 -65 -86q-71 -38 -96.5 -59.5t-71.5 -88.5l-475 -594l463 -544q142 -188 204 -242q28 -28 136 -78q69 -34 69 -90q0 -86 -114 -86h-492q-53 0 -77.5 15t-24.5 63q0 24 13 42.5t39.5 43t38 39.5t11.5 39q0 58 -135 211
t-270 292l-70 74q-128 -133 -260.5 -302t-132.5 -247q0 -39 18.5 -60t55.5 -42t57 -40t20 -54q0 -74 -110 -74h-463q-51 0 -68.5 14.5t-17.5 71.5t73 86q87 43 108.5 61.5t84.5 106.5l508 618z" />
    <glyph glyph-name="y" unicode="y" horiz-adv-x="1966" 
d="M164 1552q-13 97 -28 144t-66 82q-16 12 -32 24.5t-27 28t-11 33.5q0 46 25.5 59.5t80.5 13.5h435q94 0 94 -65q0 -39 -51.5 -82.5t-80 -88t-28.5 -153.5q0 -81 26 -227t66 -304t68 -235q86 -218 205 -348q123 -143 237 -143q197 0 328 405q68 188 122 413.5t54 385.5
q0 157 -35.5 206t-98.5 83.5t-63 91.5q0 39 21.5 50t69.5 11h360q90 0 90 -57q0 -33 -12 -57q-66 -126 -78 -213l-57 -348q-34 -207 -104 -434t-163.5 -447t-195.5 -406q-177 -319 -437 -567t-550 -248q-92 0 -159 42t-67 126q0 58 42.5 103t101.5 45q37 0 110 -16.5
t111 -16.5q125 0 269 115t257.5 274.5t153.5 286.5q-121 -41 -189 -41q-162 0 -300.5 130t-227.5 304q-173 341 -242 844z" />
    <glyph glyph-name="z" unicode="z" horiz-adv-x="1720" 
d="M340 0q-111 0 -180.5 23.5t-69.5 111.5q0 74 99 223.5t247 331t199 244.5l487 594q90 112 90 160q0 45 -135 45h-336q-153 0 -231.5 -29t-157.5 -139q-12 -18 -28 -41.5t-34.5 -38.5t-39.5 -15q-49 0 -49 78q0 19 4 50t4 36q2 10 15 77.5t28 125.5t27 76q28 24 143 24
h983q128 0 185 -20t57 -86q0 -90 -78.5 -207.5t-200.5 -267.5l-504 -619l-266 -340q-61 -67 -61 -135q0 -57 122 -57h545q58 0 105 37t79.5 83.5t61.5 88.5q77 98 127 98q45 0 45 -53q0 -76 -21 -203.5t-45 -181.5q-21 -48 -66.5 -61t-121.5 -13h-1028z" />
    <glyph glyph-name="braceleft" unicode="{" horiz-adv-x="1229" 
d="M766 -37q0 -199 69.5 -309t254.5 -170q-162 0 -260 18.5t-191 91.5q-96 70 -126 180.5t-30 270.5v795q0 117 -13 181.5t-73 137.5q-89 106 -245 148q108 11 213 94q81 67 99.5 147t18.5 221v705q0 233 50 366.5t180.5 197t376.5 63.5q-179 -51 -251.5 -166t-72.5 -309
v-746q0 -169 -27 -280t-107 -186t-231 -107q147 -37 225.5 -106.5t109 -173.5t30.5 -261v-803z" />
    <glyph glyph-name="bar" unicode="|" horiz-adv-x="2703" 
d="M1237 3101h258v-3101h-258v3101z" />
    <glyph glyph-name="braceright" unicode="}" horiz-adv-x="1229" 
d="M479 2626q0 197 -73 311t-250 164q245 0 374.5 -63.5t180.5 -198.5t51 -365v-705q0 -141 19.5 -221.5t99.5 -146.5q103 -83 213 -94q-157 -41 -246 -148q-58 -71 -72 -136.5t-14 -182.5v-795q0 -160 -29.5 -270.5t-126.5 -180.5q-94 -73 -191.5 -91.5t-258.5 -18.5
q185 60 254 169t69 310v803q0 233 76 360.5t289 180.5q-151 32 -231 107t-107 186t-27 280v746z" />
    <glyph glyph-name="asciitilde" unicode="~" horiz-adv-x="2703" 
d="M2494 1241q-99 -139 -178 -226.5t-186 -145.5t-246 -58q-99 0 -181.5 23t-232.5 79l-225 82q-153 60 -227.5 85.5t-161.5 25.5q-150 0 -248.5 -85.5t-206.5 -250.5l-192 127q144 222 289 338.5t362 116.5q111 0 239.5 -39t310.5 -111.5t283 -106.5t183 -34
q139 0 231.5 78.5t190.5 224.5z" />
    <glyph glyph-name="section" unicode="&#xa4;" 
d="M2077 2560q54 54 74 70t57 16q43 0 83 -42t40 -85t-50 -86l-233 -238q97 -134 150 -234t78.5 -213t25.5 -269q0 -364 -217 -631l201 -201q81 -74 81 -123q0 -46 -45.5 -92.5t-89.5 -46.5q-50 0 -127 86l-200 197q-141 -107 -320.5 -172.5t-351.5 -65.5q-355 0 -664 229
l-217 -217q-19 -18 -40 -38t-42.5 -32t-44.5 -12q-41 0 -82 41t-41 82q0 39 15.5 57.5t66.5 69.5l217 217q-249 298 -249 717q0 373 217 619l-201 200q-18 18 -38 39t-32 41t-12 47q0 46 40.5 84.5t86.5 38.5q39 0 90.5 -48.5t128 -133t100.5 -100.5q134 129 308 191.5
t368 62.5q369 0 672 -226zM1208 2277q-206 0 -381 -106.5t-275.5 -285.5t-100.5 -386q0 -210 106 -386.5t285 -278t387 -101.5q207 0 384 105t279.5 282.5t102.5 386.5q0 214 -106.5 390.5t-288.5 278t-392 101.5z" />
    <glyph glyph-name="bullet" unicode="&#xa5;" 
d="M1761 2241q181 340 181 425q0 63 -24.5 91.5t-70.5 50t-68 43.5t-22 69q0 78 111 78h434q74 0 74 -90q0 -40 -66 -127q-91 -115 -151 -246l-566 -987h332q55 0 74.5 -13t19.5 -73q0 -71 -32 -90.5t-115 -19.5h-406l-69 -119v-156h491q74 0 100.5 -15.5t26.5 -74.5
q0 -71 -31 -88.5t-104 -17.5h-483v-525q0 -61 48.5 -107t98.5 -69q78 -35 78 -106q0 -74 -94 -74h-565q-32 0 -55 27t-23 67q0 45 19 59t63 27q88 27 109 112.5t26 248.5v340h-500q-69 0 -98 17.5t-29 88.5q0 61 25.5 75.5t81.5 14.5h73h447v119l-103 156h-376
q-97 0 -130.5 20.5t-33.5 93.5q0 82 90 82h323l-577 1020q-87 185 -148 213q-69 35 -91.5 54t-22.5 77q0 86 90 86h459q118 0 118 -98q0 -34 -20 -54.5t-58 -42t-57.5 -43t-19.5 -61.5q0 -89 291 -590l417 -688q199 244 344 512z" />
    <glyph glyph-name="germandbls" unicode="&#xa7;" horiz-adv-x="2130" 
d="M745 553q-331 94 -458 221q-197 197 -197 451q0 301 352 606q-108 127 -156 229.5t-48 249.5q0 221 126.5 393t329 264.5t420.5 92.5q302 0 627 -168q68 -39 94 -67t32 -54.5t25 -140.5l33 -193q8 -48 8 -78q0 -98 -86 -98q-48 0 -82 74q-232 524 -647 524
q-135 0 -272.5 -53t-227.5 -157.5t-90 -244.5q0 -189 154.5 -298t390.5 -181l266 -78q216 -65 362.5 -136t246.5 -198.5t100 -320.5q0 -182 -74.5 -325.5t-228.5 -342.5q102 -124 151.5 -230.5t49.5 -248.5q0 -175 -78.5 -339.5t-216.5 -287.5q-270 -237 -660 -237
q-286 0 -553 143q-74 36 -100.5 60t-46.5 88q-37 109 -80 280t-43 236q0 94 90 94q47 0 88.5 -92t119 -248.5t201.5 -250t328 -93.5q156 0 305 67t241.5 189.5t92.5 284.5q0 201 -160.5 325.5t-388.5 190.5zM1204 786q258 -69 389 -151q8 16 60.5 109t74 155t21.5 137
q0 180 -127 299q-86 86 -307 152l-430 119q-182 49 -295 118q-93 -107 -136.5 -192t-43.5 -205q0 -193 136.5 -294.5t362.5 -164.5z" />
    <glyph glyph-name="copyright" unicode="&#xa9;" horiz-adv-x="3441" 
d="M1716 3060q408 0 754 -210t547.5 -569.5t201.5 -781.5q0 -420 -201.5 -780.5t-547.5 -570t-754 -209.5q-405 0 -750.5 210t-547 570t-201.5 780q0 422 201.5 781.5t547 569.5t750.5 210zM1716 2879q-354 0 -658 -186t-482.5 -503.5t-178.5 -690.5t178.5 -690.5
t482.5 -503.5t658 -186q355 0 661 186t484 503.5t178 690.5t-178 690.5t-484 503.5t-661 186zM2367 1094q45 0 76 -34.5t31 -80.5q0 -98 -102 -209q-224 -270 -611 -270q-201 0 -365.5 81t-279 225t-173 327t-58.5 387q0 190 59.5 369t174 326t273.5 231.5t345 84.5
q150 0 317 -49.5t273 -138.5q42 -33 50.5 -91t14.5 -175q0 -118 -18 -161.5t-80 -43.5q-51 0 -88 67t-85 158t-138.5 150t-249.5 59q-275 0 -395.5 -242.5t-120.5 -556.5q0 -197 61 -371t191 -284.5t321 -110.5q156 0 255.5 57t186.5 189q38 58 63 82.5t72 24.5z" />
    <glyph glyph-name="acute" unicode="&#xab;" horiz-adv-x="1393" 
d="M434 1229q-12 -31 -12 -74q0 -36 12 -74l168 -389q1 -2 23 -55t22 -72q0 -27 -17 -48t-44 -21t-52 21.5t-50 56t-38 53.5l-270 397q-74 116 -74 143q0 19 66 123l278 430q17 25 38 55t44.5 49t53.5 19q24 0 44.5 -18t20.5 -43q0 -16 -45 -140zM1040 1229q-12 -31 -12 -74
q0 -36 12 -74l168 -389q45 -114 45 -127q0 -27 -17 -48t-44 -21q-50 0 -139 131l-271 397q-73 114 -73 143q0 16 65 123l279 430q10 15 25.5 38.5t31.5 42.5t36 30.5t42 11.5q25 0 45 -18t20 -43q0 -26 -45 -140z" />
    <glyph glyph-name="dieresis" unicode="&#xac;" horiz-adv-x="2703" 
d="M2163 1249h-1876v258h2130v-1294h-254v1036z" />
    <glyph glyph-name="AE" unicode="&#xae;" horiz-adv-x="3277" 
d="M1663 3060q405 0 750.5 -210t547 -569.5t201.5 -781.5q0 -420 -201.5 -780t-547 -570t-750.5 -210t-750.5 210t-547 570t-201.5 780q0 422 201.5 781.5t547 569.5t750.5 210zM1663 119q356 0 660 186t481.5 504t177.5 690t-177.5 690t-481.5 504t-660 186t-660 -186
t-481.5 -504t-177.5 -690t177.5 -690t481.5 -504t660 -186zM1315 897q0 -81 10.5 -105.5t50.5 -33.5q53 -15 80 -36t27 -75q0 -64 -44 -81t-120 -17h-275q-80 0 -123.5 18.5t-43.5 87.5q0 73 86 95q57 15 57 192v1241q0 75 -45 86q-55 23 -76.5 41t-21.5 62q0 68 39 87
t128 19h738q276 0 409 -106q82 -60 133.5 -157t51.5 -200q0 -167 -106.5 -297.5t-270.5 -214.5q128 -164 202 -286.5t134 -294.5q18 -50 29.5 -80.5t29 -53t55.5 -43.5q46 -28 62 -43t16 -55q0 -64 -42.5 -81t-117.5 -17h-270q-78 0 -121 17.5t-43 80.5q0 37 17 56t52 33.5
t46.5 22t11.5 32.5q0 82 -58.5 205t-139.5 238.5t-146 182.5l-401 -86v-434zM1315 1561q762 118 762 442q0 126 -79 186.5t-180.5 74t-240.5 13.5q-92 9 -107 9q-88 0 -121.5 -32.5t-33.5 -111.5v-581z" />
    <glyph glyph-name="infinity" unicode="&#xb0;" horiz-adv-x="1638" 
d="M819 1843q-168 0 -308.5 82.5t-223 223.5t-82.5 309q0 164 82.5 306t224 225t307.5 83q164 0 306 -83t225.5 -225.5t83.5 -305.5q0 -166 -83.5 -308t-225 -224.5t-306.5 -82.5zM819 2036q115 0 211 55.5t153.5 152.5t57.5 214q0 113 -57.5 209.5t-155.5 154t-213 57.5
q-113 0 -209 -57.5t-152.5 -154.5t-56.5 -209q0 -178 123 -300t299 -122z" />
    <glyph glyph-name="plusminus" unicode="&#xb1;" horiz-adv-x="2703" 
d="M1225 1454v676h258v-676h934v-258h-934v-680h-258v680h-938v258h938zM2417 258v-258h-2130v258h2130z" />
    <glyph glyph-name="yen" unicode="&#xb4;" horiz-adv-x="1311" 
d="M496 2245q-16 -15 -37 -34.5t-43 -33.5t-43 -14q-70 0 -70 61q0 26 41 111l205 368q32 83 61 99q36 20 185 20l155 12q70 0 70 -53q0 -19 -16 -40t-43.5 -46.5t-34.5 -32.5z" />
    <glyph glyph-name="mu" unicode="&#xb5;" horiz-adv-x="2130" 
d="M1597 1421v95q0 162 -102 221q-65 36 -65 73q0 70 136 113t224 43q74 0 94.5 -61.5t20.5 -196.5v-1208q0 -129 6.5 -183.5t33.5 -86t95 -54.5q86 -31 86 -86q0 -56 -24 -73t-83 -17h-286q-47 0 -81 81t-34 198q-141 -151 -324 -245.5t-372 -94.5q-175 0 -320 86v-652
q0 -101 -36.5 -138.5t-119.5 -37.5q-81 0 -116 37t-35 139v2003q0 175 -19 241.5t-104 119.5q-74 36 -74 86q0 52 142.5 97.5t214.5 45.5q147 0 147 -225v-1041q0 -245 49 -348q98 -188 340 -188q136 0 280.5 58.5t235.5 158.5q90 94 90 246v110v684z" />
    <glyph glyph-name="partialdiff" unicode="&#xb6;" horiz-adv-x="2949" 
d="M2380 -459q0 -159 -26 -227t-122 -68q-100 0 -125.5 58t-25.5 176v3281h-271v-3228v-86q0 -93 -28 -147t-115 -54q-102 0 -125.5 64.5t-30.5 202.5v1523q-256 25 -501.5 97.5t-458 205t-341 334t-128.5 465.5q0 453 344 684q169 111 357 143.5t454 32.5h1429
q66 0 111 -45t45 -110q0 -75 -56.5 -113.5t-135.5 -38.5q-41 0 -80.5 5.5t-91 14.5t-78.5 13v-3183zM1389 2781q-918 0 -918 -647q0 -243 117.5 -414t341.5 -295q313 -167 581 -184v1540h-122z" />
    <glyph glyph-name="summation" unicode="&#xb7;" horiz-adv-x="1884" 
d="M238 1397q0 189 96.5 350t262 253.5t357.5 92.5q183 0 343.5 -93t255 -253t94.5 -350q0 -192 -96 -352.5t-260.5 -254.5t-360.5 -94q-183 0 -342 94t-254.5 256t-95.5 351z" />
    <glyph glyph-name="pi" unicode="&#xb9;" horiz-adv-x="1638" 
d="M156 2413q0 166 92 305.5t243.5 220t315.5 80.5q171 0 318.5 -79.5t236 -219.5t88.5 -312q0 -177 -91 -317t-243 -218.5t-325 -78.5q-171 0 -316.5 80.5t-232 223.5t-86.5 315zM1212 2413q0 197 -110 327.5t-303 130.5q-197 0 -303.5 -136t-106.5 -339q0 -129 46.5 -231
t138 -162.5t221.5 -60.5q194 0 305.5 136.5t111.5 334.5zM1274 1483q97 0 136.5 -14t39.5 -64q0 -70 -168 -70h-938q-104 0 -148 13.5t-44 56.5q0 50 45.5 64t146.5 14h930z" />
    <glyph glyph-name="ordfeminine" unicode="&#xbb;" horiz-adv-x="1393" 
d="M938 1110q12 37 12 74q0 43 -12 73l-168 390q-45 120 -45 127q0 26 17.5 47.5t43.5 21.5q38 0 70.5 -38t69.5 -93l270 -397q74 -116 74 -144q0 -21 -66 -122l-278 -431q-17 -24 -37.5 -54t-44 -49t-53.5 -19q-25 0 -45.5 18t-20.5 43q0 19 45 139zM332 1110q12 37 12 74
q0 43 -12 73l-168 390q-45 120 -45 127q0 26 16.5 47.5t44.5 21.5q50 0 139 -131l271 -397q74 -116 74 -144q0 -16 -66 -122l-279 -431q-22 -33 -39.5 -58.5t-41 -44.5t-54.5 -19q-24 0 -44.5 18t-20.5 43q0 19 45 139z" />
    <glyph glyph-name="questiondown" unicode="&#xc0;" horiz-adv-x="2949" 
d="M1221 2802q24 45 51 94t53.5 90t52 67.5t47.5 26.5q50 0 112.5 -90t117.5 -188q132 -225 257 -478t236.5 -513t208.5 -521.5t178 -519.5l160 -442q25 -60 52 -86.5t92 -61.5q69 -34 69 -90q0 -59 -44 -74.5t-120 -15.5h-508q-147 0 -147 94q0 52 52.5 78.5t104.5 53
t52 81.5q0 40 -105.5 362.5t-140.5 379.5h-1331q-15 -44 -71 -203t-87 -267t-31 -173q0 -109 37.5 -147.5t109 -80t71.5 -88.5q0 -94 -152 -94q-20 0 -52 2t-42 2h-238q-8 0 -38 -2t-48 -2q-180 0 -180 98q0 54 66 99q62 42 86.5 70t40.5 85l147 422q115 327 261.5 695
t306 713t313.5 624zM1987 1262q-279 749 -611 1335q-343 -618 -590 -1335h1201z" />
    <glyph glyph-name="questiondown" unicode="&#x410;" horiz-adv-x="2949" 
d="M1221 2802q24 45 51 94t53.5 90t52 67.5t47.5 26.5q50 0 112.5 -90t117.5 -188q132 -225 257 -478t236.5 -513t208.5 -521.5t178 -519.5l160 -442q25 -60 52 -86.5t92 -61.5q69 -34 69 -90q0 -59 -44 -74.5t-120 -15.5h-508q-147 0 -147 94q0 52 52.5 78.5t104.5 53
t52 81.5q0 40 -105.5 362.5t-140.5 379.5h-1331q-15 -44 -71 -203t-87 -267t-31 -173q0 -109 37.5 -147.5t109 -80t71.5 -88.5q0 -94 -152 -94q-20 0 -52 2t-42 2h-238q-8 0 -38 -2t-48 -2q-180 0 -180 98q0 54 66 99q62 42 86.5 70t40.5 85l147 422q115 327 261.5 695
t306 713t313.5 624zM1987 1262q-279 749 -611 1335q-343 -618 -590 -1335h1201z" />
    <glyph glyph-name="exclamdown" unicode="&#xc1;" horiz-adv-x="2785" 
d="M2204 2998q47 0 110.5 -69.5t69.5 -118.5l49 -254q0 -66 -61 -66q-33 0 -119 86q-180 187 -488 209h-888q-67 0 -105.5 -40t-38.5 -95v-799q263 0 493.5 -16.5t442 -62t371.5 -125.5q173 -85 316.5 -212.5t229 -293.5t85.5 -355q0 -145 -47 -267t-139 -219t-220 -161
q-158 -83 -334.5 -111t-406.5 -28h-1262q-66 0 -104.5 18t-38.5 76q0 50 28 68t86 35q74 22 103 36t29 54v2277q0 130 -22 169.5t-114 72.5q-55 21 -76.5 38t-21.5 60q0 60 39 77t109 17h1925zM733 528q0 -111 18.5 -177t88.5 -105q73 -37 348 -37q51 0 127 2t90 2
q179 0 317.5 25.5t259.5 101.5q125 81 198 210.5t73 276.5q0 299 -219.5 480.5t-561.5 256t-739 74.5v-1110z" />
    <glyph glyph-name="exclamdown" unicode="&#x411;" horiz-adv-x="2785" 
d="M2204 2998q47 0 110.5 -69.5t69.5 -118.5l49 -254q0 -66 -61 -66q-33 0 -119 86q-180 187 -488 209h-888q-67 0 -105.5 -40t-38.5 -95v-799q263 0 493.5 -16.5t442 -62t371.5 -125.5q173 -85 316.5 -212.5t229 -293.5t85.5 -355q0 -145 -47 -267t-139 -219t-220 -161
q-158 -83 -334.5 -111t-406.5 -28h-1262q-66 0 -104.5 18t-38.5 76q0 50 28 68t86 35q74 22 103 36t29 54v2277q0 130 -22 169.5t-114 72.5q-55 21 -76.5 38t-21.5 60q0 60 39 77t109 17h1925zM733 528q0 -111 18.5 -177t88.5 -105q73 -37 348 -37q51 0 127 2t90 2
q179 0 317.5 25.5t259.5 101.5q125 81 198 210.5t73 276.5q0 299 -219.5 480.5t-561.5 256t-739 74.5v-1110z" />
    <glyph glyph-name="logicalnot" unicode="&#xc2;" horiz-adv-x="2785" 
d="M266 0q-66 0 -104.5 18t-38.5 76q0 45 26 64.5t76 34.5q76 23 107 47.5t38 62.5t7 131v2278q0 40 -32.5 54.5t-102.5 35.5q-63 16 -91 35t-28 67q0 94 151 94h1332q372 0 561 -119q138 -84 218.5 -220t80.5 -292q0 -173 -97 -315.5t-245.5 -242t-321.5 -167.5
q224 -34 425.5 -142t326.5 -284.5t125 -404.5q0 -190 -98.5 -349t-266.5 -269q-286 -193 -766 -193h-1282zM745 1552q274 62 418.5 98t319.5 101t286 145q121 87 198 205.5t77 245.5q0 203 -116.5 300t-274.5 119.5t-391 22.5q-344 0 -443 -49q-74 -47 -74 -196v-95v-897z
M745 528q0 -132 15.5 -190t70.5 -88q91 -45 398 -45q447 0 692 123q153 73 244.5 200.5t91.5 290.5q0 293 -227.5 464.5t-546.5 227.5l-738 -188v-795z" />
    <glyph glyph-name="logicalnot" unicode="&#x412;" horiz-adv-x="2785" 
d="M266 0q-66 0 -104.5 18t-38.5 76q0 45 26 64.5t76 34.5q76 23 107 47.5t38 62.5t7 131v2278q0 40 -32.5 54.5t-102.5 35.5q-63 16 -91 35t-28 67q0 94 151 94h1332q372 0 561 -119q138 -84 218.5 -220t80.5 -292q0 -173 -97 -315.5t-245.5 -242t-321.5 -167.5
q224 -34 425.5 -142t326.5 -284.5t125 -404.5q0 -190 -98.5 -349t-266.5 -269q-286 -193 -766 -193h-1282zM745 1552q274 62 418.5 98t319.5 101t286 145q121 87 198 205.5t77 245.5q0 203 -116.5 300t-274.5 119.5t-391 22.5q-344 0 -443 -49q-74 -47 -74 -196v-95v-897z
M745 528q0 -132 15.5 -190t70.5 -88q91 -45 398 -45q447 0 692 123q153 73 244.5 200.5t91.5 290.5q0 293 -227.5 464.5t-546.5 227.5l-738 -188v-795z" />
    <glyph glyph-name="radical" unicode="&#xc3;" horiz-adv-x="2294" 
d="M733 291q0 -33 19 -51t53 -27.5t55 -15.5q60 -16 89.5 -34.5t29.5 -68.5q0 -59 -40.5 -76.5t-111.5 -17.5h-557q-147 0 -147 94q0 45 25 64.5t73 34.5q80 28 106.5 50t30 47.5t7.5 143.5v2278q0 41 -31.5 55.5t-100.5 34.5q-64 23 -89 40.5t-25 65.5q0 58 39 74t108 16
h1815q144 -22 180 -188l49 -254q-14 -66 -61 -66q-33 0 -119 86q-199 209 -488 209h-671q-238 0 -238 -110v-2384z" />
    <glyph glyph-name="radical" unicode="&#x413;" horiz-adv-x="2294" 
d="M733 291q0 -33 19 -51t53 -27.5t55 -15.5q60 -16 89.5 -34.5t29.5 -68.5q0 -59 -40.5 -76.5t-111.5 -17.5h-557q-147 0 -147 94q0 45 25 64.5t73 34.5q80 28 106.5 50t30 47.5t7.5 143.5v2278q0 41 -31.5 55.5t-100.5 34.5q-64 23 -89 40.5t-25 65.5q0 58 39 74t108 16
h1815q144 -22 180 -188l49 -254q-14 -66 -61 -66q-33 0 -119 86q-199 209 -488 209h-671q-238 0 -238 -110v-2384z" />
    <glyph glyph-name="florin" unicode="&#xc4;" horiz-adv-x="2949" 
d="M2675 209h45q53 0 77.5 -25.5t51 -142t26.5 -168.5q0 -17 8.5 -52t8.5 -54q0 -86 -74 -86q-41 0 -135 81q-107 87 -165 123.5t-159 65.5q-159 49 -352 49h-1180q-147 0 -340 -41q-113 -24 -184 -66.5t-184 -138.5q-3 -2 -34.5 -31t-52 -42t-44.5 -13q-82 0 -82 94
q0 17 6 49t6 46q0 95 28 223.5t91 128.5h49q54 0 104 38.5t60 76.5l131 458q112 394 315 909t422 910q25 43 25 74q0 82 -139 127q-66 23 -92.5 40.5t-26.5 65.5q0 60 40.5 75t110.5 15h1651q143 0 143 -90q0 -73 -102 -102q-73 -22 -102.5 -45t-37.5 -64t-8 -133v-2236
q0 -74 78 -111zM725 205h1389q66 28 82 68.5t16 160.5v2257q0 44 -43 69t-92 25h-471q-95 0 -156 -106q-90 -177 -250.5 -509.5t-249.5 -567.5q-134 -357 -249 -717t-115 -520t139 -160z" />
    <glyph glyph-name="florin" unicode="&#x414;" horiz-adv-x="2949" 
d="M2675 209h45q53 0 77.5 -25.5t51 -142t26.5 -168.5q0 -17 8.5 -52t8.5 -54q0 -86 -74 -86q-41 0 -135 81q-107 87 -165 123.5t-159 65.5q-159 49 -352 49h-1180q-147 0 -340 -41q-113 -24 -184 -66.5t-184 -138.5q-3 -2 -34.5 -31t-52 -42t-44.5 -13q-82 0 -82 94
q0 17 6 49t6 46q0 95 28 223.5t91 128.5h49q54 0 104 38.5t60 76.5l131 458q112 394 315 909t422 910q25 43 25 74q0 82 -139 127q-66 23 -92.5 40.5t-26.5 65.5q0 60 40.5 75t110.5 15h1651q143 0 143 -90q0 -73 -102 -102q-73 -22 -102.5 -45t-37.5 -64t-8 -133v-2236
q0 -74 78 -111zM725 205h1389q66 28 82 68.5t16 160.5v2257q0 44 -43 69t-92 25h-471q-95 0 -156 -106q-90 -177 -250.5 -509.5t-249.5 -567.5q-134 -357 -249 -717t-115 -520t139 -160z" />
    <glyph glyph-name="approxequal" unicode="&#xc5;" 
d="M729 705q0 -186 23.5 -288t101 -153t236.5 -51h614q146 0 260.5 56t235.5 169q57 54 87 78.5t64 24.5q30 0 48 -20t18 -50q0 -33 -6 -73.5t-20 -114t-15 -78.5q-21 -119 -32 -152.5t-42.5 -42t-130.5 -10.5h-1909q-66 0 -104.5 18t-38.5 76q0 45 25 64.5t73 34.5
q98 29 120.5 70t22.5 171v2163q0 90 -25.5 143t-105.5 66q-58 17 -84 35t-26 67q0 58 39 74t108 16h1815q123 -29 147 -196l33 -250q-6 -66 -70 -66q-43 0 -69 33q-89 113 -214.5 189.5t-252.5 76.5h-660q-145 0 -205.5 -68t-60.5 -251v-746h787q98 0 157 15t117 67
q53 53 90 53q86 0 86 -188q0 -26 -2 -63t-2 -43q0 -99 -18.5 -140t-79.5 -41q-38 0 -90 54q-56 50 -101 61.5t-137 11.5h-807v-802z" />
    <glyph glyph-name="approxequal" unicode="&#x415;" 
d="M729 705q0 -186 23.5 -288t101 -153t236.5 -51h614q146 0 260.5 56t235.5 169q57 54 87 78.5t64 24.5q30 0 48 -20t18 -50q0 -33 -6 -73.5t-20 -114t-15 -78.5q-21 -119 -32 -152.5t-42.5 -42t-130.5 -10.5h-1909q-66 0 -104.5 18t-38.5 76q0 45 25 64.5t73 34.5
q98 29 120.5 70t22.5 171v2163q0 90 -25.5 143t-105.5 66q-58 17 -84 35t-26 67q0 58 39 74t108 16h1815q123 -29 147 -196l33 -250q-6 -66 -70 -66q-43 0 -69 33q-89 113 -214.5 189.5t-252.5 76.5h-660q-145 0 -205.5 -68t-60.5 -251v-746h787q98 0 157 15t117 67
q53 53 90 53q86 0 86 -188q0 -26 -2 -63t-2 -43q0 -99 -18.5 -140t-79.5 -41q-38 0 -90 54q-56 50 -101 61.5t-137 11.5h-807v-802z" />
    <glyph glyph-name="Delta" unicode="&#xc6;" horiz-adv-x="4342" 
d="M1896 0q-147 0 -147 94q0 47 24.5 64t81.5 39q30 10 62 20.5t51 27.5t19 46v770l-435 471q-109 -103 -316 -367.5t-363 -516t-156 -357.5q0 -41 21 -62.5t61 -41t61 -38.5t21 -55q0 -94 -193 -94h-532q-144 0 -144 86q0 52 28 73t91 46q90 34 131 88.5t94 169.5
q150 317 372 634t476 591l103 106l-635 721q-104 126 -169.5 184.5t-183.5 114.5q-94 38 -94 106q0 78 156 78h602q131 0 131 -78q0 -47 -21 -68.5t-66 -41t-67 -42t-22 -73.5q0 -115 143 -278l906 -1045v1192q0 131 -20 167t-116 75q-62 29 -80 43t-18 59q0 90 148 90h540
q148 0 148 -90q0 -45 -19 -60t-80 -42q-95 -39 -115 -75t-20 -167v-1192l905 1045q144 161 144 278q0 50 -22 73t-67 42.5t-66 40.5t-21 69q0 53 34.5 65.5t96.5 12.5h602q155 0 155 -78q0 -68 -94 -106q-118 -56 -181 -113t-171 -186l-635 -721l103 -106
q166 -180 321 -380.5t290 -415.5t236 -429q56 -118 96.5 -171t129.5 -87q22 -8 44.5 -15.5t39 -17t25.5 -25.5t9 -45q0 -102 -143 -102h-532q-193 0 -193 94q0 36 20 54t60 37.5t62 42t22 63.5q0 84 -95.5 256t-235.5 368t-283 370t-222 247l-434 -471v-770q0 -29 19 -46
t50.5 -27.5l61.5 -20.5q57 -21 82 -38.5t25 -64.5q0 -59 -39 -76.5t-109 -17.5h-549z" />
    <glyph glyph-name="Delta" unicode="&#x416;" horiz-adv-x="4342" 
d="M1896 0q-147 0 -147 94q0 47 24.5 64t81.5 39q30 10 62 20.5t51 27.5t19 46v770l-435 471q-109 -103 -316 -367.5t-363 -516t-156 -357.5q0 -41 21 -62.5t61 -41t61 -38.5t21 -55q0 -94 -193 -94h-532q-144 0 -144 86q0 52 28 73t91 46q90 34 131 88.5t94 169.5
q150 317 372 634t476 591l103 106l-635 721q-104 126 -169.5 184.5t-183.5 114.5q-94 38 -94 106q0 78 156 78h602q131 0 131 -78q0 -47 -21 -68.5t-66 -41t-67 -42t-22 -73.5q0 -115 143 -278l906 -1045v1192q0 131 -20 167t-116 75q-62 29 -80 43t-18 59q0 90 148 90h540
q148 0 148 -90q0 -45 -19 -60t-80 -42q-95 -39 -115 -75t-20 -167v-1192l905 1045q144 161 144 278q0 50 -22 73t-67 42.5t-66 40.5t-21 69q0 53 34.5 65.5t96.5 12.5h602q155 0 155 -78q0 -68 -94 -106q-118 -56 -181 -113t-171 -186l-635 -721l103 -106
q166 -180 321 -380.5t290 -415.5t236 -429q56 -118 96.5 -171t129.5 -87q22 -8 44.5 -15.5t39 -17t25.5 -25.5t9 -45q0 -102 -143 -102h-532q-193 0 -193 94q0 36 20 54t60 37.5t62 42t22 63.5q0 84 -95.5 256t-235.5 368t-283 370t-222 247l-434 -471v-770q0 -29 19 -46
t50.5 -27.5l61.5 -20.5q57 -21 82 -38.5t25 -64.5q0 -59 -39 -76.5t-109 -17.5h-549z" />
    <glyph glyph-name="guillemotleft" unicode="&#xc7;" horiz-adv-x="2540" 
d="M967 1499q-152 0 -152 98q0 100 135 111q47 3 123.5 8.5t192.5 12.5q133 7 271.5 63.5t238.5 186.5t100 339q0 266 -171.5 405.5t-496.5 139.5q-162 0 -299.5 -67.5t-223.5 -144t-179 -174t-113 -97.5q-57 0 -75 27t-20 85.5t-7 75.5q-4 19 -20.5 70.5t-16.5 68.5
q0 41 74 103q134 108 421 185t513 77q199 0 377 -49t320.5 -146t224 -239t81.5 -320q0 -256 -200.5 -435.5t-475.5 -244.5q215 -36 397.5 -131.5t298 -262.5t115.5 -396q0 -236 -97 -411t-267.5 -285t-389.5 -161.5t-475 -51.5q-204 0 -418.5 64t-390 205t-247.5 357
q-21 66 -21 111q0 106 58 115q64 0 99.5 -21.5t55 -52t103.5 -176.5q109 -187 307.5 -292.5t429.5 -105.5q387 0 621.5 179.5t234.5 508.5q0 215 -102.5 360t-270.5 217.5t-364 78.5z" />
    <glyph glyph-name="guillemotleft" unicode="&#x417;" horiz-adv-x="2540" 
d="M967 1499q-152 0 -152 98q0 100 135 111q47 3 123.5 8.5t192.5 12.5q133 7 271.5 63.5t238.5 186.5t100 339q0 266 -171.5 405.5t-496.5 139.5q-162 0 -299.5 -67.5t-223.5 -144t-179 -174t-113 -97.5q-57 0 -75 27t-20 85.5t-7 75.5q-4 19 -20.5 70.5t-16.5 68.5
q0 41 74 103q134 108 421 185t513 77q199 0 377 -49t320.5 -146t224 -239t81.5 -320q0 -256 -200.5 -435.5t-475.5 -244.5q215 -36 397.5 -131.5t298 -262.5t115.5 -396q0 -236 -97 -411t-267.5 -285t-389.5 -161.5t-475 -51.5q-204 0 -418.5 64t-390 205t-247.5 357
q-21 66 -21 111q0 106 58 115q64 0 99.5 -21.5t55 -52t103.5 -176.5q109 -187 307.5 -292.5t429.5 -105.5q387 0 621.5 179.5t234.5 508.5q0 215 -102.5 360t-270.5 217.5t-364 78.5z" />
    <glyph glyph-name="guillemotright" unicode="&#xc8;" horiz-adv-x="3277" 
d="M737 291q0 -28 20 -45.5t50.5 -28t60.5 -20.5q59 -20 85 -38t26 -65q0 -59 -39 -76.5t-109 -17.5h-565q-67 0 -107 18t-40 76q0 46 27 65t79 34q99 29 121.5 70t22.5 171v2273q0 44 -32.5 59.5t-98.5 35.5q-66 23 -92.5 40.5t-26.5 65.5q0 60 40.5 75t110.5 15h566
q143 0 143 -90q0 -46 -22.5 -64t-75.5 -38q-103 -34 -123.5 -73t-20.5 -169v-1741l1774 1774v115q0 59 -135 90q-63 22 -89 40t-26 66q0 90 143 90h582q143 0 143 -90q0 -73 -102 -102q-73 -22 -102.5 -45t-37.5 -64t-8 -133v-2236q0 -45 16.5 -67.5t61.5 -43.5l45 -20
l37 -21q54 -26 72 -38t18 -44q0 -59 -38 -76.5t-105 -17.5h-578q-69 0 -108 17.5t-39 76.5q0 45 26 64.5t76 34.5q102 29 125 70t23 171v1860l-1774 -1774v-229z" />
    <glyph glyph-name="guillemotright" unicode="&#x418;" horiz-adv-x="3277" 
d="M737 291q0 -28 20 -45.5t50.5 -28t60.5 -20.5q59 -20 85 -38t26 -65q0 -59 -39 -76.5t-109 -17.5h-565q-67 0 -107 18t-40 76q0 46 27 65t79 34q99 29 121.5 70t22.5 171v2273q0 44 -32.5 59.5t-98.5 35.5q-66 23 -92.5 40.5t-26.5 65.5q0 60 40.5 75t110.5 15h566
q143 0 143 -90q0 -46 -22.5 -64t-75.5 -38q-103 -34 -123.5 -73t-20.5 -169v-1741l1774 1774v115q0 59 -135 90q-63 22 -89 40t-26 66q0 90 143 90h582q143 0 143 -90q0 -73 -102 -102q-73 -22 -102.5 -45t-37.5 -64t-8 -133v-2236q0 -45 16.5 -67.5t61.5 -43.5l45 -20
l37 -21q54 -26 72 -38t18 -44q0 -59 -38 -76.5t-105 -17.5h-578q-69 0 -108 17.5t-39 76.5q0 45 26 64.5t76 34.5q102 29 125 70t23 171v1860l-1774 -1774v-229z" />
    <glyph glyph-name="ellipsis" unicode="&#xc9;" horiz-adv-x="3277" 
d="M2200 3555q0 -122 -103 -250q-169 -213 -459 -213q-250 0 -421 144q-78 63 -137.5 152.5t-59.5 166.5q0 38 24.5 66.5t61.5 28.5q35 0 70.5 -51t92.5 -127t146 -123.5t227 -47.5q99 0 201 57.5t160 143.5q41 69 64.5 98t66.5 29q66 0 66 -74zM737 291q0 -28 20 -45.5
t50.5 -28t60.5 -20.5q59 -20 85 -38t26 -65q0 -59 -39 -76.5t-109 -17.5h-565q-67 0 -107 18t-40 76q0 46 27 65t79 34q99 29 121.5 70t22.5 171v2273q0 44 -32.5 59.5t-98.5 35.5q-66 23 -92.5 40.5t-26.5 65.5q0 60 40.5 75t110.5 15h566q143 0 143 -90q0 -46 -22.5 -64
t-75.5 -38q-103 -34 -123.5 -73t-20.5 -169v-1741l1774 1774v115q0 59 -135 90q-63 22 -89 40t-26 66q0 90 143 90h582q143 0 143 -90q0 -73 -102 -102q-73 -22 -102.5 -45t-37.5 -64t-8 -133v-2236q0 -45 16.5 -67.5t61.5 -43.5l45 -20l37 -21q54 -26 72 -38t18 -44
q0 -59 -38 -76.5t-105 -17.5h-578q-69 0 -108 17.5t-39 76.5q0 45 26 64.5t76 34.5q102 29 125 70t23 171v1860l-1774 -1774v-229z" />
    <glyph glyph-name="ellipsis" unicode="&#x419;" horiz-adv-x="3277" 
d="M2200 3555q0 -122 -103 -250q-169 -213 -459 -213q-250 0 -421 144q-78 63 -137.5 152.5t-59.5 166.5q0 38 24.5 66.5t61.5 28.5q35 0 70.5 -51t92.5 -127t146 -123.5t227 -47.5q99 0 201 57.5t160 143.5q41 69 64.5 98t66.5 29q66 0 66 -74zM737 291q0 -28 20 -45.5
t50.5 -28t60.5 -20.5q59 -20 85 -38t26 -65q0 -59 -39 -76.5t-109 -17.5h-565q-67 0 -107 18t-40 76q0 46 27 65t79 34q99 29 121.5 70t22.5 171v2273q0 44 -32.5 59.5t-98.5 35.5q-66 23 -92.5 40.5t-26.5 65.5q0 60 40.5 75t110.5 15h566q143 0 143 -90q0 -46 -22.5 -64
t-75.5 -38q-103 -34 -123.5 -73t-20.5 -169v-1741l1774 1774v115q0 59 -135 90q-63 22 -89 40t-26 66q0 90 143 90h582q143 0 143 -90q0 -73 -102 -102q-73 -22 -102.5 -45t-37.5 -64t-8 -133v-2236q0 -45 16.5 -67.5t61.5 -43.5l45 -20l37 -21q54 -26 72 -38t18 -44
q0 -59 -38 -76.5t-105 -17.5h-578q-69 0 -108 17.5t-39 76.5q0 45 26 64.5t76 34.5q102 29 125 70t23 171v1860l-1774 -1774v-229z" />
    <glyph glyph-name="nonbreakingspace" unicode="&#xca;" horiz-adv-x="2867" 
d="M741 291q0 -29 19 -46t50.5 -27.5l61.5 -20.5q57 -21 82 -38.5t25 -64.5q0 -59 -40 -76.5t-108 -17.5h-565q-69 0 -108 17.5t-39 76.5q0 46 27 65t79 34q102 29 125 70t23 171v2278q0 58 -131 90q-66 21 -92.5 39.5t-26.5 66.5q0 90 143 90h561q148 0 148 -90
q0 -45 -19.5 -60.5t-78.5 -41.5q-78 -34 -102.5 -54t-28 -49t-5.5 -139v-1192l697 660l372 385q31 34 77 85t77 101t31 92q0 51 -27.5 74t-82.5 42t-81 40.5t-26 68.5q0 53 34.5 65.5t96.5 12.5h602q155 0 155 -78q0 -68 -94 -106q-118 -56 -181 -113t-171 -186l-676 -721
l103 -106q634 -685 888 -1225q56 -118 96.5 -171t129.5 -87q61 -23 89.5 -44.5t28.5 -74.5q0 -86 -143 -86h-532q-193 0 -193 94q0 36 20 54t60 37.5t62 42t22 63.5q0 108 -168.5 364.5t-386.5 524t-334 376.5l-545 -495v-770z" />
    <glyph glyph-name="nonbreakingspace" unicode="&#x41a;" horiz-adv-x="2867" 
d="M741 291q0 -29 19 -46t50.5 -27.5l61.5 -20.5q57 -21 82 -38.5t25 -64.5q0 -59 -40 -76.5t-108 -17.5h-565q-69 0 -108 17.5t-39 76.5q0 46 27 65t79 34q102 29 125 70t23 171v2278q0 58 -131 90q-66 21 -92.5 39.5t-26.5 66.5q0 90 143 90h561q148 0 148 -90
q0 -45 -19.5 -60.5t-78.5 -41.5q-78 -34 -102.5 -54t-28 -49t-5.5 -139v-1192l697 660l372 385q31 34 77 85t77 101t31 92q0 51 -27.5 74t-82.5 42t-81 40.5t-26 68.5q0 53 34.5 65.5t96.5 12.5h602q155 0 155 -78q0 -68 -94 -106q-118 -56 -181 -113t-171 -186l-676 -721
l103 -106q634 -685 888 -1225q56 -118 96.5 -171t129.5 -87q61 -23 89.5 -44.5t28.5 -74.5q0 -86 -143 -86h-532q-193 0 -193 94q0 36 20 54t60 37.5t62 42t22 63.5q0 108 -168.5 364.5t-386.5 524t-334 376.5l-545 -495v-770z" />
    <glyph glyph-name="Agrave" unicode="&#xcb;" horiz-adv-x="2867" 
d="M1008 2601q24 43 24 74q0 83 -139 127q-67 24 -93 41.5t-26 64.5q0 60 40.5 75t111.5 15h1650q144 0 144 -90q0 -47 -24.5 -67t-78.5 -35q-100 -29 -123.5 -70.5t-23.5 -171.5v-2236q0 -75 78 -111l82 -41q54 -26 72 -38t18 -44q0 -59 -38.5 -76.5t-105.5 -17.5h-577
q-70 0 -109 17.5t-39 76.5q0 44 26.5 64t76.5 35q101 29 124 70t23 171v2257q0 44 -43 69t-92 25h-471q-52 0 -84.5 -20.5t-71.5 -85.5q-90 -177 -248 -505t-251 -572q-365 -970 -365 -1237q0 -88 34.5 -112t133 -73t98.5 -102q0 -82 -118 -82h-553q-52 0 -75.5 9t-23.5 48
q0 72 74 135q66 55 94 136l131 458q112 394 315.5 910.5t422.5 908.5z" />
    <glyph glyph-name="Agrave" unicode="&#x41b;" horiz-adv-x="2867" 
d="M1008 2601q24 43 24 74q0 83 -139 127q-67 24 -93 41.5t-26 64.5q0 60 40.5 75t111.5 15h1650q144 0 144 -90q0 -47 -24.5 -67t-78.5 -35q-100 -29 -123.5 -70.5t-23.5 -171.5v-2236q0 -75 78 -111l82 -41q54 -26 72 -38t18 -44q0 -59 -38.5 -76.5t-105.5 -17.5h-577
q-70 0 -109 17.5t-39 76.5q0 44 26.5 64t76.5 35q101 29 124 70t23 171v2257q0 44 -43 69t-92 25h-471q-52 0 -84.5 -20.5t-71.5 -85.5q-90 -177 -248 -505t-251 -572q-365 -970 -365 -1237q0 -88 34.5 -112t133 -73t98.5 -102q0 -82 -118 -82h-553q-52 0 -75.5 9t-23.5 48
q0 72 74 135q66 55 94 136l131 458q112 394 315.5 910.5t422.5 908.5z" />
    <glyph glyph-name="Atilde" unicode="&#xcc;" horiz-adv-x="3523" 
d="M2183 1884l397 942q35 90 62 131t90 41h528q61 0 88 -18t27 -84q0 -63 -110 -90q-107 -27 -137.5 -64t-30.5 -149v-2302q0 -22 14.5 -38t35 -25t51.5 -17.5t50 -13.5q65 -17 94 -33.5t29 -69.5q0 -59 -39 -76.5t-108 -17.5h-553q-144 0 -144 94q0 45 21.5 62.5t72.5 36.5
q75 29 97 52t22 70q0 11 -2 50t-2 69v2146l-590 -1376l-307 -635q-88 -180 -151 -180q-43 0 -68 31.5t-55 91.5l-439 938l-401 991l-82 205v-2339q4 -26 18.5 -43.5t33 -27.5t45.5 -19.5t55 -19.5q64 -21 97.5 -41.5t33.5 -73.5q0 -82 -111 -82h-491q-74 0 -111 15.5
t-37 74.5q0 45 24 64.5t74 38.5q64 24 89.5 44.5t31.5 51.5t6 108v2261q0 104 -37 123.5t-133 44.5t-96 82q0 90 111 90h545q46 0 76.5 -34t52.5 -89t38 -94l771 -1839z" />
    <glyph glyph-name="Atilde" unicode="&#x41c;" horiz-adv-x="3523" 
d="M2183 1884l397 942q35 90 62 131t90 41h528q61 0 88 -18t27 -84q0 -63 -110 -90q-107 -27 -137.5 -64t-30.5 -149v-2302q0 -22 14.5 -38t35 -25t51.5 -17.5t50 -13.5q65 -17 94 -33.5t29 -69.5q0 -59 -39 -76.5t-108 -17.5h-553q-144 0 -144 94q0 45 21.5 62.5t72.5 36.5
q75 29 97 52t22 70q0 11 -2 50t-2 69v2146l-590 -1376l-307 -635q-88 -180 -151 -180q-43 0 -68 31.5t-55 91.5l-439 938l-401 991l-82 205v-2339q4 -26 18.5 -43.5t33 -27.5t45.5 -19.5t55 -19.5q64 -21 97.5 -41.5t33.5 -73.5q0 -82 -111 -82h-491q-74 0 -111 15.5
t-37 74.5q0 45 24 64.5t74 38.5q64 24 89.5 44.5t31.5 51.5t6 108v2261q0 104 -37 123.5t-133 44.5t-96 82q0 90 111 90h545q46 0 76.5 -34t52.5 -89t38 -94l771 -1839z" />
    <glyph glyph-name="Otilde" unicode="&#xcd;" horiz-adv-x="3277" 
d="M737 291q0 -28 20 -45.5t50.5 -28t60.5 -20.5q59 -20 85 -38t26 -65q0 -59 -39 -76.5t-109 -17.5h-565q-67 0 -107 18t-40 76q0 46 27 65t79 34q99 29 121.5 70t22.5 171v2273q0 44 -32.5 59.5t-98.5 35.5q-66 23 -92.5 40.5t-26.5 65.5q0 60 40.5 75t110.5 15h566
q143 0 143 -90q0 -46 -22.5 -64t-75.5 -38q-103 -34 -123.5 -73t-20.5 -169v-827h1774v975q0 59 -135 90q-63 22 -89 40t-26 66q0 90 143 90h582q143 0 143 -90q0 -73 -102 -102q-73 -22 -102.5 -45t-37.5 -64t-8 -133v-2236q0 -45 16.5 -67.5t61.5 -43.5l45 -20l37 -21
q54 -26 72 -38t18 -44q0 -59 -38 -76.5t-105 -17.5h-578q-69 0 -108 17.5t-39 76.5q0 45 26 64.5t76 34.5q102 29 125 70t23 171v1090h-1774v-1233z" />
    <glyph glyph-name="Otilde" unicode="&#x41d;" horiz-adv-x="3277" 
d="M737 291q0 -28 20 -45.5t50.5 -28t60.5 -20.5q59 -20 85 -38t26 -65q0 -59 -39 -76.5t-109 -17.5h-565q-67 0 -107 18t-40 76q0 46 27 65t79 34q99 29 121.5 70t22.5 171v2273q0 44 -32.5 59.5t-98.5 35.5q-66 23 -92.5 40.5t-26.5 65.5q0 60 40.5 75t110.5 15h566
q143 0 143 -90q0 -46 -22.5 -64t-75.5 -38q-103 -34 -123.5 -73t-20.5 -169v-827h1774v975q0 59 -135 90q-63 22 -89 40t-26 66q0 90 143 90h582q143 0 143 -90q0 -73 -102 -102q-73 -22 -102.5 -45t-37.5 -64t-8 -133v-2236q0 -45 16.5 -67.5t61.5 -43.5l45 -20l37 -21
q54 -26 72 -38t18 -44q0 -59 -38 -76.5t-105 -17.5h-578q-69 0 -108 17.5t-39 76.5q0 45 26 64.5t76 34.5q102 29 125 70t23 171v1090h-1774v-1233z" />
    <glyph glyph-name="OE" unicode="&#xce;" horiz-adv-x="3277" 
d="M553 373q-401 423 -401 1110q0 322 102 608.5t296 505.5t465.5 341t602.5 122q307 0 586 -116t487 -335q142 -146 235.5 -327t136 -380.5t42.5 -414.5q0 -434 -192.5 -788.5t-540.5 -557t-783 -202.5q-196 0 -381.5 48.5t-351.5 145.5t-303 240zM2433 586
q254 353 254 880q0 263 -62 512t-196 435q-144 201 -357 315.5t-454 114.5q-252 0 -464 -129t-351 -351q-234 -359 -234 -876q0 -538 254 -905q141 -203 344.5 -316.5t442.5 -113.5q245 0 459 115t364 319z" />
    <glyph glyph-name="OE" unicode="&#x41e;" horiz-adv-x="3277" 
d="M553 373q-401 423 -401 1110q0 322 102 608.5t296 505.5t465.5 341t602.5 122q307 0 586 -116t487 -335q142 -146 235.5 -327t136 -380.5t42.5 -414.5q0 -434 -192.5 -788.5t-540.5 -557t-783 -202.5q-196 0 -381.5 48.5t-351.5 145.5t-303 240zM2433 586
q254 353 254 880q0 263 -62 512t-196 435q-144 201 -357 315.5t-454 114.5q-252 0 -464 -129t-351 -351q-234 -359 -234 -876q0 -538 254 -905q141 -203 344.5 -316.5t442.5 -113.5q245 0 459 115t364 319z" />
    <glyph glyph-name="oe" unicode="&#xcf;" horiz-adv-x="3277" 
d="M881 2785q-76 -25 -103.5 -44t-34 -52t-6.5 -125v-2273q0 -28 20 -45.5t50.5 -28t60.5 -20.5q59 -20 85 -38t26 -65q0 -59 -39 -76.5t-109 -17.5h-565q-67 0 -107 18t-40 76q0 46 27 65t79 34q99 29 121.5 70t22.5 171v2273q0 44 -32.5 59.5t-98.5 35.5
q-66 23 -92.5 40.5t-26.5 65.5q0 60 40.5 75t110.5 15h2716q143 0 143 -90q0 -73 -102 -102q-73 -22 -102.5 -45t-37.5 -64t-8 -133v-2236q0 -45 16.5 -67.5t61.5 -43.5l45 -20l37 -21q54 -26 72 -38t18 -44q0 -59 -38 -76.5t-105 -17.5h-578q-69 0 -108 17.5t-39 76.5
q0 45 26 64.5t76 34.5q102 29 125 70t23 171v2257q0 44 -43 69t-92 25h-1495z" />
    <glyph glyph-name="oe" unicode="&#x41f;" horiz-adv-x="3277" 
d="M881 2785q-76 -25 -103.5 -44t-34 -52t-6.5 -125v-2273q0 -28 20 -45.5t50.5 -28t60.5 -20.5q59 -20 85 -38t26 -65q0 -59 -39 -76.5t-109 -17.5h-565q-67 0 -107 18t-40 76q0 46 27 65t79 34q99 29 121.5 70t22.5 171v2273q0 44 -32.5 59.5t-98.5 35.5
q-66 23 -92.5 40.5t-26.5 65.5q0 60 40.5 75t110.5 15h2716q143 0 143 -90q0 -73 -102 -102q-73 -22 -102.5 -45t-37.5 -64t-8 -133v-2236q0 -45 16.5 -67.5t61.5 -43.5l45 -20l37 -21q54 -26 72 -38t18 -44q0 -59 -38 -76.5t-105 -17.5h-578q-69 0 -108 17.5t-39 76.5
q0 45 26 64.5t76 34.5q102 29 125 70t23 171v2257q0 44 -43 69t-92 25h-1495z" />
    <glyph glyph-name="emdash" unicode="&#xd0;" horiz-adv-x="2540" 
d="M733 287q0 -60 144 -90q60 -16 91 -34.5t31 -68.5q0 -59 -39.5 -76.5t-107.5 -17.5h-573q-70 0 -109 17.5t-39 76.5q0 45 22.5 62t75.5 37q93 34 114.5 72.5t21.5 168.5v2278q0 41 -31.5 55.5t-100.5 34.5q-60 17 -87 35.5t-27 66.5q0 94 143 94h1065q230 0 408 -28
t333 -111q195 -98 300.5 -264t105.5 -383q0 -189 -85.5 -354.5t-229 -293t-316.5 -212.5q-232 -115 -505 -158t-605 -47v-860zM733 1360q313 0 615 79t505 261t203 471q0 150 -72 277.5t-198 209.5q-118 75 -258.5 101t-319.5 26q-266 0 -368 -53q-71 -38 -89 -97t-18 -165
v-1110z" />
    <glyph glyph-name="emdash" unicode="&#x420;" horiz-adv-x="2540" 
d="M733 287q0 -60 144 -90q60 -16 91 -34.5t31 -68.5q0 -59 -39.5 -76.5t-107.5 -17.5h-573q-70 0 -109 17.5t-39 76.5q0 45 22.5 62t75.5 37q93 34 114.5 72.5t21.5 168.5v2278q0 41 -31.5 55.5t-100.5 34.5q-60 17 -87 35.5t-27 66.5q0 94 143 94h1065q230 0 408 -28
t333 -111q195 -98 300.5 -264t105.5 -383q0 -189 -85.5 -354.5t-229 -293t-316.5 -212.5q-232 -115 -505 -158t-605 -47v-860zM733 1360q313 0 615 79t505 261t203 471q0 150 -72 277.5t-198 209.5q-118 75 -258.5 101t-319.5 26q-266 0 -368 -53q-71 -38 -89 -97t-18 -165
v-1110z" />
    <glyph glyph-name="endash" unicode="&#xd1;" horiz-adv-x="2949" 
d="M2806 2249q0 -140 -103 -140q-29 0 -52 26t-40.5 63.5t-30.5 66.5q-77 157 -141.5 248.5t-177.5 173.5q-230 164 -528 164q-499 0 -844 -426q-324 -397 -324 -918q0 -233 66 -484t188 -425q303 -426 889 -426q258 0 461 98.5t403 298.5q13 13 42 45t55.5 49t58.5 17
q39 0 64.5 -28.5t25.5 -69.5q0 -88 -146.5 -224t-263.5 -206q-161 -102 -362 -157.5t-404 -55.5q-303 0 -576 107t-479 302t-323 461.5t-117 574.5q0 329 122 633t341.5 539.5t512 369.5t626.5 134q410 0 782 -193q195 -111 226 -155q42 -62 49 -168v-295z" />
    <glyph glyph-name="endash" unicode="&#x421;" horiz-adv-x="2949" 
d="M2806 2249q0 -140 -103 -140q-29 0 -52 26t-40.5 63.5t-30.5 66.5q-77 157 -141.5 248.5t-177.5 173.5q-230 164 -528 164q-499 0 -844 -426q-324 -397 -324 -918q0 -233 66 -484t188 -425q303 -426 889 -426q258 0 461 98.5t403 298.5q13 13 42 45t55.5 49t58.5 17
q39 0 64.5 -28.5t25.5 -69.5q0 -88 -146.5 -224t-263.5 -206q-161 -102 -362 -157.5t-404 -55.5q-303 0 -576 107t-479 302t-323 461.5t-117 574.5q0 329 122 633t341.5 539.5t512 369.5t626.5 134q410 0 782 -193q195 -111 226 -155q42 -62 49 -168v-295z" />
    <glyph glyph-name="quotedblleft" unicode="&#xd2;" horiz-adv-x="2621" 
d="M1491 291q0 -39 31.5 -56t99.5 -38q59 -19 87 -37t28 -66q0 -59 -39 -76.5t-109 -17.5h-569q-148 0 -148 94q0 44 27.5 64t79.5 35q98 29 120.5 70t22.5 171v2101q0 112 -10.5 161.5t-48.5 71t-121 21.5q-149 0 -340 -41q-116 -25 -184 -66t-185 -138q-19 -18 -40.5 -38
t-44.5 -34t-46 -14q-82 0 -82 94q0 23 5.5 51.5t7.5 42.5q5 47 15.5 133.5t35 152.5t68.5 66h2273q62 -9 78 -24q40 -44 77 -312q17 -60 17 -106q0 -86 -74 -86q-43 0 -135 82q-111 88 -167 123.5t-157 64.5q-159 49 -352 49q-110 0 -155.5 -22t-55.5 -74t-10 -182v-2220z
" />
    <glyph glyph-name="quotedblleft" unicode="&#x422;" horiz-adv-x="2621" 
d="M1491 291q0 -39 31.5 -56t99.5 -38q59 -19 87 -37t28 -66q0 -59 -39 -76.5t-109 -17.5h-569q-148 0 -148 94q0 44 27.5 64t79.5 35q98 29 120.5 70t22.5 171v2101q0 112 -10.5 161.5t-48.5 71t-121 21.5q-149 0 -340 -41q-116 -25 -184 -66t-185 -138q-19 -18 -40.5 -38
t-44.5 -34t-46 -14q-82 0 -82 94q0 23 5.5 51.5t7.5 42.5q5 47 15.5 133.5t35 152.5t68.5 66h2273q62 -9 78 -24q40 -44 77 -312q17 -60 17 -106q0 -86 -74 -86q-43 0 -135 82q-111 88 -167 123.5t-157 64.5q-159 49 -352 49q-110 0 -155.5 -22t-55.5 -74t-10 -182v-2220z
" />
    <glyph glyph-name="quotedblright" unicode="&#xd3;" horiz-adv-x="2867" 
d="M291 2572q-43 185 -160 250q-23 15 -43.5 29t-33 29.5t-13.5 35.5q0 55 29.5 70.5t101.5 15.5h578q126 0 131 -77q0 -40 -58 -86.5t-92.5 -98t-34.5 -176.5q19 -138 116 -420t171 -428q104 -204 292 -374.5t343 -170.5q139 0 234.5 119.5t195.5 331.5q281 601 295 885
q0 169 -46 264t-96 126.5t-71 31.5q3 48 31.5 60.5t91.5 12.5h471q123 0 123 -65q0 -39 -17 -66q-6 -7 -46 -51.5t-58.5 -77.5t-38.5 -104q-63 -221 -144.5 -450.5t-183 -467.5t-212 -459t-238.5 -442q-146 -251 -312 -450t-386 -327t-486 -128q-120 0 -207.5 46.5
t-87.5 141.5q6 64 68 114t137 50q48 0 141.5 -18.5t149.5 -18.5q227 0 440 229t358 496q-73 -24 -159 -24q-209 0 -438 131t-382 356q-85 129 -170 309t-160 401t-124 445z" />
    <glyph glyph-name="quotedblright" unicode="&#x423;" horiz-adv-x="2867" 
d="M291 2572q-43 185 -160 250q-23 15 -43.5 29t-33 29.5t-13.5 35.5q0 55 29.5 70.5t101.5 15.5h578q126 0 131 -77q0 -40 -58 -86.5t-92.5 -98t-34.5 -176.5q19 -138 116 -420t171 -428q104 -204 292 -374.5t343 -170.5q139 0 234.5 119.5t195.5 331.5q281 601 295 885
q0 169 -46 264t-96 126.5t-71 31.5q3 48 31.5 60.5t91.5 12.5h471q123 0 123 -65q0 -39 -17 -66q-6 -7 -46 -51.5t-58.5 -77.5t-38.5 -104q-63 -221 -144.5 -450.5t-183 -467.5t-212 -459t-238.5 -442q-146 -251 -312 -450t-386 -327t-486 -128q-120 0 -207.5 46.5
t-87.5 141.5q6 64 68 114t137 50q48 0 141.5 -18.5t149.5 -18.5q227 0 440 229t358 496q-73 -24 -159 -24q-209 0 -438 131t-382 356q-85 129 -170 309t-160 401t-124 445z" />
    <glyph glyph-name="quoteleft" unicode="&#xd4;" horiz-adv-x="3686" 
d="M1565 0q-22 -20 -49 -20q-37 0 -68 33.5t-31 80.5t26 65t85 38q30 10 60.5 20.5t50.5 28t20 45.5v237q-176 0 -283 9q-253 31 -485 116.5t-414.5 222t-288.5 320.5t-106 401q0 326 180.5 527.5t528.5 292t868 90.5v114q0 91 -23.5 124t-119.5 61q-55 20 -77 38t-22 64
q0 90 144 90h565q143 0 143 -90q0 -46 -22.5 -64t-75.5 -38q-97 -29 -120 -61.5t-23 -123.5v-114q519 0 867 -90.5t528.5 -292t180.5 -527.5q0 -217 -106.5 -402t-287.5 -320.5t-414 -221t-486 -116.5q-84 -6 -161 -7.5t-121 -1.5v-237q0 -30 20 -46.5t49.5 -26.5t61.5 -21
q57 -20 83.5 -38t26.5 -65t-31 -80.5t-67 -33.5q-29 0 -49 20h-557zM1659 2290q-449 0 -705.5 -97t-355 -258t-98.5 -379q0 -224 179 -411.5t450 -293.5t530 -106v1545zM2028 745q259 0 530.5 106t450 293.5t178.5 411.5q0 218 -98.5 379t-355 258t-705.5 97v-1545z" />
    <glyph glyph-name="quoteleft" unicode="&#x424;" horiz-adv-x="3686" 
d="M1565 0q-22 -20 -49 -20q-37 0 -68 33.5t-31 80.5t26 65t85 38q30 10 60.5 20.5t50.5 28t20 45.5v237q-176 0 -283 9q-253 31 -485 116.5t-414.5 222t-288.5 320.5t-106 401q0 326 180.5 527.5t528.5 292t868 90.5v114q0 91 -23.5 124t-119.5 61q-55 20 -77 38t-22 64
q0 90 144 90h565q143 0 143 -90q0 -46 -22.5 -64t-75.5 -38q-97 -29 -120 -61.5t-23 -123.5v-114q519 0 867 -90.5t528.5 -292t180.5 -527.5q0 -217 -106.5 -402t-287.5 -320.5t-414 -221t-486 -116.5q-84 -6 -161 -7.5t-121 -1.5v-237q0 -30 20 -46.5t49.5 -26.5t61.5 -21
q57 -20 83.5 -38t26.5 -65t-31 -80.5t-67 -33.5q-29 0 -49 20h-557zM1659 2290q-449 0 -705.5 -97t-355 -258t-98.5 -379q0 -224 179 -411.5t450 -293.5t530 -106v1545zM2028 745q259 0 530.5 106t450 293.5t178.5 411.5q0 218 -98.5 379t-355 258t-705.5 97v-1545z" />
    <glyph glyph-name="quoteright" unicode="&#xd5;" horiz-adv-x="2867" 
d="M1298 1245q-189 -241 -405.5 -551.5t-216.5 -406.5q0 -55 46 -79.5t92 -49.5t46 -80q0 -51 -35 -64.5t-96 -13.5h-524q-80 0 -126 14t-46 64q0 56 34 74t121 45q83 31 137 94.5t121 175.5l279 397l451 606q-242 258 -446 545.5t-406 634.5q-69 119 -160 156
q-65 25 -94 47t-29 72q0 73 135 73h574q143 0 143 -65q0 -33 -13.5 -45.5t-52.5 -32.5q-59 -34 -80.5 -53.5t-21.5 -69.5q0 -140 219 -418t473 -557l381 471q48 60 92.5 117t90 123t77 129.5t31.5 105.5q0 57 -30.5 84.5t-89 49.5t-86.5 42t-28 62q0 57 107 57h594
q131 0 131 -69q0 -63 -86 -103q-96 -35 -147 -90q-40 -48 -205 -303l-652 -848q260 -273 448 -495t331 -459l131 -217q63 -97 108 -139t138 -74q114 -42 114 -115q0 -86 -131 -86h-631q-135 0 -135 78q0 41 24 60.5t74 40t74.5 38.5t24.5 53q0 101 -333 500t-486 533z" />
    <glyph glyph-name="quoteright" unicode="&#x425;" horiz-adv-x="2867" 
d="M1298 1245q-189 -241 -405.5 -551.5t-216.5 -406.5q0 -55 46 -79.5t92 -49.5t46 -80q0 -51 -35 -64.5t-96 -13.5h-524q-80 0 -126 14t-46 64q0 56 34 74t121 45q83 31 137 94.5t121 175.5l279 397l451 606q-242 258 -446 545.5t-406 634.5q-69 119 -160 156
q-65 25 -94 47t-29 72q0 73 135 73h574q143 0 143 -65q0 -33 -13.5 -45.5t-52.5 -32.5q-59 -34 -80.5 -53.5t-21.5 -69.5q0 -140 219 -418t473 -557l381 471q48 60 92.5 117t90 123t77 129.5t31.5 105.5q0 57 -30.5 84.5t-89 49.5t-86.5 42t-28 62q0 57 107 57h594
q131 0 131 -69q0 -63 -86 -103q-96 -35 -147 -90q-40 -48 -205 -303l-652 -848q260 -273 448 -495t331 -459l131 -217q63 -97 108 -139t138 -74q114 -42 114 -115q0 -86 -131 -86h-631q-135 0 -135 78q0 41 24 60.5t74 40t74.5 38.5t24.5 53q0 101 -333 500t-486 533z" />
    <glyph glyph-name="divide" unicode="&#xd6;" horiz-adv-x="3277" 
d="M270 0q-67 0 -107 18t-40 76q0 46 27 65t79 34q99 29 121.5 70t22.5 171v2273q0 44 -32.5 59.5t-98.5 35.5q-66 23 -92.5 40.5t-26.5 65.5q0 60 40.5 75t110.5 15h566q143 0 143 -90q0 -46 -22.5 -64t-75.5 -38q-103 -34 -123.5 -73t-20.5 -169v-2269q0 -34 29 -58
t70 -24h1548q41 0 84 49t43 172v2278q0 42 -43 66t-92 24q-63 22 -89 40t-26 66q0 90 143 90h582q143 0 143 -90q0 -73 -102 -102q-100 -29 -123.5 -70.5t-23.5 -171.5v-2236q0 -59 29 -83t48 -28l62 -8q53 0 78 -25q26 -27 51.5 -143t25.5 -168q0 -17 8.5 -52t8.5 -54
q0 -86 -74 -86q-41 0 -135 81q-107 87 -165 123.5t-159 65.5q-159 49 -352 49h-2040z" />
    <glyph glyph-name="divide" unicode="&#x426;" horiz-adv-x="3277" 
d="M270 0q-67 0 -107 18t-40 76q0 46 27 65t79 34q99 29 121.5 70t22.5 171v2273q0 44 -32.5 59.5t-98.5 35.5q-66 23 -92.5 40.5t-26.5 65.5q0 60 40.5 75t110.5 15h566q143 0 143 -90q0 -46 -22.5 -64t-75.5 -38q-103 -34 -123.5 -73t-20.5 -169v-2269q0 -34 29 -58
t70 -24h1548q41 0 84 49t43 172v2278q0 42 -43 66t-92 24q-63 22 -89 40t-26 66q0 90 143 90h582q143 0 143 -90q0 -73 -102 -102q-100 -29 -123.5 -70.5t-23.5 -171.5v-2236q0 -59 29 -83t48 -28l62 -8q53 0 78 -25q26 -27 51.5 -143t25.5 -168q0 -17 8.5 -52t8.5 -54
q0 -86 -74 -86q-41 0 -135 81q-107 87 -165 123.5t-159 65.5q-159 49 -352 49h-2040z" />
    <glyph glyph-name="lozenge" unicode="&#xd7;" horiz-adv-x="2949" 
d="M328 1860q0 194 15.5 453.5t25.5 393.5q0 53 -131 95q-66 23 -92.5 40.5t-26.5 65.5q0 60 40.5 75t110.5 15h566q143 0 143 -90q0 -46 -22.5 -64t-75.5 -38q-99 -33 -118 -72.5t-26 -169.5q-10 -114 -25.5 -330.5t-15.5 -373.5q0 -241 193.5 -387t503.5 -146
q234 0 460.5 100t329.5 166v1119q0 59 -135 90q-64 23 -89.5 41t-25.5 65q0 90 144 90h581q144 0 144 -90q0 -47 -24.5 -67t-78.5 -35q-100 -29 -123.5 -70.5t-23.5 -171.5v-2236q0 -45 17 -68t61 -43l45 -20l37 -21q54 -26 72 -38t18 -44q0 -59 -38.5 -76.5t-105.5 -17.5
h-577q-70 0 -109 17.5t-39 76.5q0 45 26.5 64.5t76.5 34.5q101 29 124 70t23 171v926q-49 -31 -173.5 -92t-335.5 -124t-429 -63q-255 0 -464 92.5t-331 270t-122 416.5z" />
    <glyph glyph-name="lozenge" unicode="&#x427;" horiz-adv-x="2949" 
d="M328 1860q0 194 15.5 453.5t25.5 393.5q0 53 -131 95q-66 23 -92.5 40.5t-26.5 65.5q0 60 40.5 75t110.5 15h566q143 0 143 -90q0 -46 -22.5 -64t-75.5 -38q-99 -33 -118 -72.5t-26 -169.5q-10 -114 -25.5 -330.5t-15.5 -373.5q0 -241 193.5 -387t503.5 -146
q234 0 460.5 100t329.5 166v1119q0 59 -135 90q-64 23 -89.5 41t-25.5 65q0 90 144 90h581q144 0 144 -90q0 -47 -24.5 -67t-78.5 -35q-100 -29 -123.5 -70.5t-23.5 -171.5v-2236q0 -45 17 -68t61 -43l45 -20l37 -21q54 -26 72 -38t18 -44q0 -59 -38.5 -76.5t-105.5 -17.5
h-577q-70 0 -109 17.5t-39 76.5q0 45 26.5 64.5t76.5 34.5q101 29 124 70t23 171v926q-49 -31 -173.5 -92t-335.5 -124t-429 -63q-255 0 -464 92.5t-331 270t-122 416.5z" />
    <glyph glyph-name="ydieresis" unicode="&#xd8;" horiz-adv-x="3932" 
d="M1683 213q58 22 72 61.5t14 159.5v2278q0 40 -31 55t-100 35q-64 23 -89 40.5t-25 65.5q0 60 39 75t108 15h565q144 0 144 -90q0 -46 -22 -64t-77 -38q-98 -29 -120.5 -69.5t-22.5 -172.5v-2273q0 -46 82 -78h823q65 0 96 44.5t31 176.5v2278q0 42 -43 66t-92 24
q-64 23 -89.5 41t-25.5 65q0 90 144 90h581q144 0 144 -90q0 -47 -24.5 -67t-78.5 -35q-100 -29 -123.5 -70.5t-23.5 -171.5v-2236q0 -45 17 -68t61 -43l45 -20l37 -21q54 -26 72 -38t18 -44q0 -47 -38 -83t-73 -36q-25 0 -33 25h-475h-2429h-471q-6 -25 -32 -25
q-36 0 -75.5 37t-39.5 82q0 46 27 65t79 34q99 29 121.5 70t22.5 171v2273q0 44 -32.5 59.5t-98.5 35.5q-66 23 -92.5 40.5t-26.5 65.5q0 60 40.5 75t110.5 15h566q143 0 143 -90q0 -46 -22.5 -64t-75.5 -38q-103 -34 -123.5 -73t-20.5 -169v-2269q0 -34 29 -58t70 -24h843z
" />
    <glyph glyph-name="ydieresis" unicode="&#x428;" horiz-adv-x="3932" 
d="M1683 213q58 22 72 61.5t14 159.5v2278q0 40 -31 55t-100 35q-64 23 -89 40.5t-25 65.5q0 60 39 75t108 15h565q144 0 144 -90q0 -46 -22 -64t-77 -38q-98 -29 -120.5 -69.5t-22.5 -172.5v-2273q0 -46 82 -78h823q65 0 96 44.5t31 176.5v2278q0 42 -43 66t-92 24
q-64 23 -89.5 41t-25.5 65q0 90 144 90h581q144 0 144 -90q0 -47 -24.5 -67t-78.5 -35q-100 -29 -123.5 -70.5t-23.5 -171.5v-2236q0 -45 17 -68t61 -43l45 -20l37 -21q54 -26 72 -38t18 -44q0 -47 -38 -83t-73 -36q-25 0 -33 25h-475h-2429h-471q-6 -25 -32 -25
q-36 0 -75.5 37t-39.5 82q0 46 27 65t79 34q99 29 121.5 70t22.5 171v2273q0 44 -32.5 59.5t-98.5 35.5q-66 23 -92.5 40.5t-26.5 65.5q0 60 40.5 75t110.5 15h566q143 0 143 -90q0 -46 -22.5 -64t-75.5 -38q-103 -34 -123.5 -73t-20.5 -169v-2269q0 -34 29 -58t70 -24h843z
" />
    <glyph glyph-name="Ydieresis" unicode="&#xd9;" horiz-adv-x="3932" 
d="M270 0q-67 0 -107 18t-40 76q0 46 27 65t79 34q99 29 121.5 70t22.5 171v2273q0 44 -32.5 59.5t-98.5 35.5q-66 23 -92.5 40.5t-26.5 65.5q0 60 40.5 75t110.5 15h566q143 0 143 -90q0 -46 -22.5 -64t-75.5 -38q-103 -34 -123.5 -73t-20.5 -169v-2269q0 -34 29 -58
t70 -24h843q58 22 72 61.5t14 159.5v2278q0 40 -31 55t-100 35q-64 23 -89 40.5t-25 65.5q0 60 39 75t108 15h565q144 0 144 -90q0 -46 -22 -64t-77 -38q-98 -29 -120.5 -69.5t-22.5 -172.5v-2273q0 -33 25 -55.5t57 -22.5h823q65 0 96 44.5t31 176.5v2278q0 42 -43 66
t-92 24q-64 23 -89.5 41t-25.5 65q0 90 144 90h581q144 0 144 -90q0 -47 -24.5 -67t-78.5 -35q-100 -29 -123.5 -70.5t-23.5 -171.5v-2236q0 -58 29.5 -82.5t48.5 -28.5l61 -8q54 0 78 -25q25 -26 51.5 -142.5t26.5 -168.5q0 -17 8 -54t8 -52q0 -86 -73 -86q-42 0 -136 81
q-107 87 -164.5 123.5t-158.5 65.5q-159 49 -352 49h-2696z" />
    <glyph glyph-name="Ydieresis" unicode="&#x429;" horiz-adv-x="3932" 
d="M270 0q-67 0 -107 18t-40 76q0 46 27 65t79 34q99 29 121.5 70t22.5 171v2273q0 44 -32.5 59.5t-98.5 35.5q-66 23 -92.5 40.5t-26.5 65.5q0 60 40.5 75t110.5 15h566q143 0 143 -90q0 -46 -22.5 -64t-75.5 -38q-103 -34 -123.5 -73t-20.5 -169v-2269q0 -34 29 -58
t70 -24h843q58 22 72 61.5t14 159.5v2278q0 40 -31 55t-100 35q-64 23 -89 40.5t-25 65.5q0 60 39 75t108 15h565q144 0 144 -90q0 -46 -22 -64t-77 -38q-98 -29 -120.5 -69.5t-22.5 -172.5v-2273q0 -33 25 -55.5t57 -22.5h823q65 0 96 44.5t31 176.5v2278q0 42 -43 66
t-92 24q-64 23 -89.5 41t-25.5 65q0 90 144 90h581q144 0 144 -90q0 -47 -24.5 -67t-78.5 -35q-100 -29 -123.5 -70.5t-23.5 -171.5v-2236q0 -58 29.5 -82.5t48.5 -28.5l61 -8q54 0 78 -25q25 -26 51.5 -142.5t26.5 -168.5q0 -17 8 -54t8 -52q0 -86 -73 -86q-42 0 -136 81
q-107 87 -164.5 123.5t-158.5 65.5q-159 49 -352 49h-2696z" />
    <glyph glyph-name="fraction" unicode="&#xda;" horiz-adv-x="3031" 
d="M680 2789q-113 0 -217 -32q-121 -40 -190.5 -81.5t-178.5 -131.5q-15 -13 -39 -35.5t-46 -36.5t-46 -14q-82 0 -82 94q0 18 6.5 48t6.5 46q3 9 26.5 113.5t55 171.5t77.5 67h701h573q148 0 148 -94q0 -49 -30 -67.5t-93 -34.5q-46 0 -95 -44t-49 -87v-820
q697 0 1110 -204q173 -85 316.5 -212.5t229 -293.5t85.5 -355q0 -216 -105 -381.5t-300 -265.5q-160 -83 -336 -111t-406 -28h-1065q-66 0 -104.5 18t-38.5 76q0 50 28.5 68.5t86.5 34.5q71 21 101 35.5t30 54.5v2277q0 115 -29 170t-131 55zM1208 528q0 -106 18 -164.5
t89 -97.5q102 -53 368 -53q179 0 318 25.5t260 101.5q125 81 197.5 209.5t72.5 277.5q0 227 -128 387t-327 252t-428.5 132t-439.5 40v-1110z" />
    <glyph glyph-name="fraction" unicode="&#x42a;" horiz-adv-x="3031" 
d="M680 2789q-113 0 -217 -32q-121 -40 -190.5 -81.5t-178.5 -131.5q-15 -13 -39 -35.5t-46 -36.5t-46 -14q-82 0 -82 94q0 18 6.5 48t6.5 46q3 9 26.5 113.5t55 171.5t77.5 67h701h573q148 0 148 -94q0 -49 -30 -67.5t-93 -34.5q-46 0 -95 -44t-49 -87v-820
q697 0 1110 -204q173 -85 316.5 -212.5t229 -293.5t85.5 -355q0 -216 -105 -381.5t-300 -265.5q-160 -83 -336 -111t-406 -28h-1065q-66 0 -104.5 18t-38.5 76q0 50 28.5 68.5t86.5 34.5q71 21 101 35.5t30 54.5v2277q0 115 -29 170t-131 55zM1208 528q0 -106 18 -164.5
t89 -97.5q102 -53 368 -53q179 0 318 25.5t260 101.5q125 81 197.5 209.5t72.5 277.5q0 227 -128 387t-327 252t-428.5 132t-439.5 40v-1110z" />
    <glyph glyph-name="currency" unicode="&#xdb;" horiz-adv-x="3604" 
d="M2863 2712q0 41 -32.5 55.5t-98.5 34.5q-64 23 -89.5 41t-25.5 65q0 60 39 75t109 15h565q143 0 143 -90q0 -46 -22.5 -64t-75.5 -38q-79 -24 -106 -47.5t-31 -54.5t-6 -140v-2273q0 -28 20 -45.5t50.5 -28t60.5 -20.5q57 -20 83.5 -38t26.5 -65q0 -59 -38.5 -76.5
t-108.5 -17.5h-565q-68 0 -108 18t-40 76q0 46 27 65t80 34q98 29 120.5 70t22.5 171v2278zM733 1851q199 -2 390 -19t374 -60.5t346 -124.5q173 -85 316.5 -212.5t229 -293.5t85.5 -355q0 -216 -105 -382t-301 -265q-158 -83 -334.5 -111t-406.5 -28h-1065q-66 0 -104.5 18
t-38.5 76q0 50 28 68t86 35q74 22 103 36t29 54v2277q0 130 -22 169.5t-114 72.5q-55 21 -76.5 38t-21.5 60q0 60 39 77t109 17h573q147 0 147 -94q0 -48 -29.5 -67t-92.5 -35q-144 -32 -144 -90v-861zM733 528q0 -106 18 -164.5t89 -97.5q102 -53 368 -53q179 0 318 25.5
t260 101.5q125 81 197.5 209.5t72.5 277.5q0 289 -203 471t-505 261t-615 79v-1110z" />
    <glyph glyph-name="currency" unicode="&#x42b;" horiz-adv-x="3604" 
d="M2863 2712q0 41 -32.5 55.5t-98.5 34.5q-64 23 -89.5 41t-25.5 65q0 60 39 75t109 15h565q143 0 143 -90q0 -46 -22.5 -64t-75.5 -38q-79 -24 -106 -47.5t-31 -54.5t-6 -140v-2273q0 -28 20 -45.5t50.5 -28t60.5 -20.5q57 -20 83.5 -38t26.5 -65q0 -59 -38.5 -76.5
t-108.5 -17.5h-565q-68 0 -108 18t-40 76q0 46 27 65t80 34q98 29 120.5 70t22.5 171v2278zM733 1851q199 -2 390 -19t374 -60.5t346 -124.5q173 -85 316.5 -212.5t229 -293.5t85.5 -355q0 -216 -105 -382t-301 -265q-158 -83 -334.5 -111t-406.5 -28h-1065q-66 0 -104.5 18
t-38.5 76q0 50 28 68t86 35q74 22 103 36t29 54v2277q0 130 -22 169.5t-114 72.5q-55 21 -76.5 38t-21.5 60q0 60 39 77t109 17h573q147 0 147 -94q0 -48 -29.5 -67t-92.5 -35q-144 -32 -144 -90v-861zM733 528q0 -106 18 -164.5t89 -97.5q102 -53 368 -53q179 0 318 25.5
t260 101.5q125 81 197.5 209.5t72.5 277.5q0 289 -203 471t-505 261t-615 79v-1110z" />
    <glyph glyph-name="guilsinglleft" unicode="&#xdc;" horiz-adv-x="2540" 
d="M733 1851q199 -2 390 -19t374 -60.5t346 -124.5q173 -85 316.5 -212.5t229 -293.5t85.5 -355q0 -216 -105 -382t-301 -265q-158 -83 -334.5 -111t-406.5 -28h-1065q-66 0 -104.5 18t-38.5 76q0 50 28 68t86 35q74 22 103 36t29 54v2277q0 130 -22 169.5t-114 72.5
q-55 21 -76.5 38t-21.5 60q0 60 39 77t109 17h573q147 0 147 -94q0 -48 -29.5 -67t-92.5 -35q-144 -32 -144 -90v-861zM733 528q0 -106 18 -164.5t89 -97.5q102 -53 368 -53q179 0 318 25.5t260 101.5q125 81 197.5 209.5t72.5 277.5q0 289 -203 471t-505 261t-615 79v-1110
z" />
    <glyph glyph-name="guilsinglleft" unicode="&#x42c;" horiz-adv-x="2540" 
d="M733 1851q199 -2 390 -19t374 -60.5t346 -124.5q173 -85 316.5 -212.5t229 -293.5t85.5 -355q0 -216 -105 -382t-301 -265q-158 -83 -334.5 -111t-406.5 -28h-1065q-66 0 -104.5 18t-38.5 76q0 50 28 68t86 35q74 22 103 36t29 54v2277q0 130 -22 169.5t-114 72.5
q-55 21 -76.5 38t-21.5 60q0 60 39 77t109 17h573q147 0 147 -94q0 -48 -29.5 -67t-92.5 -35q-144 -32 -144 -90v-861zM733 528q0 -106 18 -164.5t89 -97.5q102 -53 368 -53q179 0 318 25.5t260 101.5q125 81 197.5 209.5t72.5 277.5q0 289 -203 471t-505 261t-615 79v-1110
z" />
    <glyph glyph-name="guilsinglright" unicode="&#xdd;" horiz-adv-x="2949" 
d="M2372 1683q-43 410 -316 742q-174 215 -377 320.5t-467 105.5q-298 0 -528 -164q-113 -82 -177.5 -173.5t-141.5 -248.5q-13 -29 -30.5 -66.5t-40.5 -63.5t-52 -26q-103 0 -103 140v295q0 94 49 168q31 44 226 155q372 193 782 193q334 0 627.5 -134t513 -369.5
t340.5 -539.5t121 -633q0 -308 -116 -574.5t-323.5 -462t-479.5 -302t-576 -106.5q-430 0 -766 213q-67 39 -164.5 117.5t-171.5 165t-74 147.5q0 41 25.5 69.5t64.5 28.5q32 0 58.5 -17t55.5 -49t42 -45q200 -200 403.5 -298.5t460.5 -98.5q586 0 889 426
q121 173 187.5 405t66.5 455h-1483q-62 0 -94.5 32t-32.5 79q0 46 33.5 80t93.5 34h1475z" />
    <glyph glyph-name="guilsinglright" unicode="&#x42d;" horiz-adv-x="2949" 
d="M2372 1683q-43 410 -316 742q-174 215 -377 320.5t-467 105.5q-298 0 -528 -164q-113 -82 -177.5 -173.5t-141.5 -248.5q-13 -29 -30.5 -66.5t-40.5 -63.5t-52 -26q-103 0 -103 140v295q0 94 49 168q31 44 226 155q372 193 782 193q334 0 627.5 -134t513 -369.5
t340.5 -539.5t121 -633q0 -308 -116 -574.5t-323.5 -462t-479.5 -302t-576 -106.5q-430 0 -766 213q-67 39 -164.5 117.5t-171.5 165t-74 147.5q0 41 25.5 69.5t64.5 28.5q32 0 58.5 -17t55.5 -49t42 -45q200 -200 403.5 -298.5t460.5 -98.5q586 0 889 426
q121 173 187.5 405t66.5 455h-1483q-62 0 -94.5 32t-32.5 79q0 46 33.5 80t93.5 34h1475z" />
    <glyph glyph-name="fi" unicode="&#xde;" horiz-adv-x="4260" 
d="M1155 1520l-418 4v-1233q0 -28 20 -45.5t50.5 -28t60.5 -20.5q59 -20 85 -38t26 -65q0 -59 -39 -76.5t-109 -17.5h-565q-67 0 -107 18t-40 76q0 46 27 65t79 34q99 29 121.5 70t22.5 171v2273q0 44 -32.5 59.5t-98.5 35.5q-66 23 -92.5 40.5t-26.5 65.5q0 60 40.5 75
t110.5 15h566q143 0 143 -90q0 -46 -22.5 -64t-75.5 -38q-103 -34 -123.5 -73t-20.5 -169v-827l430 -4q39 283 156 523t306 421.5t442 282t550 100.5q203 0 395.5 -51.5t364.5 -151.5t314 -248q413 -424 413 -1122q0 -434 -192.5 -789t-540 -557t-782.5 -202
q-297 0 -564 110.5t-473 323.5q-401 425 -401 1110v37zM3437 586q253 351 253 880q0 165 -26 334.5t-84.5 329.5t-147.5 283q-144 201 -357 315.5t-454 114.5q-251 0 -462.5 -128.5t-352.5 -351.5q-233 -358 -233 -876q0 -540 254 -905q138 -201 342 -315.5t444 -114.5
q245 0 459.5 115t364.5 319z" />
    <glyph glyph-name="fi" unicode="&#x42e;" horiz-adv-x="4260" 
d="M1155 1520l-418 4v-1233q0 -28 20 -45.5t50.5 -28t60.5 -20.5q59 -20 85 -38t26 -65q0 -59 -39 -76.5t-109 -17.5h-565q-67 0 -107 18t-40 76q0 46 27 65t79 34q99 29 121.5 70t22.5 171v2273q0 44 -32.5 59.5t-98.5 35.5q-66 23 -92.5 40.5t-26.5 65.5q0 60 40.5 75
t110.5 15h566q143 0 143 -90q0 -46 -22.5 -64t-75.5 -38q-103 -34 -123.5 -73t-20.5 -169v-827l430 -4q39 283 156 523t306 421.5t442 282t550 100.5q203 0 395.5 -51.5t364.5 -151.5t314 -248q413 -424 413 -1122q0 -434 -192.5 -789t-540 -557t-782.5 -202
q-297 0 -564 110.5t-473 323.5q-401 425 -401 1110v37zM3437 586q253 351 253 880q0 165 -26 334.5t-84.5 329.5t-147.5 283q-144 201 -357 315.5t-454 114.5q-251 0 -462.5 -128.5t-352.5 -351.5q-233 -358 -233 -876q0 -540 254 -905q138 -201 342 -315.5t444 -114.5
q245 0 459.5 115t364.5 319z" />
    <glyph glyph-name="fl" unicode="&#xdf;" horiz-adv-x="2785" 
d="M2044 1286l-664 119q-99 -101 -255.5 -325t-272 -441t-115.5 -320q0 -51 26 -76t79 -49t78.5 -44.5t25.5 -63.5q0 -86 -164 -86h-606q-63 0 -101 15t-38 67q0 43 22 57.5t84 40.5q88 40 127.5 89t85.5 153q157 345 304.5 604t338.5 477q-295 134 -483 330.5t-188 476.5
q0 349 307 545q214 143 610 143h1274q70 0 108.5 -16.5t38.5 -77.5q0 -48 -28.5 -67t-89.5 -35q-72 -21 -103.5 -36.5t-31.5 -58.5v-2273q2 -109 6 -139.5t31 -54t106 -47.5q53 -20 77.5 -38t24.5 -65q0 -57 -40 -73.5t-107 -16.5h-549q-73 0 -112.5 16t-39.5 74
q0 48 19.5 62t87.5 45q35 11 62.5 20t46 25.5t18.5 44.5v999zM2044 2478q0 201 -74 254t-368 53q-857 0 -857 -524q0 -211 131 -352t329.5 -218.5t463.5 -125.5t375 -66v979z" />
    <glyph glyph-name="fl" unicode="&#x42f;" horiz-adv-x="2785" 
d="M2044 1286l-664 119q-99 -101 -255.5 -325t-272 -441t-115.5 -320q0 -51 26 -76t79 -49t78.5 -44.5t25.5 -63.5q0 -86 -164 -86h-606q-63 0 -101 15t-38 67q0 43 22 57.5t84 40.5q88 40 127.5 89t85.5 153q157 345 304.5 604t338.5 477q-295 134 -483 330.5t-188 476.5
q0 349 307 545q214 143 610 143h1274q70 0 108.5 -16.5t38.5 -77.5q0 -48 -28.5 -67t-89.5 -35q-72 -21 -103.5 -36.5t-31.5 -58.5v-2273q2 -109 6 -139.5t31 -54t106 -47.5q53 -20 77.5 -38t24.5 -65q0 -57 -40 -73.5t-107 -16.5h-549q-73 0 -112.5 16t-39.5 74
q0 48 19.5 62t87.5 45q35 11 62.5 20t46 25.5t18.5 44.5v999zM2044 2478q0 201 -74 254t-368 53q-857 0 -857 -524q0 -211 131 -352t329.5 -218.5t463.5 -125.5t375 -66v979z" />
    <glyph glyph-name="daggerdbl" unicode="&#xe0;" horiz-adv-x="2048" 
d="M1757 504q0 -201 29 -262q28 -43 106 -66q86 -23 86 -86q0 -58 -45 -74t-118 -16h-181q-68 0 -100 19.5t-41.5 63.5t-9.5 138v103q-244 -385 -684 -385q-185 0 -344 66.5t-256 198t-97 320.5q0 357 349 578q291 188 745 188l250 -12q-10 148 -90 259t-207 171.5
t-272 60.5q-114 0 -185 -22.5t-180 -87.5q-36 -23 -62.5 -39.5t-58 -27.5t-63.5 -11q-115 0 -115 102q0 90 164 177q225 106 500 106q372 0 618 -192q262 -207 262 -611v-659zM1266 1106q-192 0 -385 -55.5t-322 -181.5t-129 -324q0 -167 107 -262q126 -115 294 -115
q122 0 246 41.5t209 114.5q97 82 130.5 185t33.5 253v332z" />
    <glyph glyph-name="daggerdbl" unicode="&#x430;" horiz-adv-x="2048" 
d="M1757 504q0 -201 29 -262q28 -43 106 -66q86 -23 86 -86q0 -58 -45 -74t-118 -16h-181q-68 0 -100 19.5t-41.5 63.5t-9.5 138v103q-244 -385 -684 -385q-185 0 -344 66.5t-256 198t-97 320.5q0 357 349 578q291 188 745 188l250 -12q-10 148 -90 259t-207 171.5
t-272 60.5q-114 0 -185 -22.5t-180 -87.5q-36 -23 -62.5 -39.5t-58 -27.5t-63.5 -11q-115 0 -115 102q0 90 164 177q225 106 500 106q372 0 618 -192q262 -207 262 -611v-659zM1266 1106q-192 0 -385 -55.5t-322 -181.5t-129 -324q0 -167 107 -262q126 -115 294 -115
q122 0 246 41.5t209 114.5q97 82 130.5 185t33.5 253v332z" />
    <glyph glyph-name="periodcentered" unicode="&#xe1;" horiz-adv-x="2294" 
d="M381 1589q95 106 220 192t267.5 135.5t282.5 49.5q271 0 506 -133.5t372.5 -364t137.5 -501.5q0 -287 -137 -523t-376.5 -370.5t-523.5 -134.5q-276 0 -506 140.5t-363.5 390.5t-133.5 562q0 315 50.5 589.5t144 470.5t219.5 304q135 116 291.5 167.5t395.5 96t349 88.5
q142 56 188 205q20 62 99 62q37 0 61.5 -19t24.5 -55q0 -168 -121 -318t-330 -206l-549 -148q-281 -72 -425 -267.5t-144 -412.5zM1667 406q172 222 172 565q0 214 -81 396t-239 290t-376 108q-227 0 -382.5 -116t-230.5 -305t-75 -410q0 -336 178 -565.5t502 -229.5
q154 0 295.5 70.5t236.5 196.5z" />
    <glyph glyph-name="periodcentered" unicode="&#x431;" horiz-adv-x="2294" 
d="M381 1589q95 106 220 192t267.5 135.5t282.5 49.5q271 0 506 -133.5t372.5 -364t137.5 -501.5q0 -287 -137 -523t-376.5 -370.5t-523.5 -134.5q-276 0 -506 140.5t-363.5 390.5t-133.5 562q0 315 50.5 589.5t144 470.5t219.5 304q135 116 291.5 167.5t395.5 96t349 88.5
q142 56 188 205q20 62 99 62q37 0 61.5 -19t24.5 -55q0 -168 -121 -318t-330 -206l-549 -148q-281 -72 -425 -267.5t-144 -412.5zM1667 406q172 222 172 565q0 214 -81 396t-239 290t-376 108q-227 0 -382.5 -116t-230.5 -305t-75 -410q0 -336 178 -565.5t502 -229.5
q154 0 295.5 70.5t236.5 196.5z" />
    <glyph glyph-name="quotesinglbase" unicode="&#xe2;" horiz-adv-x="2048" 
d="M115 86q0 75 98 94q111 25 111 119v1339q0 55 -31.5 87.5t-67.5 35.5q-110 8 -110 90q0 59 29.5 72.5t101.5 13.5h975q252 0 393 -77h4q96 -57 154.5 -148.5t58.5 -200.5q0 -264 -373 -446q216 -49 366 -186t150 -342q0 -250 -258 -414q-201 -123 -532 -123h-942
q-127 0 -127 86zM672 209q49 -25 295 -25q295 0 454 74q209 100 209 283q0 168 -141.5 269.5t-345.5 135.5l-512 -110v-476q0 -131 41 -151zM1315 1241q74 49 123 119t49 139q0 166 -129.5 208t-366.5 42q-274 0 -327 -29q-33 -16 -33 -155v-521q293 58 439.5 94.5
t244.5 102.5z" />
    <glyph glyph-name="quotesinglbase" unicode="&#x432;" horiz-adv-x="2048" 
d="M115 86q0 75 98 94q111 25 111 119v1339q0 55 -31.5 87.5t-67.5 35.5q-110 8 -110 90q0 59 29.5 72.5t101.5 13.5h975q252 0 393 -77h4q96 -57 154.5 -148.5t58.5 -200.5q0 -264 -373 -446q216 -49 366 -186t150 -342q0 -250 -258 -414q-201 -123 -532 -123h-942
q-127 0 -127 86zM672 209q49 -25 295 -25q295 0 454 74q209 100 209 283q0 168 -141.5 269.5t-345.5 135.5l-512 -110v-476q0 -131 41 -151zM1315 1241q74 49 123 119t49 139q0 166 -129.5 208t-366.5 42q-274 0 -327 -29q-33 -16 -33 -155v-521q293 58 439.5 94.5
t244.5 102.5z" />
    <glyph glyph-name="quotedblbase" unicode="&#xe3;" horiz-adv-x="1634" 
d="M733 184q54 -13 80.5 -29.5t26.5 -68.5q0 -86 -127 -86h-480q-63 0 -90.5 16t-27.5 70q0 85 98 94q42 3 76.5 36.5t34.5 82.5v1319q0 69 -29 101.5t-102 41.5q-72 9 -78 82q0 94 82 94h1319q59 0 73 -24q22 -32 46 -136t24 -147q0 -31 -21.5 -56.5t-56.5 -25.5
q-22 0 -40 8t-39 27t-27 23q-107 81 -209 110q-115 33 -512 33q-75 0 -99 -39.5t-24 -107.5v-1303q0 -82 102 -115z" />
    <glyph glyph-name="quotedblbase" unicode="&#x433;" horiz-adv-x="1634" 
d="M733 184q54 -13 80.5 -29.5t26.5 -68.5q0 -86 -127 -86h-480q-63 0 -90.5 16t-27.5 70q0 85 98 94q42 3 76.5 36.5t34.5 82.5v1319q0 69 -29 101.5t-102 41.5q-72 9 -78 82q0 94 82 94h1319q59 0 73 -24q22 -32 46 -136t24 -147q0 -31 -21.5 -56.5t-56.5 -25.5
q-22 0 -40 8t-39 27t-27 23q-107 81 -209 110q-115 33 -512 33q-75 0 -99 -39.5t-24 -107.5v-1303q0 -82 102 -115z" />
    <glyph glyph-name="perthousand" unicode="&#xe4;" horiz-adv-x="2130" 
d="M1987 160q40 -43 58.5 -136.5t18.5 -142.5q0 -30 -21 -56t-56 -26q-23 0 -44.5 10t-36.5 23t-30 25q-102 77 -201.5 110t-240.5 33h-844q-271 0 -451 -147q-16 -14 -35 -29.5t-37.5 -24t-41.5 -8.5q-38 0 -62 27t-24 63q0 90 23.5 194t103.5 109q106 7 135 103
q234 807 561 1364q8 16 8 28q0 31 -26 54.5t-60 23.5q-40 0 -73 24.5t-33 69.5q0 86 131 86h1179q127 0 127 -86q0 -65 -90 -102q-65 -25 -87.5 -41t-22.5 -70v-1359q0 -52 24.5 -66.5t76 -23t71.5 -29.5zM1397 184q47 0 78.5 34t31.5 81v1348q0 98 -110 98h-271
q-44 0 -110 -82q-138 -182 -266 -470.5t-205.5 -555t-77.5 -379.5q0 -74 106 -74h824z" />
    <glyph glyph-name="perthousand" unicode="&#x434;" horiz-adv-x="2130" 
d="M1987 160q40 -43 58.5 -136.5t18.5 -142.5q0 -30 -21 -56t-56 -26q-23 0 -44.5 10t-36.5 23t-30 25q-102 77 -201.5 110t-240.5 33h-844q-271 0 -451 -147q-16 -14 -35 -29.5t-37.5 -24t-41.5 -8.5q-38 0 -62 27t-24 63q0 90 23.5 194t103.5 109q106 7 135 103
q234 807 561 1364q8 16 8 28q0 31 -26 54.5t-60 23.5q-40 0 -73 24.5t-33 69.5q0 86 131 86h1179q127 0 127 -86q0 -65 -90 -102q-65 -25 -87.5 -41t-22.5 -70v-1359q0 -52 24.5 -66.5t76 -23t71.5 -29.5zM1397 184q47 0 78.5 34t31.5 81v1348q0 98 -110 98h-271
q-44 0 -110 -82q-138 -182 -266 -470.5t-205.5 -555t-77.5 -379.5q0 -74 106 -74h824z" />
    <glyph glyph-name="Acircumflex" unicode="&#xe5;" horiz-adv-x="2048" 
d="M463 713q45 -246 236 -393.5t444 -147.5q154 0 271.5 48t209.5 127t140 124t83 45q32 0 55 -21.5t23 -52.5q0 -75 -82.5 -164t-175.5 -151q-278 -188 -590 -188q-266 0 -487.5 119.5t-350 332.5t-128.5 481q0 296 144.5 548t394.5 399t546 147q249 0 418 -106
q111 -70 182.5 -180.5t71.5 -233.5q0 -373 -492 -561q-174 -68 -338 -96t-493 -68zM446 901q275 27 499 72t409.5 165t185.5 328q0 155 -103.5 233.5t-260.5 78.5q-241 0 -407.5 -119.5t-248.5 -320.5t-82 -437h8z" />
    <glyph glyph-name="Acircumflex" unicode="&#x435;" horiz-adv-x="2048" 
d="M463 713q45 -246 236 -393.5t444 -147.5q154 0 271.5 48t209.5 127t140 124t83 45q32 0 55 -21.5t23 -52.5q0 -75 -82.5 -164t-175.5 -151q-278 -188 -590 -188q-266 0 -487.5 119.5t-350 332.5t-128.5 481q0 296 144.5 548t394.5 399t546 147q249 0 418 -106
q111 -70 182.5 -180.5t71.5 -233.5q0 -373 -492 -561q-174 -68 -338 -96t-493 -68zM446 901q275 27 499 72t409.5 165t185.5 328q0 155 -103.5 233.5t-260.5 78.5q-241 0 -407.5 -119.5t-248.5 -320.5t-82 -437h8z" />
    <glyph glyph-name="Ecircumflex" unicode="&#xe6;" horiz-adv-x="2949" 
d="M1229 0q-42 0 -74.5 26.5t-32.5 67.5q0 50 74 90q64 0 98 62q29 61 29 262v209l-303 287q-75 -67 -189 -218t-198 -303.5t-84 -232.5q0 -27 14.5 -41t49.5 -34.5t53 -40t18 -52.5q0 -82 -115 -82h-467q-59 0 -80.5 15.5t-21.5 74.5q0 58 74 94q48 25 69.5 47.5t49.5 75.5
q177 302 320.5 505t326.5 376l-54 53l-163 209q-159 168 -210.5 216.5t-166.5 98.5q-94 40 -94 107q0 44 26.5 54.5t79.5 10.5h479q99 0 99 -61q0 -38 -58 -82q-61 -46 -61 -94q0 -119 221.5 -369t384.5 -377v476q0 200 -29 262q-33 61 -98 61q-45 28 -59.5 41t-14.5 49
q0 43 31 68.5t76 25.5h495q45 0 76 -25.5t31 -68.5q0 -48 -74 -90q-65 0 -98 -61q-29 -62 -29 -262v-476q168 130 387 377t219 369q0 48 -61 94q-57 43 -57 82q0 61 98 61h479q53 0 80 -10.5t27 -54.5q0 -67 -95 -107q-64 -28 -109.5 -58t-86 -68t-90.5 -92t-90 -97
l-164 -209l-53 -53q185 -174 330 -381t317 -500q32 -57 50 -77t68 -46q74 -36 74 -94q0 -59 -21.5 -74.5t-80.5 -15.5h-467q-115 0 -115 82q0 31 17.5 51t52 40t50 34t15.5 43q0 78 -83.5 231t-197 304.5t-190.5 218.5l-303 -287v-209q0 -201 29 -262q34 -62 98 -62
q74 -40 74 -90q0 -42 -32 -68t-75 -26h-495z" />
    <glyph glyph-name="Ecircumflex" unicode="&#x436;" horiz-adv-x="2949" 
d="M1229 0q-42 0 -74.5 26.5t-32.5 67.5q0 50 74 90q64 0 98 62q29 61 29 262v209l-303 287q-75 -67 -189 -218t-198 -303.5t-84 -232.5q0 -27 14.5 -41t49.5 -34.5t53 -40t18 -52.5q0 -82 -115 -82h-467q-59 0 -80.5 15.5t-21.5 74.5q0 58 74 94q48 25 69.5 47.5t49.5 75.5
q177 302 320.5 505t326.5 376l-54 53l-163 209q-159 168 -210.5 216.5t-166.5 98.5q-94 40 -94 107q0 44 26.5 54.5t79.5 10.5h479q99 0 99 -61q0 -38 -58 -82q-61 -46 -61 -94q0 -119 221.5 -369t384.5 -377v476q0 200 -29 262q-33 61 -98 61q-45 28 -59.5 41t-14.5 49
q0 43 31 68.5t76 25.5h495q45 0 76 -25.5t31 -68.5q0 -48 -74 -90q-65 0 -98 -61q-29 -62 -29 -262v-476q168 130 387 377t219 369q0 48 -61 94q-57 43 -57 82q0 61 98 61h479q53 0 80 -10.5t27 -54.5q0 -67 -95 -107q-64 -28 -109.5 -58t-86 -68t-90.5 -92t-90 -97
l-164 -209l-53 -53q185 -174 330 -381t317 -500q32 -57 50 -77t68 -46q74 -36 74 -94q0 -59 -21.5 -74.5t-80.5 -15.5h-467q-115 0 -115 82q0 31 17.5 51t52 40t50 34t15.5 43q0 78 -83.5 231t-197 304.5t-190.5 218.5l-303 -287v-209q0 -201 29 -262q34 -62 98 -62
q74 -40 74 -90q0 -42 -32 -68t-75 -26h-495z" />
    <glyph glyph-name="Aacute" unicode="&#xe7;" horiz-adv-x="1638" 
d="M479 1028q0 54 43 76t154 22q321 0 442 111q103 97 103 233q0 76 -44.5 150t-134.5 120t-215 46q-179 0 -276.5 -63.5t-179 -162t-121.5 -98.5q-82 0 -111 135q-8 42 -8 74q0 86 62 127q248 168 659 168q284 0 486 -139.5t202 -360.5q0 -158 -107.5 -268.5t-277.5 -153.5
q200 -35 337.5 -166.5t137.5 -324.5q0 -131 -70 -250t-180 -197q-230 -159 -589 -159q-225 0 -435.5 112.5t-306.5 300.5q-20 48 -20 86q0 91 73 91q68 0 103 -31t94 -137q61 -106 193 -174t282 -68q143 0 264 46t195 139.5t74 228.5q0 186 -120.5 293.5t-334.5 107.5h-242
q-131 0 -131 86z" />
    <glyph glyph-name="Aacute" unicode="&#x437;" horiz-adv-x="1638" 
d="M479 1028q0 54 43 76t154 22q321 0 442 111q103 97 103 233q0 76 -44.5 150t-134.5 120t-215 46q-179 0 -276.5 -63.5t-179 -162t-121.5 -98.5q-82 0 -111 135q-8 42 -8 74q0 86 62 127q248 168 659 168q284 0 486 -139.5t202 -360.5q0 -158 -107.5 -268.5t-277.5 -153.5
q200 -35 337.5 -166.5t137.5 -324.5q0 -131 -70 -250t-180 -197q-230 -159 -589 -159q-225 0 -435.5 112.5t-306.5 300.5q-20 48 -20 86q0 91 73 91q68 0 103 -31t94 -137q61 -106 193 -174t282 -68q143 0 264 46t195 139.5t74 228.5q0 186 -120.5 293.5t-334.5 107.5h-242
q-131 0 -131 86z" />
    <glyph glyph-name="Edieresis" unicode="&#xe8;" horiz-adv-x="2294" 
d="M1688 1389l-1057 -1016v-78q0 -57 43.5 -86t83.5 -29q82 -29 82 -86q0 -42 -30.5 -68t-76.5 -26h-454q-94 0 -129 18t-35 76q0 54 73 82q41 0 88.5 29t47.5 90v1347q0 61 -47.5 90t-88.5 29q-73 30 -73 82q0 59 35 76.5t129 17.5h454q45 0 76 -25.5t31 -68.5
q0 -55 -82 -86q-39 0 -83 -29t-44 -86v-1015l1057 1015q0 95 -132 123q-69 19 -69 78q0 61 33.5 77.5t121.5 16.5h451q41 0 71.5 -25.5t30.5 -68.5q0 -49 -73 -86q-18 -7 -50 -19t-54.5 -34t-22.5 -62v-1347q0 -29 12.5 -48.5t35.5 -34t41.5 -20.5t37.5 -12q73 -21 73 -86
q0 -42 -30 -68t-72 -26h-451q-75 0 -115 16.5t-40 77.5q0 33 20.5 56t48.5 26q44 5 88 33t44 86v1094z" />
    <glyph glyph-name="Edieresis" unicode="&#x438;" horiz-adv-x="2294" 
d="M1688 1389l-1057 -1016v-78q0 -57 43.5 -86t83.5 -29q82 -29 82 -86q0 -42 -30.5 -68t-76.5 -26h-454q-94 0 -129 18t-35 76q0 54 73 82q41 0 88.5 29t47.5 90v1347q0 61 -47.5 90t-88.5 29q-73 30 -73 82q0 59 35 76.5t129 17.5h454q45 0 76 -25.5t31 -68.5
q0 -55 -82 -86q-39 0 -83 -29t-44 -86v-1015l1057 1015q0 95 -132 123q-69 19 -69 78q0 61 33.5 77.5t121.5 16.5h451q41 0 71.5 -25.5t30.5 -68.5q0 -49 -73 -86q-18 -7 -50 -19t-54.5 -34t-22.5 -62v-1347q0 -29 12.5 -48.5t35.5 -34t41.5 -20.5t37.5 -12q73 -21 73 -86
q0 -42 -30 -68t-72 -26h-451q-75 0 -115 16.5t-40 77.5q0 33 20.5 56t48.5 26q44 5 88 33t44 86v1094z" />
    <glyph glyph-name="Egrave" unicode="&#xe9;" horiz-adv-x="2294" 
d="M1733 2646q0 -122 -103 -250q-169 -213 -459 -213q-250 0 -421 144q-74 60 -135.5 150.5t-61.5 168.5q0 38 24.5 66t61.5 28q34 0 68.5 -49t93 -126.5t148 -125t227.5 -47.5q98 0 200 57.5t160 143.5q41 69 64.5 98t66.5 29q66 0 66 -74zM1688 1389l-1057 -1016v-78
q0 -57 43.5 -86t83.5 -29q82 -29 82 -86q0 -42 -30.5 -68t-76.5 -26h-454q-94 0 -129 18t-35 76q0 54 73 82q41 0 88.5 29t47.5 90v1347q0 61 -47.5 90t-88.5 29q-73 30 -73 82q0 59 35 76.5t129 17.5h454q45 0 76 -25.5t31 -68.5q0 -55 -82 -86q-39 0 -83 -29t-44 -86
v-1015l1057 1015q0 95 -132 123q-69 19 -69 78q0 61 33.5 77.5t121.5 16.5h451q41 0 71.5 -25.5t30.5 -68.5q0 -49 -73 -86q-18 -7 -50 -19t-54.5 -34t-22.5 -62v-1347q0 -29 12.5 -48.5t35.5 -34t41.5 -20.5t37.5 -12q73 -21 73 -86q0 -42 -30 -68t-72 -26h-451
q-75 0 -115 16.5t-40 77.5q0 33 20.5 56t48.5 26q44 5 88 33t44 86v1094z" />
    <glyph glyph-name="Egrave" unicode="&#x439;" horiz-adv-x="2294" 
d="M1733 2646q0 -122 -103 -250q-169 -213 -459 -213q-250 0 -421 144q-74 60 -135.5 150.5t-61.5 168.5q0 38 24.5 66t61.5 28q34 0 68.5 -49t93 -126.5t148 -125t227.5 -47.5q98 0 200 57.5t160 143.5q41 69 64.5 98t66.5 29q66 0 66 -74zM1688 1389l-1057 -1016v-78
q0 -57 43.5 -86t83.5 -29q82 -29 82 -86q0 -42 -30.5 -68t-76.5 -26h-454q-94 0 -129 18t-35 76q0 54 73 82q41 0 88.5 29t47.5 90v1347q0 61 -47.5 90t-88.5 29q-73 30 -73 82q0 59 35 76.5t129 17.5h454q45 0 76 -25.5t31 -68.5q0 -55 -82 -86q-39 0 -83 -29t-44 -86
v-1015l1057 1015q0 95 -132 123q-69 19 -69 78q0 61 33.5 77.5t121.5 16.5h451q41 0 71.5 -25.5t30.5 -68.5q0 -49 -73 -86q-18 -7 -50 -19t-54.5 -34t-22.5 -62v-1347q0 -29 12.5 -48.5t35.5 -34t41.5 -20.5t37.5 -12q73 -21 73 -86q0 -42 -30 -68t-72 -26h-451
q-75 0 -115 16.5t-40 77.5q0 33 20.5 56t48.5 26q44 5 88 33t44 86v1094z" />
    <glyph glyph-name="Iacute" unicode="&#xea;" horiz-adv-x="2048" 
d="M623 954q729 564 729 746q0 47 -62 94q-57 43 -57 82q0 61 98 61h479q54 0 80.5 -10.5t26.5 -54.5q0 -67 -94 -107q-64 -28 -111 -59t-86.5 -68t-89.5 -91t-90 -97l-205 -209l-53 -53q381 -358 688 -881q32 -57 51.5 -77.5t67.5 -45.5q73 -36 73 -94q0 -59 -21 -74.5
t-81 -15.5h-467q-115 0 -115 82q0 31 18 51.5t52.5 40t50 33.5t15.5 43q0 116 -202 373t-343 381l-352 -287v-209q0 -201 28 -262q35 -62 99 -62q73 -41 73 -90q0 -42 -30.5 -68t-75.5 -26h-471q-66 0 -103 18.5t-37 75.5t74 86q68 0 107 58q28 37 28 172v98v922
q0 221 -28 270q-43 57 -107 57q-74 31 -74 86q0 94 140 94h471q44 0 75 -25.5t31 -68.5q0 -47 -73 -90q-64 0 -99 -61q-28 -62 -28 -262v-476z" />
    <glyph glyph-name="Iacute" unicode="&#x43a;" horiz-adv-x="2048" 
d="M623 954q729 564 729 746q0 47 -62 94q-57 43 -57 82q0 61 98 61h479q54 0 80.5 -10.5t26.5 -54.5q0 -67 -94 -107q-64 -28 -111 -59t-86.5 -68t-89.5 -91t-90 -97l-205 -209l-53 -53q381 -358 688 -881q32 -57 51.5 -77.5t67.5 -45.5q73 -36 73 -94q0 -59 -21 -74.5
t-81 -15.5h-467q-115 0 -115 82q0 31 18 51.5t52.5 40t50 33.5t15.5 43q0 116 -202 373t-343 381l-352 -287v-209q0 -201 28 -262q35 -62 99 -62q73 -41 73 -90q0 -42 -30.5 -68t-75.5 -26h-471q-66 0 -103 18.5t-37 75.5t74 86q68 0 107 58q28 37 28 172v98v922
q0 221 -28 270q-43 57 -107 57q-74 31 -74 86q0 94 140 94h471q44 0 75 -25.5t31 -68.5q0 -47 -73 -90q-64 0 -99 -61q-28 -62 -28 -262v-476z" />
    <glyph glyph-name="Icircumflex" unicode="&#xeb;" horiz-adv-x="2048" 
d="M598 1757q-102 17 -102 94q5 86 131 86h1192q114 0 114 -86q0 -67 -86 -98q-58 -19 -86 -42t-28 -73v-1339q0 -51 22 -68t92 -47q86 -35 86 -98q0 -41 -34 -63.5t-84 -22.5h-467q-65 0 -96 17.5t-31 68.5q0 40 21 58.5t69 31.5q114 34 114 123v1331q0 115 -122 115h-209
q-109 0 -172 -94q-146 -209 -268 -488.5t-193.5 -523.5t-71.5 -336q0 -48 23 -70t72 -43t71.5 -41.5t22.5 -66.5q0 -39 -40 -60.5t-79 -21.5h-373q-30 0 -62 20.5t-32 65.5q0 47 57 86q46 30 57 74q84 297 160 508t168.5 411t233.5 469q16 34 16 49q0 58 -86 74z" />
    <glyph glyph-name="Icircumflex" unicode="&#x43b;" horiz-adv-x="2048" 
d="M598 1757q-102 17 -102 94q5 86 131 86h1192q114 0 114 -86q0 -67 -86 -98q-58 -19 -86 -42t-28 -73v-1339q0 -51 22 -68t92 -47q86 -35 86 -98q0 -41 -34 -63.5t-84 -22.5h-467q-65 0 -96 17.5t-31 68.5q0 40 21 58.5t69 31.5q114 34 114 123v1331q0 115 -122 115h-209
q-109 0 -172 -94q-146 -209 -268 -488.5t-193.5 -523.5t-71.5 -336q0 -48 23 -70t72 -43t71.5 -41.5t22.5 -66.5q0 -39 -40 -60.5t-79 -21.5h-373q-30 0 -62 20.5t-32 65.5q0 47 57 86q46 30 57 74q84 297 160 508t168.5 411t233.5 469q16 34 16 49q0 58 -86 74z" />
    <glyph glyph-name="Idieresis" unicode="&#xec;" horiz-adv-x="2540" 
d="M1823 1810q31 71 56 99t87 28h356q38 0 70.5 -23.5t32.5 -74.5q0 -20 -9 -35t-22.5 -24t-35.5 -18t-31 -13q-59 -26 -81 -43.5t-22 -79.5v-1327q0 -73 90 -106q62 -24 86.5 -38.5t24.5 -68.5q0 -86 -131 -86h-475q-119 0 -119 82q0 79 78 94q139 26 139 123v1221
l-561 -1147q-9 -21 -23.5 -52t-37.5 -53t-58 -22q-85 0 -147 135l-558 1139v-1201q0 -68 28 -93.5t87 -45.5q59 -17 87 -33.5t28 -64.5q0 -82 -103 -82h-417q-67 0 -97 14.5t-30 71.5q0 67 86 90q68 23 97.5 44.5t29.5 98.5v1307q0 68 -27 93t-81.5 37.5t-79.5 28t-25 66.5
q0 49 21.5 67.5t80.5 18.5h356q75 0 106 -26.5t75 -124.5l528 -1106z" />
    <glyph glyph-name="Idieresis" unicode="&#x43c;" horiz-adv-x="2540" 
d="M1823 1810q31 71 56 99t87 28h356q38 0 70.5 -23.5t32.5 -74.5q0 -20 -9 -35t-22.5 -24t-35.5 -18t-31 -13q-59 -26 -81 -43.5t-22 -79.5v-1327q0 -73 90 -106q62 -24 86.5 -38.5t24.5 -68.5q0 -86 -131 -86h-475q-119 0 -119 82q0 79 78 94q139 26 139 123v1221
l-561 -1147q-9 -21 -23.5 -52t-37.5 -53t-58 -22q-85 0 -147 135l-558 1139v-1201q0 -68 28 -93.5t87 -45.5q59 -17 87 -33.5t28 -64.5q0 -82 -103 -82h-417q-67 0 -97 14.5t-30 71.5q0 67 86 90q68 23 97.5 44.5t29.5 98.5v1307q0 68 -27 93t-81.5 37.5t-79.5 28t-25 66.5
q0 49 21.5 67.5t80.5 18.5h356q75 0 106 -26.5t75 -124.5l528 -1106z" />
    <glyph glyph-name="Igrave" unicode="&#xed;" horiz-adv-x="2294" 
d="M1688 942h-1057v-647q0 -57 43.5 -86t83.5 -29q82 -29 82 -86q0 -42 -30.5 -68t-76.5 -26h-479q-83 0 -111 17.5t-28 76.5q0 54 73 82q41 0 88.5 29t47.5 90v1347q0 61 -47.5 90t-88.5 29q-73 30 -73 82q0 59 35 76.5t129 17.5h454q45 0 76 -25.5t31 -68.5q0 -55 -82 -86
q-39 0 -83 -29t-44 -86v-520h1057v520q0 59 -46.5 89t-85.5 30q-69 29 -69 82q0 60 31.5 77t123.5 17h451q41 0 71.5 -25.5t30.5 -68.5q0 -49 -73 -86q-18 -7 -50 -19t-54.5 -34t-22.5 -62v-1347q0 -29 12.5 -48.5t35.5 -34t41.5 -20.5t37.5 -12q73 -21 73 -86
q0 -42 -30 -68t-72 -26h-451q-75 0 -115 16.5t-40 77.5q0 54 69 82q40 0 86 30t46 89v647z" />
    <glyph glyph-name="Igrave" unicode="&#x43d;" horiz-adv-x="2294" 
d="M1688 942h-1057v-647q0 -57 43.5 -86t83.5 -29q82 -29 82 -86q0 -42 -30.5 -68t-76.5 -26h-479q-83 0 -111 17.5t-28 76.5q0 54 73 82q41 0 88.5 29t47.5 90v1347q0 61 -47.5 90t-88.5 29q-73 30 -73 82q0 59 35 76.5t129 17.5h454q45 0 76 -25.5t31 -68.5q0 -55 -82 -86
q-39 0 -83 -29t-44 -86v-520h1057v520q0 59 -46.5 89t-85.5 30q-69 29 -69 82q0 60 31.5 77t123.5 17h451q41 0 71.5 -25.5t30.5 -68.5q0 -49 -73 -86q-18 -7 -50 -19t-54.5 -34t-22.5 -62v-1347q0 -29 12.5 -48.5t35.5 -34t41.5 -20.5t37.5 -12q73 -21 73 -86
q0 -42 -30 -68t-72 -26h-451q-75 0 -115 16.5t-40 77.5q0 54 69 82q40 0 86 30t46 89v647z" />
    <glyph glyph-name="Oacute" unicode="&#xee;" horiz-adv-x="2294" 
d="M2167 967q0 -287 -137 -523t-376.5 -370.5t-523.5 -134.5q-273 0 -504 136t-365 368.5t-134 506.5q0 270 140.5 505.5t377 373t506.5 137.5q271 0 506 -133.5t372.5 -364t137.5 -501.5zM1667 406q172 222 172 565q0 214 -81 396t-239 290t-376 108q-227 0 -382.5 -116
t-230.5 -305t-75 -410q0 -336 178 -565.5t502 -229.5q154 0 295.5 70.5t236.5 196.5z" />
    <glyph glyph-name="Oacute" unicode="&#x43e;" horiz-adv-x="2294" 
d="M2167 967q0 -287 -137 -523t-376.5 -370.5t-523.5 -134.5q-273 0 -504 136t-365 368.5t-134 506.5q0 270 140.5 505.5t377 373t506.5 137.5q271 0 506 -133.5t372.5 -364t137.5 -501.5zM1667 406q172 222 172 565q0 214 -81 396t-239 290t-376 108q-227 0 -382.5 -116
t-230.5 -305t-75 -410q0 -336 178 -565.5t502 -229.5q154 0 295.5 70.5t236.5 196.5z" />
    <glyph glyph-name="Ocircumflex" unicode="&#xef;" horiz-adv-x="2294" 
d="M758 1757q-39 0 -83 -29t-44 -86v-1347q0 -57 43.5 -86t83.5 -29q82 -29 82 -86q0 -42 -30.5 -68t-76.5 -26h-454q-94 0 -129 18t-35 76q0 54 73 82q41 0 88.5 29t47.5 90v1347q0 61 -47.5 90t-88.5 29q-73 30 -73 82q0 59 35 76.5t129 17.5h1814q41 0 71.5 -25.5
t30.5 -68.5q0 -49 -73 -86q-18 -7 -50 -19t-54.5 -34t-22.5 -62v-1347q0 -39 22 -61t49.5 -32.5t55.5 -21.5q73 -36 73 -86q0 -42 -30 -68t-72 -26h-451q-92 0 -123.5 17.5t-31.5 76.5q0 54 69 82q40 0 86 30t46 89v1347q0 59 -46.5 89t-85.5 30q-10 0 -395 -2t-403 -2z" />
    <glyph glyph-name="Ocircumflex" unicode="&#x43f;" horiz-adv-x="2294" 
d="M758 1757q-39 0 -83 -29t-44 -86v-1347q0 -57 43.5 -86t83.5 -29q82 -29 82 -86q0 -42 -30.5 -68t-76.5 -26h-454q-94 0 -129 18t-35 76q0 54 73 82q41 0 88.5 29t47.5 90v1347q0 61 -47.5 90t-88.5 29q-73 30 -73 82q0 59 35 76.5t129 17.5h1814q41 0 71.5 -25.5
t30.5 -68.5q0 -49 -73 -86q-18 -7 -50 -19t-54.5 -34t-22.5 -62v-1347q0 -39 22 -61t49.5 -32.5t55.5 -21.5q73 -36 73 -86q0 -42 -30 -68t-72 -26h-451q-92 0 -123.5 17.5t-31.5 76.5q0 54 69 82q40 0 86 30t46 89v1347q0 59 -46.5 89t-85.5 30q-10 0 -395 -2t-403 -2z" />
    <glyph glyph-name="apple" unicode="&#xf0;" horiz-adv-x="2376" 
d="M696 -303q0 -201 29 -262q15 -28 98 -66q78 -30 78 -86q0 -54 -22.5 -70t-79.5 -16h-492q-65 0 -89.5 14t-24.5 72q0 51 65 86q80 0 105.5 78.5t25.5 208.5v1663q0 168 -30.5 249t-141.5 95q-13 3 -34 6t-40 10.5t-30 20t-11 33.5q0 72 139 152.5t218 80.5
q61 0 101.5 -33.5t64 -85.5t40.5 -121.5t27 -111.5q156 176 313.5 264t366.5 88q381 0 639 -291q234 -267 234 -692q0 -454 -234 -721q-131 -152 -325.5 -237.5t-395.5 -85.5q-123 0 -297 57.5t-174 155.5q0 34 21 64t53 30q35 0 86 -29q146 -70 336 -70q126 0 249.5 67
t196.5 171q156 225 156 565q0 327 -145.5 553t-456.5 226q-256 0 -434 -160q-105 -95 -145 -205.5t-40 -265.5v-1401z" />
    <glyph glyph-name="apple" unicode="&#x440;" horiz-adv-x="2376" 
d="M696 -303q0 -201 29 -262q15 -28 98 -66q78 -30 78 -86q0 -54 -22.5 -70t-79.5 -16h-492q-65 0 -89.5 14t-24.5 72q0 51 65 86q80 0 105.5 78.5t25.5 208.5v1663q0 168 -30.5 249t-141.5 95q-13 3 -34 6t-40 10.5t-30 20t-11 33.5q0 72 139 152.5t218 80.5
q61 0 101.5 -33.5t64 -85.5t40.5 -121.5t27 -111.5q156 176 313.5 264t366.5 88q381 0 639 -291q234 -267 234 -692q0 -454 -234 -721q-131 -152 -325.5 -237.5t-395.5 -85.5q-123 0 -297 57.5t-174 155.5q0 34 21 64t53 30q35 0 86 -29q146 -70 336 -70q126 0 249.5 67
t196.5 171q156 225 156 565q0 327 -145.5 553t-456.5 226q-256 0 -434 -160q-105 -95 -145 -205.5t-40 -265.5v-1401z" />
    <glyph glyph-name="Ograve" unicode="&#xf1;" horiz-adv-x="1884" 
d="M1028 1765q-131 0 -245 -75t-185 -195q-74 -118 -113 -283t-39 -315q0 -186 76 -352.5t220.5 -267.5t334.5 -101q143 0 280.5 58.5t227.5 166.5q40 49 65 72t66 23q70 0 70 -74q0 -97 -160 -246q-264 -237 -602 -237q-276 0 -482 127.5t-314.5 349t-108.5 493.5
q0 214 73 407t206 339t316 228.5t400 82.5q254 0 451 -135q164 -106 164 -250q0 -59 -42 -109.5t-98 -50.5q-46 0 -74 15t-51.5 44.5t-50.5 63.5q-92 121 -169.5 171t-215.5 50z" />
    <glyph glyph-name="Ograve" unicode="&#x441;" horiz-adv-x="1884" 
d="M1028 1765q-131 0 -245 -75t-185 -195q-74 -118 -113 -283t-39 -315q0 -186 76 -352.5t220.5 -267.5t334.5 -101q143 0 280.5 58.5t227.5 166.5q40 49 65 72t66 23q70 0 70 -74q0 -97 -160 -246q-264 -237 -602 -237q-276 0 -482 127.5t-314.5 349t-108.5 493.5
q0 214 73 407t206 339t316 228.5t400 82.5q254 0 451 -135q164 -106 164 -250q0 -59 -42 -109.5t-98 -50.5q-46 0 -74 15t-51.5 44.5t-50.5 63.5q-92 121 -169.5 171t-215.5 50z" />
    <glyph glyph-name="Uacute" unicode="&#xf2;" horiz-adv-x="1765" 
d="M1159 180q44 0 75.5 -23t31.5 -71q0 -86 -127 -86h-512q-65 0 -96 16.5t-31 69.5q0 44 29.5 67t72.5 23q127 0 127 131v1311q0 97 -12.5 114t-81.5 17q-152 0 -255 -29.5t-208 -117.5l-24 -24t-34 -26.5t-44 -11.5q-40 0 -63 27.5t-23 62.5q0 76 31 191.5t108 115.5h1515
q84 0 114 -113.5t30 -193.5q0 -31 -21.5 -56.5t-56.5 -25.5q-22 0 -40.5 8t-33 20.5t-33.5 29.5q-118 95 -219 119t-243 24q-73 0 -86 -19.5t-13 -127.5v-1295q0 -66 39.5 -96.5t83.5 -30.5z" />
    <glyph glyph-name="Uacute" unicode="&#x442;" horiz-adv-x="1765" 
d="M1159 180q44 0 75.5 -23t31.5 -71q0 -86 -127 -86h-512q-65 0 -96 16.5t-31 69.5q0 44 29.5 67t72.5 23q127 0 127 131v1311q0 97 -12.5 114t-81.5 17q-152 0 -255 -29.5t-208 -117.5l-24 -24t-34 -26.5t-44 -11.5q-40 0 -63 27.5t-23 62.5q0 76 31 191.5t108 115.5h1515
q84 0 114 -113.5t30 -193.5q0 -31 -21.5 -56.5t-56.5 -25.5q-22 0 -40.5 8t-33 20.5t-33.5 29.5q-118 95 -219 119t-243 24q-73 0 -86 -19.5t-13 -127.5v-1295q0 -66 39.5 -96.5t83.5 -30.5z" />
    <glyph glyph-name="Ucircumflex" unicode="&#xf3;" horiz-adv-x="1966" 
d="M201 1552q-12 92 -27.5 141t-67.5 85q-20 16 -33.5 26.5t-24.5 26t-11 33.5q0 46 25.5 59.5t80.5 13.5h435q94 0 94 -65q0 -39 -51.5 -82.5t-80 -88t-28.5 -153.5q0 -81 26 -227t66 -304t68 -235q86 -218 205 -348q123 -143 237 -143q197 0 328 405q68 188 122 413.5
t54 385.5q0 157 -35.5 206t-98.5 83.5t-63 91.5q0 39 21.5 50t68.5 11h361q90 0 90 -57q0 -33 -12 -57q-66 -126 -78 -213l-57 -348q-50 -301 -177.5 -649t-285.5 -638q-177 -319 -437 -567t-550 -248q-92 0 -159 42t-67 126q0 58 42.5 103t101.5 45q37 0 110 -16.5
t111 -16.5q125 0 269 115t257.5 274.5t153.5 286.5q-121 -41 -189 -41q-162 0 -300.5 130t-227.5 304q-173 341 -242 844z" />
    <glyph glyph-name="Ucircumflex" unicode="&#x443;" horiz-adv-x="1966" 
d="M201 1552q-12 92 -27.5 141t-67.5 85q-20 16 -33.5 26.5t-24.5 26t-11 33.5q0 46 25.5 59.5t80.5 13.5h435q94 0 94 -65q0 -39 -51.5 -82.5t-80 -88t-28.5 -153.5q0 -81 26 -227t66 -304t68 -235q86 -218 205 -348q123 -143 237 -143q197 0 328 405q68 188 122 413.5
t54 385.5q0 157 -35.5 206t-98.5 83.5t-63 91.5q0 39 21.5 50t68.5 11h361q90 0 90 -57q0 -33 -12 -57q-66 -126 -78 -213l-57 -348q-50 -301 -177.5 -649t-285.5 -638q-177 -319 -437 -567t-550 -248q-92 0 -159 42t-67 126q0 58 42.5 103t101.5 45q37 0 110 -16.5
t111 -16.5q125 0 269 115t257.5 274.5t153.5 286.5q-121 -41 -189 -41q-162 0 -300.5 130t-227.5 304q-173 341 -242 844z" />
    <glyph glyph-name="Ugrave" unicode="&#xf4;" horiz-adv-x="3359" 
d="M1528 180q-87 -94 -242 -167.5t-270 -73.5q-257 0 -456 135.5t-308 373.5t-109 535q0 196 57.5 372.5t164 315t253 217t316.5 78.5q169 0 330 -89.5t268 -262.5l-4 672q0 168 -30.5 249t-141.5 95q-115 0 -115 69q0 73 138.5 153.5t217.5 80.5q117 0 175.5 -114
t58.5 -239v-966q107 173 268 262.5t330 89.5q225 0 406.5 -135.5t282.5 -363t101 -484.5q0 -297 -108.5 -535t-307 -373.5t-456.5 -135.5q-115 0 -269 73.5t-243 167.5v-483q0 -201 29 -262q15 -28 98 -66q78 -30 78 -86q0 -54 -22.5 -70t-80.5 -16h-491q-66 0 -90.5 13.5
t-24.5 72.5q0 50 66 86q80 0 105.5 78.5t25.5 208.5v524zM1528 1098q0 162 -61 306t-183.5 234.5t-292.5 90.5q-174 0 -290.5 -110.5t-173 -288t-56.5 -380.5q0 -190 60 -377t177.5 -306.5t282.5 -119.5q228 0 361 110.5t176 184.5v656zM1835 442q43 -74 176 -184.5
t361 -110.5q165 0 282.5 119.5t177.5 306t60 377.5q0 319 -132.5 549t-387.5 230q-170 0 -292.5 -90.5t-183.5 -234.5t-61 -306v-656z" />
    <glyph glyph-name="Ugrave" unicode="&#x444;" horiz-adv-x="3359" 
d="M1528 180q-87 -94 -242 -167.5t-270 -73.5q-257 0 -456 135.5t-308 373.5t-109 535q0 196 57.5 372.5t164 315t253 217t316.5 78.5q169 0 330 -89.5t268 -262.5l-4 672q0 168 -30.5 249t-141.5 95q-115 0 -115 69q0 73 138.5 153.5t217.5 80.5q117 0 175.5 -114
t58.5 -239v-966q107 173 268 262.5t330 89.5q225 0 406.5 -135.5t282.5 -363t101 -484.5q0 -297 -108.5 -535t-307 -373.5t-456.5 -135.5q-115 0 -269 73.5t-243 167.5v-483q0 -201 29 -262q15 -28 98 -66q78 -30 78 -86q0 -54 -22.5 -70t-80.5 -16h-491q-66 0 -90.5 13.5
t-24.5 72.5q0 50 66 86q80 0 105.5 78.5t25.5 208.5v524zM1528 1098q0 162 -61 306t-183.5 234.5t-292.5 90.5q-174 0 -290.5 -110.5t-173 -288t-56.5 -380.5q0 -190 60 -377t177.5 -306.5t282.5 -119.5q228 0 361 110.5t176 184.5v656zM1835 442q43 -74 176 -184.5
t361 -110.5q165 0 282.5 119.5t177.5 306t60 377.5q0 319 -132.5 549t-387.5 230q-170 0 -292.5 -90.5t-183.5 -234.5t-61 -306v-656z" />
    <glyph glyph-name="dotlessi" unicode="&#xf5;" horiz-adv-x="2048" 
d="M360 1499q-73 110 -122 168t-127 98q-44 27 -59 44.5t-15 62.5q0 43 22.5 54t75.5 11h479q51 0 73 -12t22 -57q0 -37 -49.5 -79.5t-49.5 -76.5q0 -38 47 -111t111 -149t149.5 -168.5t98.5 -107.5q119 125 248 291t129 245q0 27 -16 41.5t-49.5 35t-47.5 36.5t-14 47
q0 65 106 65h377q57 0 79.5 -12t22.5 -57q0 -51 -65 -86q-71 -38 -96.5 -59.5t-71.5 -88.5l-475 -594l463 -544q142 -188 204 -242q28 -28 136 -78q69 -34 69 -90q0 -86 -114 -86h-492q-53 0 -77.5 15t-24.5 63q0 24 13 42.5t39.5 43t38 39.5t11.5 39q0 58 -135 211
t-270 292l-70 74q-128 -133 -260.5 -302t-132.5 -247q0 -39 18.5 -60t55.5 -42t57 -40t20 -54q0 -74 -110 -74h-463q-51 0 -68.5 14.5t-17.5 71.5t73 86q87 43 108.5 61.5t84.5 106.5l508 618z" />
    <glyph glyph-name="dotlessi" unicode="&#x445;" horiz-adv-x="2048" 
d="M360 1499q-73 110 -122 168t-127 98q-44 27 -59 44.5t-15 62.5q0 43 22.5 54t75.5 11h479q51 0 73 -12t22 -57q0 -37 -49.5 -79.5t-49.5 -76.5q0 -38 47 -111t111 -149t149.5 -168.5t98.5 -107.5q119 125 248 291t129 245q0 27 -16 41.5t-49.5 35t-47.5 36.5t-14 47
q0 65 106 65h377q57 0 79.5 -12t22.5 -57q0 -51 -65 -86q-71 -38 -96.5 -59.5t-71.5 -88.5l-475 -594l463 -544q142 -188 204 -242q28 -28 136 -78q69 -34 69 -90q0 -86 -114 -86h-492q-53 0 -77.5 15t-24.5 63q0 24 13 42.5t39.5 43t38 39.5t11.5 39q0 58 -135 211
t-270 292l-70 74q-128 -133 -260.5 -302t-132.5 -247q0 -39 18.5 -60t55.5 -42t57 -40t20 -54q0 -74 -110 -74h-463q-51 0 -68.5 14.5t-17.5 71.5t73 86q87 43 108.5 61.5t84.5 106.5l508 618z" />
    <glyph glyph-name="circumflex" unicode="&#xf6;" horiz-adv-x="2294" 
d="M279 0q-94 0 -129 17t-35 77q0 54 73 82q41 0 88.5 29t47.5 90v1347q0 61 -47.5 90t-88.5 29q-73 30 -73 82q0 59 35 76.5t129 17.5h454q107 0 107 -94q0 -55 -82 -86q-39 0 -83 -29t-44 -86v-1347q0 -115 127 -115h798q132 0 132 115v1347q0 59 -46.5 89t-85.5 30
q-69 29 -69 82q0 61 33.5 77.5t121.5 16.5h451q102 0 102 -94q0 -49 -73 -86q-18 -7 -50 -19t-54.5 -34t-22.5 -62v-1347q0 -43 30 -66.5t80.5 -43t57.5 -25.5q42 -42 60 -133.5t18 -145.5q0 -31 -21.5 -56.5t-56.5 -25.5q-23 0 -44.5 10t-36.5 23t-30 25
q-102 77 -201.5 110t-240.5 33h-1331z" />
    <glyph glyph-name="circumflex" unicode="&#x446;" horiz-adv-x="2294" 
d="M279 0q-94 0 -129 17t-35 77q0 54 73 82q41 0 88.5 29t47.5 90v1347q0 61 -47.5 90t-88.5 29q-73 30 -73 82q0 59 35 76.5t129 17.5h454q107 0 107 -94q0 -55 -82 -86q-39 0 -83 -29t-44 -86v-1347q0 -115 127 -115h798q132 0 132 115v1347q0 59 -46.5 89t-85.5 30
q-69 29 -69 82q0 61 33.5 77.5t121.5 16.5h451q102 0 102 -94q0 -49 -73 -86q-18 -7 -50 -19t-54.5 -34t-22.5 -62v-1347q0 -43 30 -66.5t80.5 -43t57.5 -25.5q42 -42 60 -133.5t18 -145.5q0 -31 -21.5 -56.5t-56.5 -25.5q-23 0 -44.5 10t-36.5 23t-30 25
q-102 77 -201.5 110t-240.5 33h-1331z" />
    <glyph glyph-name="tilde" unicode="&#xf7;" horiz-adv-x="2048" 
d="M205 1692q0 53 -62 65q-106 19 -106 94q0 86 127 86h381q127 0 127 -86q0 -41 -18.5 -56t-63.5 -34q-74 -32 -82 -123q-10 -58 -25.5 -184t-15.5 -254q0 -311 442 -311q146 0 296.5 50.5t219.5 84.5v618q0 86 -94 111q-54 16 -80 34.5t-26 63.5q0 56 34 71t101 15h446
q127 0 127 -86q0 -68 -90 -102q-22 -8 -40.5 -14.5t-34 -17t-25.5 -30.5t-10 -49v-1343q0 -74 102 -107q98 -26 98 -102q0 -86 -127 -86h-458q-127 0 -127 86q0 76 90 94q114 24 114 119v541q-82 -40 -258.5 -100t-355.5 -60q-647 0 -647 520q0 132 15.5 276.5t25.5 215.5z
" />
    <glyph glyph-name="tilde" unicode="&#x447;" horiz-adv-x="2048" 
d="M205 1692q0 53 -62 65q-106 19 -106 94q0 86 127 86h381q127 0 127 -86q0 -41 -18.5 -56t-63.5 -34q-74 -32 -82 -123q-10 -58 -25.5 -184t-15.5 -254q0 -311 442 -311q146 0 296.5 50.5t219.5 84.5v618q0 86 -94 111q-54 16 -80 34.5t-26 63.5q0 56 34 71t101 15h446
q127 0 127 -86q0 -68 -90 -102q-22 -8 -40.5 -14.5t-34 -17t-25.5 -30.5t-10 -49v-1343q0 -74 102 -107q98 -26 98 -102q0 -86 -127 -86h-458q-127 0 -127 86q0 76 90 94q114 24 114 119v541q-82 -40 -258.5 -100t-355.5 -60q-647 0 -647 520q0 132 15.5 276.5t25.5 215.5z
" />
    <glyph glyph-name="macron" unicode="&#xf8;" horiz-adv-x="2949" 
d="M1212 180q36 0 73.5 31.5t37.5 83.5v1347q0 59 -46.5 89t-84.5 30q-70 29 -70 82q0 60 32 77t124 17h451q41 0 71.5 -25.5t30.5 -68.5q0 -48 -74 -86q-18 -7 -50 -19t-54.5 -34t-22.5 -62v-1347q0 -39 22 -61t49.5 -32.5t55.5 -21.5q145 0 265.5 -1.5t172.5 -2.5
q40 0 86 30t46 89v1347q0 59 -46.5 89t-85.5 30q-69 29 -69 82q0 60 31.5 77t123.5 17h451q41 0 71.5 -25.5t30.5 -68.5q0 -49 -73 -86q-18 -7 -50 -19t-54.5 -34t-22.5 -62v-1347q0 -39 22 -61t49.5 -32.5t55.5 -21.5q73 -36 73 -86q0 -42 -30 -68t-72 -26h-2453
q-94 0 -129 18t-35 76q0 54 73 82q41 0 88.5 29t47.5 90v1347q0 61 -47.5 90t-88.5 29q-73 30 -73 82q0 59 35 76.5t129 17.5h454q45 0 76 -25.5t31 -68.5q0 -55 -82 -86q-39 0 -83 -29t-44 -86v-1347q0 -56 47 -85.5t88 -29.5h446z" />
    <glyph glyph-name="macron" unicode="&#x448;" horiz-adv-x="2949" 
d="M1212 180q36 0 73.5 31.5t37.5 83.5v1347q0 59 -46.5 89t-84.5 30q-70 29 -70 82q0 60 32 77t124 17h451q41 0 71.5 -25.5t30.5 -68.5q0 -48 -74 -86q-18 -7 -50 -19t-54.5 -34t-22.5 -62v-1347q0 -39 22 -61t49.5 -32.5t55.5 -21.5q145 0 265.5 -1.5t172.5 -2.5
q40 0 86 30t46 89v1347q0 59 -46.5 89t-85.5 30q-69 29 -69 82q0 60 31.5 77t123.5 17h451q41 0 71.5 -25.5t30.5 -68.5q0 -49 -73 -86q-18 -7 -50 -19t-54.5 -34t-22.5 -62v-1347q0 -39 22 -61t49.5 -32.5t55.5 -21.5q73 -36 73 -86q0 -42 -30 -68t-72 -26h-2453
q-94 0 -129 18t-35 76q0 54 73 82q41 0 88.5 29t47.5 90v1347q0 61 -47.5 90t-88.5 29q-73 30 -73 82q0 59 35 76.5t129 17.5h454q45 0 76 -25.5t31 -68.5q0 -55 -82 -86q-39 0 -83 -29t-44 -86v-1347q0 -56 47 -85.5t88 -29.5h446z" />
    <glyph glyph-name="breve" unicode="&#xf9;" horiz-adv-x="2949" 
d="M279 0q-94 0 -129 18t-35 76q0 54 73 82q41 0 88.5 29t47.5 90v1347q0 61 -47.5 90t-88.5 29q-73 30 -73 82q0 59 35 76.5t129 17.5h454q45 0 76 -25.5t31 -68.5q0 -55 -82 -86q-39 0 -83 -29t-44 -86v-1347q0 -115 127 -115h454q111 0 111 115v1347q0 59 -46.5 89
t-84.5 30q-70 29 -70 82q0 60 32 77t124 17h451q41 0 71.5 -25.5t30.5 -68.5q0 -48 -74 -86q-18 -7 -50 -19t-54.5 -34t-22.5 -62v-1347q0 -65 28 -90t99 -25h438q132 0 132 115v1347q0 59 -46.5 89t-85.5 30q-69 29 -69 82q0 60 31.5 77t123.5 17h451q41 0 71.5 -25.5
t30.5 -68.5q0 -49 -73 -86q-18 -7 -50 -19t-54.5 -34t-22.5 -62v-1347q0 -43 30 -66.5t80.5 -43t57.5 -25.5q42 -42 59.5 -134.5t17.5 -144.5q0 -30 -21 -56t-56 -26q-23 0 -44.5 10t-36.5 23t-30 25q-102 77 -201.5 110t-240.5 33h-1970z" />
    <glyph glyph-name="breve" unicode="&#x449;" horiz-adv-x="2949" 
d="M279 0q-94 0 -129 18t-35 76q0 54 73 82q41 0 88.5 29t47.5 90v1347q0 61 -47.5 90t-88.5 29q-73 30 -73 82q0 59 35 76.5t129 17.5h454q45 0 76 -25.5t31 -68.5q0 -55 -82 -86q-39 0 -83 -29t-44 -86v-1347q0 -115 127 -115h454q111 0 111 115v1347q0 59 -46.5 89
t-84.5 30q-70 29 -70 82q0 60 32 77t124 17h451q41 0 71.5 -25.5t30.5 -68.5q0 -48 -74 -86q-18 -7 -50 -19t-54.5 -34t-22.5 -62v-1347q0 -65 28 -90t99 -25h438q132 0 132 115v1347q0 59 -46.5 89t-85.5 30q-69 29 -69 82q0 60 31.5 77t123.5 17h451q41 0 71.5 -25.5
t30.5 -68.5q0 -49 -73 -86q-18 -7 -50 -19t-54.5 -34t-22.5 -62v-1347q0 -43 30 -66.5t80.5 -43t57.5 -25.5q42 -42 59.5 -134.5t17.5 -144.5q0 -30 -21 -56t-56 -26q-23 0 -44.5 10t-36.5 23t-30 25q-102 77 -201.5 110t-240.5 33h-1970z" />
    <glyph glyph-name="dotaccent" unicode="&#xfa;" horiz-adv-x="2048" 
d="M483 1749q-188 0 -352 -147q-4 0 -38 -31t-64 -31q-40 0 -63 27.5t-23 62.5q21 132 53 219.5t106 87.5h844q131 0 131 -86q0 -102 -114 -102q-32 0 -63.5 -29t-31.5 -86v-417q446 0 729 -132q190 -84 316.5 -230.5t126.5 -334.5q0 -300 -291 -430q-189 -90 -512 -90h-762
q-123 0 -123 86q0 47 35 68.5t72 21.5q46 0 74 36.5t28 86.5v1339q0 111 -78 111zM868 1028v-668q0 -65 8.5 -90.5t45.5 -48.5q53 -28 237 -28q248 0 373 73q168 102 168 283q0 165 -129 273.5t-322 157t-381 48.5z" />
    <glyph glyph-name="dotaccent" unicode="&#x44a;" horiz-adv-x="2048" 
d="M483 1749q-188 0 -352 -147q-4 0 -38 -31t-64 -31q-40 0 -63 27.5t-23 62.5q21 132 53 219.5t106 87.5h844q131 0 131 -86q0 -102 -114 -102q-32 0 -63.5 -29t-31.5 -86v-417q446 0 729 -132q190 -84 316.5 -230.5t126.5 -334.5q0 -300 -291 -430q-189 -90 -512 -90h-762
q-123 0 -123 86q0 47 35 68.5t72 21.5q46 0 74 36.5t28 86.5v1339q0 111 -78 111zM868 1028v-668q0 -65 8.5 -90.5t45.5 -48.5q53 -28 237 -28q248 0 373 73q168 102 168 283q0 165 -129 273.5t-322 157t-381 48.5z" />
    <glyph glyph-name="ring" unicode="&#xfb;" horiz-adv-x="2703" 
d="M2380 295q0 -60 43 -87.5t84 -27.5q82 -29 82 -86q0 -42 -30.5 -68t-76.5 -26h-454q-94 0 -129 18t-35 76q0 54 73 82q41 0 88.5 29t47.5 90v1347q0 61 -47.5 90t-88.5 29q-73 30 -73 82q0 59 35 76.5t129 17.5h454q45 0 76 -25.5t31 -68.5q0 -55 -82 -86q-39 0 -83 -29
t-44 -86v-1347zM631 1634v-417q445 0 729 -132q188 -84 315 -230.5t127 -334.5q0 -145 -77 -257t-214 -173q-188 -90 -512 -90h-761q-123 0 -123 86q0 67 106 90q103 19 103 123v1339q0 100 -115 119q-94 18 -94 94q0 86 118 86h476q131 0 131 -86q0 -55 -26.5 -70.5
t-88.5 -31.5q-94 -23 -94 -115zM631 1028v-668q0 -65 7.5 -89.5t45.5 -49.5q53 -28 238 -28q248 0 372 73q168 101 168 283q0 165 -129 273.5t-321.5 157t-380.5 48.5z" />
    <glyph glyph-name="ring" unicode="&#x44b;" horiz-adv-x="2703" 
d="M2380 295q0 -60 43 -87.5t84 -27.5q82 -29 82 -86q0 -42 -30.5 -68t-76.5 -26h-454q-94 0 -129 18t-35 76q0 54 73 82q41 0 88.5 29t47.5 90v1347q0 61 -47.5 90t-88.5 29q-73 30 -73 82q0 59 35 76.5t129 17.5h454q45 0 76 -25.5t31 -68.5q0 -55 -82 -86q-39 0 -83 -29
t-44 -86v-1347zM631 1634v-417q445 0 729 -132q188 -84 315 -230.5t127 -334.5q0 -145 -77 -257t-214 -173q-188 -90 -512 -90h-761q-123 0 -123 86q0 67 106 90q103 19 103 123v1339q0 100 -115 119q-94 18 -94 94q0 86 118 86h476q131 0 131 -86q0 -55 -26.5 -70.5
t-88.5 -31.5q-94 -23 -94 -115zM631 1028v-668q0 -65 7.5 -89.5t45.5 -49.5q53 -28 238 -28q248 0 372 73q168 101 168 283q0 165 -129 273.5t-321.5 157t-380.5 48.5z" />
    <glyph glyph-name="cedilla" unicode="&#xfc;" horiz-adv-x="1802" 
d="M631 1634v-417q445 0 729 -132q188 -84 315 -230.5t127 -334.5q0 -145 -77 -257t-214 -173q-188 -90 -512 -90h-761q-123 0 -123 86q0 67 106 90q103 19 103 123v1339q0 100 -115 119q-94 18 -94 94q0 86 118 86h476q131 0 131 -86q0 -55 -26.5 -70.5t-88.5 -31.5
q-94 -23 -94 -115zM631 1028v-668q0 -65 7.5 -89.5t45.5 -49.5q53 -28 238 -28q248 0 372 73q168 101 168 283q0 165 -129 273.5t-321.5 157t-380.5 48.5z" />
    <glyph glyph-name="cedilla" unicode="&#x44c;" horiz-adv-x="1802" 
d="M631 1634v-417q445 0 729 -132q188 -84 315 -230.5t127 -334.5q0 -145 -77 -257t-214 -173q-188 -90 -512 -90h-761q-123 0 -123 86q0 67 106 90q103 19 103 123v1339q0 100 -115 119q-94 18 -94 94q0 86 118 86h476q131 0 131 -86q0 -55 -26.5 -70.5t-88.5 -31.5
q-94 -23 -94 -115zM631 1028v-668q0 -65 7.5 -89.5t45.5 -49.5q53 -28 238 -28q248 0 372 73q168 101 168 283q0 165 -129 273.5t-321.5 157t-380.5 48.5z" />
    <glyph glyph-name="hungarumlaut" unicode="&#xfd;" horiz-adv-x="1884" 
d="M1425 1126q0 63 -40 170t-99 199q-72 121 -185.5 195.5t-244.5 74.5q-257 0 -385 -221q-57 -98 -135 -98q-93 0 -131 143q-8 34 -8 58q0 111 77 163q218 156 496 156q218 0 401.5 -82.5t316.5 -228.5t205 -339t72 -407q0 -272 -108 -493.5t-313.5 -349t-483.5 -127.5
q-338 0 -602 237q-160 149 -160 246q0 74 70 74q41 0 70 -26t61 -69q93 -109 229 -167t279 -58q190 0 333.5 98t220.5 273t77 395h-795q-98 0 -98 90q0 36 27 65t71 29h782z" />
    <glyph glyph-name="hungarumlaut" unicode="&#x44d;" horiz-adv-x="1884" 
d="M1425 1126q0 63 -40 170t-99 199q-72 121 -185.5 195.5t-244.5 74.5q-257 0 -385 -221q-57 -98 -135 -98q-93 0 -131 143q-8 34 -8 58q0 111 77 163q218 156 496 156q218 0 401.5 -82.5t316.5 -228.5t205 -339t72 -407q0 -272 -108 -493.5t-313.5 -349t-483.5 -127.5
q-338 0 -602 237q-160 149 -160 246q0 74 70 74q41 0 70 -26t61 -69q93 -109 229 -167t279 -58q190 0 333.5 98t220.5 273t77 395h-795q-98 0 -98 90q0 36 27 65t71 29h782z" />
    <glyph glyph-name="ogonek" unicode="&#xfe;" horiz-adv-x="3113" 
d="M958 1126q43 236 188.5 427.5t363 302t460.5 110.5q271 0 506 -133.5t372.5 -364t137.5 -501.5q0 -287 -137 -523t-375.5 -370.5t-523.5 -134.5q-204 0 -386 77.5t-322.5 217t-218 322t-77.5 386.5h-315v-647q0 -57 43.5 -86t83.5 -29q82 -29 82 -86q0 -42 -30.5 -68
t-76.5 -26h-454q-94 0 -129 18t-35 76q0 54 73 82q41 0 88.5 29t47.5 90v1347q0 61 -47.5 90t-88.5 29q-73 30 -73 82q0 59 35 76.5t129 17.5h454q45 0 76 -25.5t31 -68.5q0 -55 -82 -86q-39 0 -83 -29t-44 -86v-516h327zM2486 406q172 222 172 565q0 336 -184.5 565
t-511.5 229q-227 0 -382.5 -116t-230.5 -305t-75 -410q0 -336 178 -565.5t502 -229.5q155 0 296.5 70.5t235.5 196.5z" />
    <glyph glyph-name="ogonek" unicode="&#x44e;" horiz-adv-x="3113" 
d="M958 1126q43 236 188.5 427.5t363 302t460.5 110.5q271 0 506 -133.5t372.5 -364t137.5 -501.5q0 -287 -137 -523t-375.5 -370.5t-523.5 -134.5q-204 0 -386 77.5t-322.5 217t-218 322t-77.5 386.5h-315v-647q0 -57 43.5 -86t83.5 -29q82 -29 82 -86q0 -42 -30.5 -68
t-76.5 -26h-454q-94 0 -129 18t-35 76q0 54 73 82q41 0 88.5 29t47.5 90v1347q0 61 -47.5 90t-88.5 29q-73 30 -73 82q0 59 35 76.5t129 17.5h454q45 0 76 -25.5t31 -68.5q0 -55 -82 -86q-39 0 -83 -29t-44 -86v-516h327zM2486 406q172 222 172 565q0 336 -184.5 565
t-511.5 229q-227 0 -382.5 -116t-230.5 -305t-75 -410q0 -336 178 -565.5t502 -229.5q155 0 296.5 70.5t235.5 196.5z" />
    <glyph glyph-name="caron" unicode="&#xff;" horiz-adv-x="2048" 
d="M963 877q-58 -58 -154.5 -200.5t-170 -276.5t-73.5 -171q0 -23 42 -41t67 -36.5t35 -69.5q0 -82 -140 -82h-426q-123 0 -123 82q0 46 32 66t59 20q22 4 62 41.5t69 97.5q157 314 405 651q-430 200 -430 521q0 228 217 364q155 94 430 94h938q127 0 127 -86
q0 -67 -110 -106q-48 -21 -71.5 -38.5t-23.5 -64.5v-1343q0 -48 27 -68.5t88 -46.5q86 -34 86 -98q0 -86 -127 -86h-446q-69 0 -102 14.5t-33 71.5q0 68 90 94q110 35 110 111v520zM1380 1716q-37 29 -274 29q-549 0 -549 -299q0 -150 138 -241t309 -130.5t413 -75.5v582
q0 119 -37 135z" />
    <glyph glyph-name="caron" unicode="&#x44f;" horiz-adv-x="2048" 
d="M963 877q-58 -58 -154.5 -200.5t-170 -276.5t-73.5 -171q0 -23 42 -41t67 -36.5t35 -69.5q0 -82 -140 -82h-426q-123 0 -123 82q0 46 32 66t59 20q22 4 62 41.5t69 97.5q157 314 405 651q-430 200 -430 521q0 228 217 364q155 94 430 94h938q127 0 127 -86
q0 -67 -110 -106q-48 -21 -71.5 -38.5t-23.5 -64.5v-1343q0 -48 27 -68.5t88 -46.5q86 -34 86 -98q0 -86 -127 -86h-446q-69 0 -102 14.5t-33 71.5q0 68 90 94q110 35 110 111v520zM1380 1716q-37 29 -274 29q-549 0 -549 -299q0 -150 138 -241t309 -130.5t413 -75.5v582
q0 119 -37 135z" />
    <glyph glyph-name="ntilde" unicode="&#x2013;" horiz-adv-x="2048" 
d="M164 1053q-109 0 -149 18.5t-40 83.5q0 88 34.5 109.5t154.5 21.5h1716q111 0 152 -17t41 -81q0 -91 -35 -113t-158 -22h-1716z" />
    <glyph glyph-name="oacute" unicode="&#x2014;" horiz-adv-x="4096" 
d="M209 1053q-135 0 -184.5 18.5t-49.5 83.5q0 62 19 89t65 34.5t150 7.5h3678q137 0 185.5 -16.5t48.5 -81.5q0 -92 -41.5 -113.5t-192.5 -21.5h-3678z" />
    <glyph glyph-name="edieresis" unicode="&#x2018;" horiz-adv-x="1147" 
d="M344 2408q0 168 76 333t203 274q45 45 65 45t34.5 -15.5t14.5 -33.5q0 -17 -71 -93.5t-122.5 -162t-51.5 -195.5q0 -58 19 -78t71 -20q217 0 217 -197q0 -81 -59 -134.5t-142 -53.5q-126 0 -190 100t-64 231z" />
    <glyph glyph-name="iacute" unicode="&#x2019;" horiz-adv-x="1147" 
d="M803 2728q0 -167 -75.5 -332t-203.5 -274q-42 -45 -65 -45q-19 0 -34 15t-15 34q0 17 71 93t122.5 162.5t51.5 194.5q0 59 -18 79t-72 20q-217 0 -217 196q0 54 28 97.5t74 67.5t99 24q128 0 191 -99t63 -233z" />
    <glyph glyph-name="igrave" unicode="&#x201c;" horiz-adv-x="1884" 
d="M344 2408q0 168 76 333t203 274q45 45 65 45t34.5 -15.5t14.5 -33.5q0 -17 -71 -93.5t-122.5 -162t-51.5 -195.5q0 -58 19 -78t71 -20q217 0 217 -197q0 -81 -59 -134.5t-142 -53.5q-126 0 -190 100t-64 231zM1061 2408q0 168 76 333.5t202 273.5q49 45 66 45
q20 0 34.5 -15.5t14.5 -33.5q0 -17 -72.5 -95t-123 -162t-50.5 -194q0 -58 19 -78t71 -20q218 0 218 -197q0 -80 -59.5 -134t-141.5 -54q-128 0 -191 99t-63 232z" />
    <glyph glyph-name="icircumflex" unicode="&#x201d;" horiz-adv-x="1884" 
d="M1520 2728q0 -167 -75.5 -332t-203.5 -274q-42 -45 -65 -45q-19 0 -34.5 14.5t-15.5 34.5q0 17 72.5 94.5t123 162.5t50.5 193q0 59 -18 79t-72 20q-217 0 -217 196q0 54 28 97.5t74 67.5t99 24q128 0 191 -99t63 -233zM803 2728q0 -167 -75.5 -332t-203.5 -274
q-42 -45 -65 -45q-19 0 -34 15t-15 34q0 17 71 93t122.5 162.5t51.5 194.5q0 59 -18 79t-72 20q-217 0 -217 196q0 54 28 97.5t74 67.5t99 24q128 0 191 -99t63 -233z" />
    <glyph glyph-name="Udieresis" unicode="&#x2020;" horiz-adv-x="2048" 
d="M1208 1348l-139 -1762q-6 -68 -14 -95.5t-47 -27.5q-62 0 -62 123l-123 1762l90 565l-491 -90q-66 -8 -94 -8q-72 0 -127 32q-90 54 -90 172q0 94 61 144q47 41 115 41q30 0 82 -9l544 -81l-82 647q-8 64 -8 94q0 68 29 111q63 94 180 94q73 0 131 -58q41 -40 41 -204
l-86 -684l516 81q96 13 111 13q64 0 106 -33q86 -59 86 -168q0 -90 -57.5 -143.5t-146.5 -53.5q-28 0 -66.5 5.5t-56.5 7.5l-492 90z" />
    <glyph glyph-name="Odieresis" unicode="&#x2026;" horiz-adv-x="4096" 
d="M463 193q0 89 65 151t156 62q94 0 155.5 -64.5t61.5 -161.5q0 -90 -65.5 -151.5t-155.5 -61.5q-94 0 -155.5 65.5t-61.5 160.5zM1827 193q0 89 65 151t156 62q94 0 155.5 -64.5t61.5 -161.5q0 -90 -65.5 -151.5t-155.5 -61.5q-94 0 -155.5 65.5t-61.5 160.5zM3191 193
q0 89 65 151t156 62q94 0 155.5 -64.5t61.5 -161.5q0 -90 -65.5 -151.5t-155.5 -61.5q-94 0 -155.5 65.5t-61.5 160.5z" />
    <glyph glyph-name="ocircumflex" unicode="&#x2122;" horiz-adv-x="3277" 
d="M2470 1769q-87 -204 -143 -204q-52 0 -91 69l-172 389l-209 553v-1183q0 -26 87 -62q81 -26 81 -98q0 -84 -69 -90h-324q-58 0 -82 19.5t-24 74.5q0 67 73 86q47 15 58.5 43.5t11.5 112.5v1290q0 10 -7.5 15.5t-16.5 9t-21 8.5q-50 18 -70 37.5t-20 68.5q0 61 34 75.5
t109 14.5h197q77 0 101 -12t42 -61l21 -70l307 -877q68 98 160 402l139 454q29 115 56.5 139.5t131.5 24.5h86q16 0 52 2t55 2q110 0 110 -94q0 -81 -77 -115q-37 -19 -45.5 -42.5t-8.5 -79.5v-1192q0 -84 12.5 -112.5t57.5 -43.5q74 -20 74 -86q0 -56 -24 -75t-83 -19h-319
q-56 4 -79.5 19.5t-23.5 70.5q0 69 78 94q62 26 62 66v1122zM942 1479q0 -80 9 -109.5t44 -38.5q90 -29 90 -94q0 -55 -23.5 -74.5t-82.5 -19.5h-328q-58 0 -82 19t-24 75q0 67 73 86q47 15 58.5 43.5t11.5 112.5v1261q0 52 -6 63t-35 11q-50 0 -164 -25q-88 -22 -134.5 -55
t-86.5 -108q-40 -74 -82 -74q-74 0 -74 94q0 25 9.5 71t11.5 68q8 38 20 101t24 81.5t40 24.5t96 6h1012q64 0 94 -8.5t43 -27.5t20.5 -56.5t18.5 -95.5q7 -37 12.5 -63.5t9 -46.5t3.5 -42q0 -98 -78 -98q-38 0 -70 61q-52 98 -122 133t-197 48q-29 3 -55.5 7.5t-30.5 4.5
q-25 0 -25 -66v-1269z" />
  </font>
</defs>
</svg>
